<svg width="18" height="18" viewBox="0 0 18 18" fill="none" xmlns="http://www.w3.org/2000/svg">
<path fill-rule="evenodd" clip-rule="evenodd" d="M8.60214 12.21C8.70761 12.3153 8.85058 12.3745 8.99964 12.3745C9.1487 12.3745 9.29167 12.3153 9.39714 12.21L15.0221 6.58501C15.0774 6.53351 15.1217 6.47141 15.1525 6.40241C15.1832 6.33341 15.1998 6.25893 15.2011 6.1834C15.2024 6.10787 15.1885 6.03285 15.1602 5.96281C15.1319 5.89277 15.0898 5.82914 15.0364 5.77573C14.983 5.72231 14.9194 5.68021 14.8493 5.65191C14.7793 5.62362 14.7043 5.60973 14.6287 5.61106C14.5532 5.6124 14.4787 5.62893 14.4097 5.65967C14.3407 5.69041 14.2786 5.73474 14.2271 5.79001L8.99964 11.0175L3.77214 5.79001C3.66551 5.69065 3.52447 5.63655 3.37875 5.63913C3.23302 5.6417 3.09398 5.70073 2.99092 5.80379C2.88786 5.90685 2.82883 6.04589 2.82626 6.19162C2.82369 6.33734 2.87778 6.47838 2.97714 6.58501L8.60214 12.21Z" fill="white"/>
</svg>
