<svg width="18" height="18" viewBox="0 0 18 18" fill="none" xmlns="http://www.w3.org/2000/svg">
<path fill-rule="evenodd" clip-rule="evenodd" d="M8.77597 12.599C8.88144 12.7044 9.02441 12.7635 9.17347 12.7635C9.32253 12.7635 9.4655 12.7044 9.57097 12.599L15.196 6.97403C15.2512 6.92253 15.2956 6.86043 15.3263 6.79143C15.357 6.72243 15.3736 6.64795 15.3749 6.57242C15.3762 6.49689 15.3624 6.42187 15.3341 6.35183C15.3058 6.28179 15.2637 6.21817 15.2102 6.16475C15.1568 6.11134 15.0932 6.06923 15.0232 6.04094C14.9531 6.01265 14.8781 5.99875 14.8026 6.00009C14.7271 6.00142 14.6526 6.01795 14.5836 6.04869C14.5146 6.07944 14.4525 6.12376 14.401 6.17903L9.17347 11.4065L3.94597 6.17903C3.83934 6.07967 3.6983 6.02558 3.55258 6.02815C3.40685 6.03072 3.26781 6.08975 3.16475 6.19281C3.06169 6.29587 3.00266 6.43491 3.00009 6.58064C2.99752 6.72636 3.05161 6.8674 3.15097 6.97403L8.77597 12.599Z" fill="#141F7E"/>
</svg>
