<svg width="448" height="191" viewBox="0 0 448 191" fill="none" xmlns="http://www.w3.org/2000/svg">
<g clip-path="url(#clip0_150_2)">
<mask id="mask0_150_2" style="mask-type:luminance" maskUnits="userSpaceOnUse" x="0" y="0" width="448" height="191">
<path d="M435.281 0H12C5.37258 0 0 5.37258 0 12V178.208C0 184.835 5.37258 190.208 12 190.208H435.281C441.908 190.208 447.281 184.835 447.281 178.208V12C447.281 5.37258 441.908 0 435.281 0Z" fill="white"/>
</mask>
<g mask="url(#mask0_150_2)">
<path d="M430.281 0H17C7.61116 0 0 7.61116 0 17V173.208C0 182.597 7.61116 190.208 17 190.208H430.281C439.67 190.208 447.281 182.597 447.281 173.208V17C447.281 7.61116 439.67 0 430.281 0Z" fill="#68246D"/>
<path d="M26.912 94.824C86.5102 94.824 134.824 46.5102 134.824 -13.088C134.824 -72.6861 86.5102 -121 26.912 -121C-32.6861 -121 -81 -72.6861 -81 -13.088C-81 46.5102 -32.6861 94.824 26.912 94.824Z" fill="white" fill-opacity="0.1"/>
<path d="M422.216 298.12C481.814 298.12 530.128 249.806 530.128 190.208C530.128 130.61 481.814 82.296 422.216 82.296C362.618 82.296 314.304 130.61 314.304 190.208C314.304 249.806 362.618 298.12 422.216 298.12Z" fill="white" fill-opacity="0.1"/>
</g>
</g>
<defs>
<clipPath id="clip0_150_2">
<rect width="448" height="191" fill="white"/>
</clipPath>
</defs>
</svg>
