<svg width="20" height="21" viewBox="0 0 20 21" fill="none" xmlns="http://www.w3.org/2000/svg">
<path id="Vector" d="M11.0271 0.679932C12.1525 0.681793 12.7228 0.687746 13.2156 0.702424L13.4097 0.708778C13.6339 0.716752 13.8551 0.726758 14.1218 0.739265C15.1859 0.788453 15.9118 0.956887 16.5493 1.20453C17.2084 1.45883 17.7651 1.80236 18.3209 2.3585C18.8759 2.91464 19.2193 3.4733 19.4743 4.13117C19.7209 4.76818 19.8893 5.49526 19.9393 6.56003C19.9512 6.82684 19.9608 7.04816 19.9687 7.27254L19.975 7.46673C19.9896 7.95975 19.9963 8.53045 19.9984 9.65649L19.9992 10.4026C19.9993 10.4938 19.9993 10.5878 19.9993 10.6849L19.9992 10.9671L19.9986 11.7132C19.9967 12.8393 19.9908 13.4099 19.9761 13.903L19.9697 14.0972C19.9618 14.3215 19.9518 14.5428 19.9393 14.8097C19.8901 15.8744 19.7209 16.6007 19.4743 17.2385C19.2201 17.898 18.8759 18.455 18.3209 19.0111C17.7651 19.5664 17.2059 19.91 16.5493 20.1652C15.9118 20.4119 15.1859 20.5804 14.1218 20.6304C13.8551 20.6423 13.6339 20.652 13.4097 20.6599L13.2156 20.6662C12.7228 20.6808 12.1525 20.6875 11.0271 20.6896L10.2814 20.6904C10.1903 20.6905 10.0963 20.6905 9.99932 20.6905L9.71722 20.6904L8.97152 20.6898C7.84612 20.6879 7.27574 20.682 6.78299 20.6673L6.58891 20.6609C6.36466 20.653 6.14346 20.6429 5.8768 20.6304C4.81263 20.5812 4.08763 20.4119 3.4493 20.1652C2.79096 19.9108 2.23346 19.5664 1.67763 19.0111C1.1218 18.455 0.7793 17.8955 0.5243 17.2385C0.2768 16.6007 0.1093 15.8744 0.0593002 14.8097C0.0474202 14.5428 0.03773 14.3215 0.02988 14.0972L0.0235901 13.903C0.00896009 13.4099 0.00229018 12.8393 0.000130177 11.7132L0 9.65649C0.00186 8.53045 0.00781001 7.95975 0.02248 7.46673L0.0288301 7.27254C0.0368 7.04816 0.0468002 6.82684 0.0593002 6.56003C0.10846 5.49443 0.2768 4.76903 0.5243 4.13117C0.77846 3.47246 1.1218 2.91464 1.67763 2.3585C2.23346 1.80236 2.7918 1.45967 3.4493 1.20453C4.0868 0.956887 4.8118 0.789293 5.8768 0.739265C6.14346 0.727378 6.36466 0.717683 6.58891 0.709828L6.78299 0.703535C7.27574 0.688897 7.84612 0.682223 8.97152 0.680062L11.0271 0.679932ZM9.99932 5.68204C7.2364 5.68204 4.9993 7.92282 4.9993 10.6849C4.9993 13.4493 7.23883 15.6877 9.99932 15.6877C12.7622 15.6877 14.9993 13.4468 14.9993 10.6849C14.9993 7.92039 12.7597 5.68204 9.99932 5.68204ZM9.99932 7.68316C11.6562 7.68316 12.9993 9.02653 12.9993 10.6849C12.9993 12.3427 11.6566 13.6865 9.99932 13.6865C8.34242 13.6865 6.9993 12.3431 6.9993 10.6849C6.9993 9.02703 8.34192 7.68316 9.99932 7.68316ZM15.2493 4.1812C14.56 4.1812 13.9993 4.74141 13.9993 5.43105C13.9993 6.12067 14.5592 6.68176 15.2493 6.68176C15.9385 6.68176 16.4993 6.12154 16.4993 5.43105C16.4993 4.74141 15.9376 4.18032 15.2493 4.1812Z" fill="white"/>
</svg>
