<svg width="20" height="21" viewBox="0 0 20 21" fill="none" xmlns="http://www.w3.org/2000/svg">
<path id="Vector" d="M10 0.679688C15.5228 0.679688 20 5.15935 20 10.6853C20 16.2112 15.5228 20.6909 10 20.6909C8.16612 20.6909 6.44753 20.197 4.96988 19.3348L0.00418019 20.6909L1.35614 15.7196C0.49396 14.2409 0 12.5208 0 10.6853C0 5.15935 4.47715 0.679688 10 0.679688ZM6.39134 5.991C6.26195 6.00009 6.13509 6.03171 6.01959 6.09083C5.93294 6.13519 5.8525 6.19929 5.72611 6.31871C5.60676 6.43146 5.53759 6.52994 5.46471 6.62488C5.09501 7.10649 4.89631 7.69767 4.9 8.30494C4.90201 8.79584 5.02945 9.27291 5.23071 9.71836C5.63884 10.6217 6.3119 11.5766 7.20096 12.4622C7.41452 12.6749 7.62375 12.8899 7.84936 13.0886C8.95282 14.0608 10.2678 14.7618 11.6897 15.136C11.6897 15.136 12.2497 15.222 12.2579 15.2225C12.4434 15.2325 12.6286 15.2191 12.8143 15.2096C13.1056 15.1946 13.39 15.1158 13.6474 14.9786C13.8129 14.8905 13.8912 14.8466 14.0301 14.759C14.0301 14.759 14.0727 14.7302 14.1549 14.6689C14.2899 14.5683 14.3733 14.4974 14.4856 14.3808C14.5684 14.2947 14.6396 14.1931 14.6946 14.0785C14.7728 13.9152 14.8515 13.6035 14.8828 13.3447C14.9067 13.147 14.8995 13.0389 14.8969 12.972C14.8926 12.8643 14.8037 12.7536 14.7063 12.7065L14.1248 12.445C14.1248 12.445 13.2553 12.0664 12.7235 11.8236C12.6681 11.7983 12.6075 11.7866 12.5466 11.7829C12.4132 11.7747 12.2637 11.8095 12.1686 11.9098C12.1636 11.9078 12.0974 11.965 11.3739 12.842C11.334 12.8897 11.2405 12.9935 11.0788 12.9838C11.0544 12.9821 11.0301 12.9786 11.0064 12.9724C10.9409 12.9551 10.8771 12.9323 10.8147 12.9058C10.691 12.8533 10.6476 12.8334 10.5631 12.797C9.98582 12.5446 9.45602 12.2071 8.98772 11.7939C8.86212 11.6833 8.74532 11.5641 8.62492 11.4473C8.20472 11.0398 7.86071 10.6064 7.60479 10.1788C7.59082 10.1555 7.56929 10.1218 7.5461 10.0841C7.50423 10.0159 7.45805 9.93488 7.44357 9.87925C7.4064 9.73206 7.50501 9.6138 7.50501 9.6138C7.50501 9.6138 7.74841 9.34755 7.8615 9.20277C7.9703 9.06339 8.06422 8.92711 8.12402 8.82996C8.24182 8.64048 8.27912 8.44466 8.21722 8.29359C7.93666 7.60922 7.6472 6.92855 7.34888 6.25175C7.29 6.11819 7.11487 6.02114 6.95561 6.00274C6.90167 5.99651 6.84777 5.99024 6.79361 5.98668C6.65955 5.98014 6.52522 5.98158 6.39134 5.991Z" fill="white"/>
</svg>
