<svg width="1440" height="864" viewBox="0 0 1440 864" fill="none" xmlns="http://www.w3.org/2000/svg">
<path d="M1440 864H0V0H1440V864ZM761.296 460.869C761.296 471.413 757.007 479.198 749.207 484.667C741.051 490.385 728.517 493.893 712 493.893H692.231C693.643 473.346 700.327 460.859 708.62 452.321C717.803 442.869 729.536 437.542 741.729 432.153C746.274 433.324 750.763 435.783 754.247 439.669C758.198 444.077 761.296 450.8 761.296 460.869ZM703.204 370.107C711.647 370.107 724.266 370.356 734.619 373.412C739.767 374.932 743.663 376.957 746.176 379.385C748.45 381.581 749.841 384.314 749.841 388.385C749.841 394.442 747.468 398.785 742.746 403.162C737.547 407.979 730.496 411.985 721.515 417.606C711.791 423.691 700.923 431.067 691.954 442.129V370.107H703.204ZM790.954 460.869C790.954 445.116 784.348 433.703 775.242 426.023C772.155 423.421 768.814 421.272 765.394 419.508C766.81 418.43 768.161 417.281 769.423 416.049C775.631 409.984 779.5 402.099 779.5 391.708C779.5 372.981 766.349 362.691 752.921 357.468C739.53 352.262 723.639 351 712.409 351H649V370.107H657.182C658.91 370.107 660.264 370.24 661.29 370.456C662.319 370.674 662.812 370.934 662.996 371.055C663.108 371.13 663.085 371.129 663.088 371.136C663.117 371.198 663.318 371.65 663.318 372.808V491.192C663.318 492.35 663.117 492.802 663.088 492.864C663.085 492.871 663.108 492.87 662.996 492.945C662.812 493.066 662.319 493.326 661.29 493.544C660.264 493.76 658.91 493.893 657.182 493.893H649V513H721.204C738.868 513 755.911 508.367 768.794 499.668C781.772 490.902 790.954 477.606 790.954 460.869Z" fill="#E6E6E6"/>
</svg>
