<svg width="127" height="28" viewBox="0 0 127 28" fill="none" xmlns="http://www.w3.org/2000/svg">
<g clip-path="url(#clip0_99_770)">
<path d="M127 0H0V28H127V0Z" fill="white"/>
<path d="M91.7559 19.82C92.3709 19.82 92.6259 19.64 92.6259 19.025V11.015C92.6259 10.4 92.3709 10.22 91.7559 10.22V10.04L93.481 9.5V19.025C93.481 19.64 93.736 19.82 94.351 19.82V20H91.7559V19.82Z" fill="black"/>
<mask id="mask0_99_770" style="mask-type:luminance" maskUnits="userSpaceOnUse" x="91" y="8" width="5" height="13">
<path d="M95.0061 8H91.0059V21H95.0061V8Z" fill="white"/>
<path d="M91.7559 19.82C92.3709 19.82 92.6259 19.64 92.6259 19.025V11.015C92.6259 10.4 92.3709 10.22 91.7559 10.22V10.04L93.481 9.5V19.025C93.481 19.64 93.736 19.82 94.351 19.82V20H91.7559V19.82Z" fill="black"/>
</mask>
<g mask="url(#mask0_99_770)">
<path d="M91.7558 19.8201V19.2201H91.1558V19.8201H91.7558ZM91.7558 10.2201H91.1558V10.8201H91.7558V10.2201ZM91.7558 10.0401L91.5766 9.46753L91.1558 9.59924V10.0401H91.7558ZM93.4809 9.50013H94.0809V8.68359L93.3017 8.92753L93.4809 9.50013ZM94.351 19.8201H94.951V19.2201H94.351V19.8201ZM94.351 20.0001V20.6001H94.951V20.0001H94.351ZM91.7558 20.0001H91.1558V20.6001H91.7558V20.0001ZM91.7558 19.8201V20.4201C92.0872 20.4201 92.4992 20.3798 92.8145 20.1066C93.1531 19.8131 93.2259 19.3932 93.2259 19.0251H92.6259H92.0258C92.0258 19.142 92.0131 19.2006 92.0056 19.2237C92.0006 19.2391 92.0043 19.2208 92.0285 19.1998C92.0491 19.1819 92.0548 19.1885 92.0112 19.1989C91.9642 19.2102 91.8847 19.2201 91.7558 19.2201V19.8201ZM92.6259 19.0251H93.2259V11.0151H92.6259H92.0258V19.0251H92.6259ZM92.6259 11.0151H93.2259C93.2259 10.647 93.1531 10.2271 92.8145 9.93359C92.4992 9.66042 92.0872 9.62013 91.7558 9.62013V10.2201V10.8201C91.8847 10.8201 91.9642 10.83 92.0112 10.8413C92.0548 10.8517 92.0491 10.8583 92.0285 10.8404C92.0043 10.8194 92.0006 10.8011 92.0056 10.8165C92.0131 10.8396 92.0258 10.8982 92.0258 11.0151H92.6259ZM91.7558 10.2201H92.3558V10.0401H91.7558H91.1558V10.2201H91.7558ZM91.7558 10.0401L91.935 10.6127L93.6601 10.0727L93.4809 9.50013L93.3017 8.92753L91.5766 9.46753L91.7558 10.0401ZM93.4809 9.50013H92.8809V19.0251H93.4809H94.0809V9.50013H93.4809ZM93.4809 19.0251H92.8809C92.8809 19.3932 92.9537 19.8131 93.2923 20.1066C93.6075 20.3798 94.0195 20.4201 94.351 20.4201V19.8201V19.2201C94.2221 19.2201 94.1425 19.2102 94.0955 19.1989C94.0519 19.1885 94.0576 19.1819 94.0782 19.1998C94.1024 19.2208 94.1061 19.2391 94.1011 19.2237C94.0936 19.2006 94.0809 19.142 94.0809 19.0251H93.4809ZM94.351 19.8201H93.7509V20.0001H94.351H94.951V19.8201H94.351ZM94.351 20.0001V19.4001H91.7558V20.0001V20.6001H94.351V20.0001ZM91.7558 20.0001H92.3558V19.8201H91.7558H91.1558V20.0001H91.7558Z" fill="black"/>
</g>
<path d="M97.7559 19.82C98.3709 19.82 98.6259 19.64 98.6259 19.025V11.015C98.6259 10.4 98.3709 10.22 97.7559 10.22V10.04L99.481 9.5V19.025C99.481 19.64 99.736 19.82 100.351 19.82V20H97.7559V19.82Z" fill="black"/>
<mask id="mask1_99_770" style="mask-type:luminance" maskUnits="userSpaceOnUse" x="97" y="8" width="5" height="13">
<path d="M101.006 8H97.0059V21H101.006V8Z" fill="white"/>
<path d="M97.7559 19.82C98.3709 19.82 98.6259 19.64 98.6259 19.025V11.015C98.6259 10.4 98.3709 10.22 97.7559 10.22V10.04L99.481 9.5V19.025C99.481 19.64 99.736 19.82 100.351 19.82V20H97.7559V19.82Z" fill="black"/>
</mask>
<g mask="url(#mask1_99_770)">
<path d="M97.7558 19.8201V19.2201H97.1558V19.8201H97.7558ZM97.7558 10.2201H97.1558V10.8201H97.7558V10.2201ZM97.7558 10.0401L97.5766 9.46753L97.1558 9.59924V10.0401H97.7558ZM99.4809 9.50013H100.081V8.68359L99.3017 8.92753L99.4809 9.50013ZM100.351 19.8201H100.951V19.2201H100.351V19.8201ZM100.351 20.0001V20.6001H100.951V20.0001H100.351ZM97.7558 20.0001H97.1558V20.6001H97.7558V20.0001ZM97.7558 19.8201V20.4201C98.0872 20.4201 98.4992 20.3798 98.8145 20.1066C99.1531 19.8131 99.2259 19.3932 99.2259 19.0251H98.6259H98.0258C98.0258 19.142 98.0131 19.2006 98.0056 19.2237C98.0006 19.2391 98.0043 19.2208 98.0285 19.1998C98.0491 19.1819 98.0548 19.1885 98.0112 19.1989C97.9642 19.2102 97.8847 19.2201 97.7558 19.2201V19.8201ZM98.6259 19.0251H99.2259V11.0151H98.6259H98.0258V19.0251H98.6259ZM98.6259 11.0151H99.2259C99.2259 10.647 99.1531 10.2271 98.8145 9.93359C98.4992 9.66042 98.0872 9.62013 97.7558 9.62013V10.2201V10.8201C97.8847 10.8201 97.9642 10.83 98.0112 10.8413C98.0548 10.8517 98.0491 10.8583 98.0285 10.8404C98.0043 10.8194 98.0006 10.8011 98.0056 10.8165C98.0131 10.8396 98.0258 10.8982 98.0258 11.0151H98.6259ZM97.7558 10.2201H98.3558V10.0401H97.7558H97.1558V10.2201H97.7558ZM97.7558 10.0401L97.935 10.6127L99.6601 10.0727L99.4809 9.50013L99.3017 8.92753L97.5766 9.46753L97.7558 10.0401ZM99.4809 9.50013H98.8809V19.0251H99.4809H100.081V9.50013H99.4809ZM99.4809 19.0251H98.8809C98.8809 19.3932 98.9537 19.8131 99.2923 20.1066C99.6075 20.3798 100.02 20.4201 100.351 20.4201V19.8201V19.2201C100.222 19.2201 100.143 19.2102 100.096 19.1989C100.052 19.1885 100.058 19.1819 100.078 19.1998C100.102 19.2208 100.106 19.2391 100.101 19.2237C100.094 19.2006 100.081 19.142 100.081 19.0251H99.4809ZM100.351 19.8201H99.7509V20.0001H100.351H100.951V19.8201H100.351ZM100.351 20.0001V19.4001H97.7558V20.0001V20.6001H100.351V20.0001ZM97.7558 20.0001H98.3558V19.8201H97.7558H97.1558V20.0001H97.7558Z" fill="black"/>
</g>
<path d="M86.6254 14.5248C86.6254 13.9098 86.3704 13.7298 85.7554 13.7298V13.5498L87.4805 13.0098V19.0248C87.4805 19.6398 87.7355 19.8198 88.3505 19.8198V19.9998H85.7554V19.8198C86.3704 19.8198 86.6254 19.6398 86.6254 19.0248V14.5248ZM86.2054 11.5398C86.2054 11.1348 86.5204 10.8198 86.9254 10.8198C87.3155 10.8198 87.6455 11.1348 87.6455 11.5398C87.6455 11.9448 87.3155 12.2748 86.9254 12.2748C86.5204 12.2748 86.2054 11.9448 86.2054 11.5398Z" fill="black"/>
<mask id="mask2_99_770" style="mask-type:luminance" maskUnits="userSpaceOnUse" x="85" y="10" width="5" height="11">
<path d="M89.0056 10H85.0054V21H89.0056V10Z" fill="white"/>
<path d="M86.6254 14.5248C86.6254 13.9098 86.3704 13.7298 85.7554 13.7298V13.5498L87.4805 13.0098V19.0248C87.4805 19.6398 87.7355 19.8198 88.3505 19.8198V19.9998H85.7554V19.8198C86.3704 19.8198 86.6254 19.6398 86.6254 19.0248V14.5248ZM86.2054 11.5398C86.2054 11.1348 86.5204 10.8198 86.9254 10.8198C87.3155 10.8198 87.6455 11.1348 87.6455 11.5398C87.6455 11.9448 87.3155 12.2748 86.9254 12.2748C86.5204 12.2748 86.2054 11.9448 86.2054 11.5398Z" fill="black"/>
</mask>
<g mask="url(#mask2_99_770)">
<path d="M85.7553 13.7302H85.1553V14.3302H85.7553V13.7302ZM85.7553 13.5502L85.5761 12.9776L85.1553 13.1093V13.5502H85.7553ZM87.4804 13.0102H88.0805V12.1937L87.3012 12.4376L87.4804 13.0102ZM88.3505 19.8202H88.9505V19.2202H88.3505V19.8202ZM88.3505 20.0002V20.6002H88.9505V20.0002H88.3505ZM85.7553 20.0002H85.1553V20.6002H85.7553V20.0002ZM85.7553 19.8202V19.2202H85.1553V19.8202H85.7553ZM86.6254 14.5252H87.2254C87.2254 14.1571 87.1526 13.7372 86.814 13.4437C86.4988 13.1705 86.0867 13.1302 85.7553 13.1302V13.7302V14.3302C85.8842 14.3302 85.9637 14.3401 86.0107 14.3514C86.0543 14.3618 86.0486 14.3684 86.028 14.3505C86.0038 14.3295 86.0001 14.3112 86.0051 14.3266C86.0126 14.3497 86.0253 14.4083 86.0253 14.5252H86.6254ZM85.7553 13.7302H86.3553V13.5502H85.7553H85.1553V13.7302H85.7553ZM85.7553 13.5502L85.9345 14.1228L87.6596 13.5828L87.4804 13.0102L87.3012 12.4376L85.5761 12.9776L85.7553 13.5502ZM87.4804 13.0102H86.8804V19.0252H87.4804H88.0805V13.0102H87.4804ZM87.4804 19.0252H86.8804C86.8804 19.3933 86.9532 19.8132 87.2918 20.1067C87.607 20.3799 88.0191 20.4202 88.3505 20.4202V19.8202V19.2202C88.2216 19.2202 88.1421 19.2103 88.0951 19.199C88.0515 19.1886 88.0572 19.182 88.0778 19.1999C88.102 19.2209 88.1057 19.2392 88.1007 19.2238C88.0932 19.2007 88.0805 19.1421 88.0805 19.0252H87.4804ZM88.3505 19.8202H87.7504V20.0002H88.3505H88.9505V19.8202H88.3505ZM88.3505 20.0002V19.4002H85.7553V20.0002V20.6002H88.3505V20.0002ZM85.7553 20.0002H86.3553V19.8202H85.7553H85.1553V20.0002H85.7553ZM85.7553 19.8202V20.4202C86.0867 20.4202 86.4988 20.3799 86.814 20.1067C87.1526 19.8132 87.2254 19.3933 87.2254 19.0252H86.6254H86.0253C86.0253 19.1421 86.0126 19.2007 86.0051 19.2238C86.0001 19.2392 86.0038 19.2209 86.028 19.1999C86.0486 19.182 86.0543 19.1886 86.0107 19.199C85.9637 19.2103 85.8842 19.2202 85.7553 19.2202V19.8202ZM86.6254 19.0252H87.2254V14.5252H86.6254H86.0253V19.0252H86.6254ZM86.2053 11.5402H86.8054C86.8054 11.4971 86.8207 11.4697 86.8378 11.4526C86.8549 11.4355 86.8823 11.4202 86.9254 11.4202V10.8202V10.2202C86.1889 10.2202 85.6053 10.8038 85.6053 11.5402H86.2053ZM86.9254 10.8202V11.4202C86.9922 11.4202 87.0454 11.4747 87.0454 11.5402H87.6454H88.2455C88.2455 10.7957 87.6386 10.2202 86.9254 10.2202V10.8202ZM87.6454 11.5402H87.0454C87.0454 11.5768 87.0309 11.6115 87.0044 11.6383C86.9775 11.6656 86.9482 11.6752 86.9254 11.6752V12.2752V12.8752C87.6548 12.8752 88.2455 12.2685 88.2455 11.5402H87.6454ZM86.9254 12.2752V11.6752C86.891 11.6752 86.8645 11.6627 86.8438 11.6414C86.8222 11.6191 86.8054 11.585 86.8054 11.5402H86.2053H85.6053C85.6053 12.2603 86.1729 12.8752 86.9254 12.8752V12.2752Z" fill="black"/>
</g>
<path d="M76.4151 14.36C76.13 13.715 75.71 13.43 75.23 13.43V13.25H77.8101V13.43C77.1201 13.43 77.0451 13.82 77.2851 14.36L79.3702 19.025L81.4554 14.36C81.6954 13.835 81.6354 13.43 80.9453 13.43V13.25H82.8355V13.43C82.3854 13.43 81.9354 13.715 81.6504 14.36L79.1152 20H78.9352L76.4151 14.36Z" fill="black"/>
<mask id="mask3_99_770" style="mask-type:luminance" maskUnits="userSpaceOnUse" x="74" y="12" width="11" height="9">
<path d="M84.005 12H74.0044V21H84.005V12Z" fill="white"/>
<path d="M76.4146 14.36C76.1296 13.715 75.7095 13.43 75.2295 13.43V13.25H77.8097V13.43C77.1196 13.43 77.0446 13.82 77.2846 14.36L79.3697 19.025L81.4549 14.36C81.6949 13.835 81.6349 13.43 80.9449 13.43V13.25H82.835V13.43C82.3849 13.43 81.9349 13.715 81.6499 14.36L79.1147 20H78.9347L76.4146 14.36Z" fill="black"/>
</mask>
<g mask="url(#mask3_99_770)">
<path d="M76.4145 14.3599L75.8657 14.6024L75.8667 14.6047L76.4145 14.3599ZM75.2294 13.4299H74.6294V14.0299H75.2294V13.4299ZM75.2294 13.2499V12.6499H74.6294V13.2499H75.2294ZM77.8096 13.2499H78.4096V12.6499H77.8096V13.2499ZM77.8096 13.4299V14.0299H78.4096V13.4299H77.8096ZM77.2846 14.3599L76.7362 14.6036L76.7367 14.6047L77.2846 14.3599ZM79.3697 19.0249L78.8219 19.2697L79.3697 20.4953L79.9175 19.2697L79.3697 19.0249ZM81.4548 14.3599L80.9091 14.1104L80.907 14.1151L81.4548 14.3599ZM80.9448 13.4299H80.3447V14.0299H80.9448V13.4299ZM80.9448 13.2499V12.6499H80.3447V13.2499H80.9448ZM82.8349 13.2499H83.4349V12.6499H82.8349V13.2499ZM82.8349 13.4299V14.0299H83.4349V13.4299H82.8349ZM81.6498 14.3599L82.1972 14.6059L82.1987 14.6024L81.6498 14.3599ZM79.1147 19.9999V20.5999H79.5028L79.662 20.2459L79.1147 19.9999ZM78.9347 19.9999L78.3868 20.2447L78.5455 20.5999H78.9347V19.9999ZM76.4145 14.3599L76.9633 14.1174C76.611 13.32 76.0108 12.8299 75.2294 12.8299V13.4299V14.0299C75.4081 14.0299 75.648 14.1098 75.8657 14.6024L76.4145 14.3599ZM75.2294 13.4299H75.8295V13.2499H75.2294H74.6294V13.4299H75.2294ZM75.2294 13.2499V13.8499H77.8096V13.2499V12.6499H75.2294V13.2499ZM77.8096 13.2499H77.2096V13.4299H77.8096H78.4096V13.2499H77.8096ZM77.8096 13.4299V12.8299C77.3886 12.8299 76.8765 12.9503 76.652 13.4441C76.4621 13.862 76.6063 14.3113 76.7362 14.6036L77.2846 14.3599L77.8329 14.1162C77.8105 14.0659 77.794 14.0222 77.7824 13.9852C77.7707 13.9479 77.765 13.9207 77.7624 13.9026C77.7568 13.8626 77.7688 13.8873 77.7446 13.9407C77.732 13.9684 77.7135 13.9946 77.6914 14.0157C77.67 14.0361 77.6527 14.0447 77.6483 14.0467C77.6448 14.0483 77.6538 14.0437 77.6816 14.0389C77.7092 14.0341 77.7509 14.0299 77.8096 14.0299V13.4299ZM77.2846 14.3599L76.7367 14.6047L78.8219 19.2697L79.3697 19.0249L79.9175 18.7801L77.8324 14.1151L77.2846 14.3599ZM79.3697 19.0249L79.9175 19.2697L82.0027 14.6047L81.4548 14.3599L80.907 14.1151L78.8219 18.7801L79.3697 19.0249ZM81.4548 14.3599L82.0005 14.6094C82.1314 14.3232 82.2787 13.8798 82.1005 13.4624C81.8858 12.9599 81.3742 12.8299 80.9448 12.8299V13.4299V14.0299C81.0025 14.0299 81.0426 14.0342 81.0684 14.0388C81.0942 14.0435 81.1011 14.0477 81.0955 14.0451C81.089 14.042 81.0704 14.032 81.0486 14.0102C81.0262 13.9878 81.0084 13.9609 80.9967 13.9336C80.9746 13.8819 80.9869 13.8599 80.9805 13.9011C80.9776 13.9196 80.9715 13.9468 80.9596 13.9833C80.9478 14.0196 80.9313 14.062 80.9091 14.1104L81.4548 14.3599ZM80.9448 13.4299H81.5448V13.2499H80.9448H80.3447V13.4299H80.9448ZM80.9448 13.2499V13.8499H82.8349V13.2499V12.6499H80.9448V13.2499ZM82.8349 13.2499H82.2349V13.4299H82.8349H83.4349V13.2499H82.8349ZM82.8349 13.4299V12.8299C82.0912 12.8299 81.4571 13.3115 81.101 14.1174L81.6498 14.3599L82.1987 14.6024C82.4126 14.1183 82.6786 14.0299 82.8349 14.0299V13.4299ZM81.6498 14.3599L81.1025 14.1139L78.5673 19.7539L79.1147 19.9999L79.662 20.2459L82.1972 14.6059L81.6498 14.3599ZM79.1147 19.9999V19.3999H78.9347V19.9999V20.5999H79.1147V19.9999ZM78.9347 19.9999L79.4825 19.7551L76.9623 14.1151L76.4145 14.3599L75.8667 14.6047L78.3868 20.2447L78.9347 19.9999Z" fill="black"/>
</g>
<path d="M71.1743 15.6798C71.1743 14.2848 70.4243 13.3848 68.8342 13.3848C67.8441 13.3848 66.959 13.7448 66.479 14.0598V19.0248C66.479 19.6398 66.734 19.8198 67.3491 19.8198V19.9998H64.7539V19.8198C65.3689 19.8198 65.624 19.6398 65.624 19.0248V14.5248C65.624 13.9098 65.3689 13.7298 64.7539 13.7298V13.5498L66.479 13.0098V13.9098C67.064 13.5648 68.2791 13.0098 69.3142 13.0098C71.2643 13.0098 72.0294 13.9698 72.0294 15.6798V19.0248C72.0294 19.6398 72.2844 19.8198 72.8994 19.8198V19.9998H70.3043V19.8198C70.9193 19.8198 71.1743 19.6398 71.1743 19.0248V15.6798Z" fill="black"/>
<mask id="mask4_99_770" style="mask-type:luminance" maskUnits="userSpaceOnUse" x="64" y="12" width="11" height="9">
<path d="M74.0045 12H64.0039V21H74.0045V12Z" fill="white"/>
<path d="M71.1743 15.6798C71.1743 14.2848 70.4243 13.3848 68.8342 13.3848C67.8441 13.3848 66.959 13.7448 66.479 14.0598V19.0248C66.479 19.6398 66.734 19.8198 67.3491 19.8198V19.9998H64.7539V19.8198C65.3689 19.8198 65.624 19.6398 65.624 19.0248V14.5248C65.624 13.9098 65.3689 13.7298 64.7539 13.7298V13.5498L66.479 13.0098V13.9098C67.064 13.5648 68.2791 13.0098 69.3142 13.0098C71.2643 13.0098 72.0294 13.9698 72.0294 15.6798V19.0248C72.0294 19.6398 72.2844 19.8198 72.8994 19.8198V19.9998H70.3043V19.8198C70.9193 19.8198 71.1743 19.6398 71.1743 19.0248V15.6798Z" fill="black"/>
</mask>
<g mask="url(#mask4_99_770)">
<path d="M66.4789 14.0599L66.1497 13.5583L65.8789 13.736V14.0599H66.4789ZM67.349 19.8199H67.949V19.2199H67.349V19.8199ZM67.349 19.9999V20.5999H67.949V19.9999H67.349ZM64.7538 19.9999H64.1538V20.5999H64.7538V19.9999ZM64.7538 19.8199V19.2199H64.1538V19.8199H64.7538ZM64.7538 13.7299H64.1538V14.3299H64.7538V13.7299ZM64.7538 13.5499L64.5746 12.9773L64.1538 13.109V13.5499H64.7538ZM66.4789 13.0099H67.079V12.1934L66.2997 12.4373L66.4789 13.0099ZM66.4789 13.9099H65.8789V14.9603L66.7838 14.4267L66.4789 13.9099ZM72.8993 19.8199H73.4994V19.2199H72.8993V19.8199ZM72.8993 19.9999V20.5999H73.4994V19.9999H72.8993ZM70.3042 19.9999H69.7041V20.5999H70.3042V19.9999ZM70.3042 19.8199V19.2199H69.7041V19.8199H70.3042ZM71.1742 15.6799H71.7743C71.7743 14.8797 71.5583 14.1365 71.0317 13.5922C70.5017 13.0441 69.7415 12.7849 68.8341 12.7849V13.3849V13.9849C69.5168 13.9849 69.9267 14.1757 70.1692 14.4264C70.4153 14.6808 70.5742 15.0851 70.5742 15.6799H71.1742ZM68.8341 13.3849V12.7849C67.7118 12.7849 66.7141 13.188 66.1497 13.5583L66.4789 14.0599L66.8082 14.5615C67.2039 14.3018 67.9762 13.9849 68.8341 13.9849V13.3849ZM66.4789 14.0599H65.8789V19.0249H66.4789H67.079V14.0599H66.4789ZM66.4789 19.0249H65.8789C65.8789 19.393 65.9517 19.8129 66.2903 20.1064C66.6056 20.3796 67.0176 20.4199 67.349 20.4199V19.8199V19.2199C67.2201 19.2199 67.1406 19.21 67.0936 19.1987C67.05 19.1883 67.0557 19.1817 67.0763 19.1996C67.1005 19.2206 67.1042 19.2389 67.0992 19.2235C67.0917 19.2004 67.079 19.1418 67.079 19.0249H66.4789ZM67.349 19.8199H66.749V19.9999H67.349H67.949V19.8199H67.349ZM67.349 19.9999V19.3999H64.7538V19.9999V20.5999H67.349V19.9999ZM64.7538 19.9999H65.3539V19.8199H64.7538H64.1538V19.9999H64.7538ZM64.7538 19.8199V20.4199C65.0853 20.4199 65.4973 20.3796 65.8125 20.1064C66.1511 19.8129 66.2239 19.393 66.2239 19.0249H65.6239H65.0239C65.0239 19.1418 65.0112 19.2004 65.0037 19.2235C64.9987 19.2389 65.0024 19.2206 65.0266 19.1996C65.0472 19.1817 65.0529 19.1883 65.0093 19.1987C64.9623 19.21 64.8828 19.2199 64.7538 19.2199V19.8199ZM65.6239 19.0249H66.2239V14.5249H65.6239H65.0239V19.0249H65.6239ZM65.6239 14.5249H66.2239C66.2239 14.1568 66.1511 13.7369 65.8125 13.4434C65.4973 13.1702 65.0853 13.1299 64.7538 13.1299V13.7299V14.3299C64.8828 14.3299 64.9623 14.3398 65.0093 14.3511C65.0529 14.3615 65.0472 14.3681 65.0266 14.3502C65.0024 14.3292 64.9987 14.3109 65.0037 14.3263C65.0112 14.3494 65.0239 14.408 65.0239 14.5249H65.6239ZM64.7538 13.7299H65.3539V13.5499H64.7538H64.1538V13.7299H64.7538ZM64.7538 13.5499L64.9331 14.1225L66.6582 13.5825L66.4789 13.0099L66.2997 12.4373L64.5746 12.9773L64.7538 13.5499ZM66.4789 13.0099H65.8789V13.9099H66.4789H67.079V13.0099H66.4789ZM66.4789 13.9099L66.7838 14.4267C67.3405 14.0984 68.442 13.6099 69.3141 13.6099V13.0099V12.4099C68.1162 12.4099 66.7875 13.0314 66.1741 13.3931L66.4789 13.9099ZM69.3141 13.0099V13.6099C70.1995 13.6099 70.6905 13.8275 70.9698 14.1189C71.2537 14.415 71.4293 14.9016 71.4293 15.6799H72.0293H72.6293C72.6293 14.7482 72.4223 13.8998 71.8362 13.2884C71.2454 12.6723 70.3789 12.4099 69.3141 12.4099V13.0099ZM72.0293 15.6799H71.4293V19.0249H72.0293H72.6293V15.6799H72.0293ZM72.0293 19.0249H71.4293C71.4293 19.393 71.5021 19.8129 71.8407 20.1064C72.1559 20.3796 72.5679 20.4199 72.8993 20.4199V19.8199V19.2199C72.7704 19.2199 72.6909 19.21 72.6439 19.1987C72.6003 19.1883 72.606 19.1817 72.6266 19.1996C72.6508 19.2206 72.6545 19.2389 72.6495 19.2235C72.642 19.2004 72.6293 19.1418 72.6293 19.0249H72.0293ZM72.8993 19.8199H72.2993V19.9999H72.8993H73.4994V19.8199H72.8993ZM72.8993 19.9999V19.3999H70.3042V19.9999V20.5999H72.8993V19.9999ZM70.3042 19.9999H70.9042V19.8199H70.3042H69.7041V19.9999H70.3042ZM70.3042 19.8199V20.4199C70.6356 20.4199 71.0476 20.3796 71.3629 20.1064C71.7015 19.8129 71.7743 19.393 71.7743 19.0249H71.1742H70.5742C70.5742 19.1418 70.5615 19.2004 70.554 19.2235C70.549 19.2389 70.5527 19.2206 70.5769 19.1996C70.5975 19.1817 70.6032 19.1883 70.5596 19.1987C70.5126 19.21 70.4331 19.2199 70.3042 19.2199V19.8199ZM71.1742 19.0249H71.7743V15.6799H71.1742H70.5742V19.0249H71.1742Z" fill="black"/>
</g>
<path d="M59.6235 14.5248C59.6235 13.9098 59.3685 13.7298 58.7534 13.7298V13.5498L60.4785 13.0098V19.0248C60.4785 19.6398 60.7335 19.8198 61.3486 19.8198V19.9998H58.7534V19.8198C59.3685 19.8198 59.6235 19.6398 59.6235 19.0248V14.5248ZM59.2034 11.5398C59.2034 11.1348 59.5185 10.8198 59.9235 10.8198C60.3135 10.8198 60.6435 11.1348 60.6435 11.5398C60.6435 11.9448 60.3135 12.2748 59.9235 12.2748C59.5185 12.2748 59.2034 11.9448 59.2034 11.5398Z" fill="black"/>
<mask id="mask5_99_770" style="mask-type:luminance" maskUnits="userSpaceOnUse" x="58" y="10" width="5" height="11">
<path d="M62.0037 10H58.0034V21H62.0037V10Z" fill="white"/>
<path d="M59.6235 14.5248C59.6235 13.9098 59.3685 13.7298 58.7534 13.7298V13.5498L60.4785 13.0098V19.0248C60.4785 19.6398 60.7335 19.8198 61.3486 19.8198V19.9998H58.7534V19.8198C59.3685 19.8198 59.6235 19.6398 59.6235 19.0248V14.5248ZM59.2034 11.5398C59.2034 11.1348 59.5185 10.8198 59.9235 10.8198C60.3135 10.8198 60.6435 11.1348 60.6435 11.5398C60.6435 11.9448 60.3135 12.2748 59.9235 12.2748C59.5185 12.2748 59.2034 11.9448 59.2034 11.5398Z" fill="black"/>
</mask>
<g mask="url(#mask5_99_770)">
<path d="M58.7534 13.7302H58.1533V14.3302H58.7534V13.7302ZM58.7534 13.5502L58.5741 12.9776L58.1533 13.1093V13.5502H58.7534ZM60.4785 13.0102H61.0785V12.1937L60.2993 12.4376L60.4785 13.0102ZM61.3485 19.8202H61.9486V19.2202H61.3485V19.8202ZM61.3485 20.0002V20.6002H61.9486V20.0002H61.3485ZM58.7534 20.0002H58.1533V20.6002H58.7534V20.0002ZM58.7534 19.8202V19.2202H58.1533V19.8202H58.7534ZM59.6234 14.5252H60.2234C60.2234 14.1571 60.1506 13.7372 59.812 13.4437C59.4968 13.1705 59.0848 13.1302 58.7534 13.1302V13.7302V14.3302C58.8823 14.3302 58.9618 14.3401 59.0088 14.3514C59.0524 14.3618 59.0467 14.3684 59.0261 14.3505C59.0019 14.3295 58.9982 14.3112 59.0032 14.3266C59.0107 14.3497 59.0234 14.4083 59.0234 14.5252H59.6234ZM58.7534 13.7302H59.3534V13.5502H58.7534H58.1533V13.7302H58.7534ZM58.7534 13.5502L58.9326 14.1228L60.6577 13.5828L60.4785 13.0102L60.2993 12.4376L58.5741 12.9776L58.7534 13.5502ZM60.4785 13.0102H59.8784V19.0252H60.4785H61.0785V13.0102H60.4785ZM60.4785 19.0252H59.8784C59.8784 19.3933 59.9512 19.8132 60.2899 20.1067C60.6051 20.3799 61.0171 20.4202 61.3485 20.4202V19.8202V19.2202C61.2196 19.2202 61.1401 19.2103 61.0931 19.199C61.0495 19.1886 61.0552 19.182 61.0758 19.1999C61.1 19.2209 61.1037 19.2392 61.0987 19.2238C61.0912 19.2007 61.0785 19.1421 61.0785 19.0252H60.4785ZM61.3485 19.8202H60.7485V20.0002H61.3485H61.9486V19.8202H61.3485ZM61.3485 20.0002V19.4002H58.7534V20.0002V20.6002H61.3485V20.0002ZM58.7534 20.0002H59.3534V19.8202H58.7534H58.1533V20.0002H58.7534ZM58.7534 19.8202V20.4202C59.0848 20.4202 59.4968 20.3799 59.812 20.1067C60.1506 19.8132 60.2234 19.3933 60.2234 19.0252H59.6234H59.0234C59.0234 19.1421 59.0107 19.2007 59.0032 19.2238C58.9982 19.2392 59.0019 19.2209 59.0261 19.1999C59.0467 19.182 59.0524 19.1886 59.0088 19.199C58.9618 19.2103 58.8823 19.2202 58.7534 19.2202V19.8202ZM59.6234 19.0252H60.2234V14.5252H59.6234H59.0234V19.0252H59.6234ZM59.2034 11.5402H59.8034C59.8034 11.4971 59.8187 11.4697 59.8358 11.4526C59.8529 11.4355 59.8803 11.4202 59.9234 11.4202V10.8202V10.2202C59.187 10.2202 58.6033 10.8038 58.6033 11.5402H59.2034ZM59.9234 10.8202V11.4202C59.9902 11.4202 60.0434 11.4747 60.0434 11.5402H60.6435H61.2435C61.2435 10.7957 60.6367 10.2202 59.9234 10.2202V10.8202ZM60.6435 11.5402H60.0434C60.0434 11.5768 60.0289 11.6115 60.0024 11.6383C59.9755 11.6656 59.9462 11.6752 59.9234 11.6752V12.2752V12.8752C60.6529 12.8752 61.2435 12.2685 61.2435 11.5402H60.6435ZM59.9234 12.2752V11.6752C59.889 11.6752 59.8625 11.6627 59.8418 11.6414C59.8202 11.6191 59.8034 11.585 59.8034 11.5402H59.2034H58.6033C58.6033 12.2603 59.171 12.8752 59.9234 12.8752V12.2752Z" fill="black"/>
</g>
<path d="M42.5025 18.8301C41.4224 18.8301 40.4474 18.4551 39.7873 17.8551C39.4723 18.1401 38.9323 18.6951 38.9323 19.3251C38.9323 20.1651 40.8074 19.8201 41.9475 19.5651C44.0926 19.0851 46.0877 18.2001 46.0877 19.6701C46.0877 21.5451 43.8676 23.2401 41.7075 23.2401C39.3523 23.2401 39.3373 21.5751 39.6223 20.6601C38.8723 20.6301 38.3022 20.3751 38.3022 19.6551C38.3022 18.8601 39.1873 18.0801 39.6523 17.7201C39.1573 17.2251 38.8723 16.5951 38.8723 15.9051C38.8723 14.3151 40.4774 13.0101 42.5025 13.0101C42.9975 13.0101 43.4776 13.0851 43.9126 13.2351C43.9576 12.7101 44.1526 11.8101 45.0377 11.8101C45.4427 11.8101 45.7427 11.9751 45.9077 12.1551L45.5927 12.9501C45.4877 12.7701 45.3077 12.5451 44.9027 12.5451C44.4826 12.5451 44.1376 12.7701 44.0476 13.2951C45.2477 13.7451 46.0877 14.7351 46.0877 15.9051C46.0877 17.5101 44.4826 18.8301 42.5025 18.8301ZM39.7723 15.5001C39.7723 17.4201 41.2274 18.5901 42.7575 18.5901C44.3926 18.5901 45.1877 17.7351 45.1877 16.2951C45.1877 14.3901 43.7926 13.2501 42.2475 13.2501C40.6424 13.2501 39.7723 14.0751 39.7723 15.5001ZM39.8323 20.6751C39.6823 21.4701 40.1924 22.6851 42.3225 22.6851C43.7926 22.6851 45.6077 21.7101 45.6077 20.4501C45.6077 19.1901 43.5976 20.0751 41.9475 20.4051C41.3174 20.5401 40.5224 20.6751 39.8323 20.6751Z" fill="black"/>
<mask id="mask6_99_770" style="mask-type:luminance" maskUnits="userSpaceOnUse" x="37" y="11" width="11" height="13">
<path d="M47.0031 11H37.0024V24H47.0031V11Z" fill="white"/>
<path d="M42.503 18.8301C41.4229 18.8301 40.4479 18.4551 39.7878 17.8551C39.4728 18.1401 38.9328 18.6951 38.9328 19.3251C38.9328 20.1651 40.8079 19.8201 41.948 19.5651C44.0931 19.0851 46.0882 18.2001 46.0882 19.6701C46.0882 21.5451 43.8681 23.2401 41.7079 23.2401C39.3528 23.2401 39.3378 21.5751 39.6228 20.6601C38.8728 20.6301 38.3027 20.3751 38.3027 19.6551C38.3027 18.8601 39.1878 18.0801 39.6528 17.7201C39.1578 17.2251 38.8728 16.5951 38.8728 15.9051C38.8728 14.3151 40.4779 13.0101 42.503 13.0101C42.998 13.0101 43.4781 13.0851 43.9131 13.2351C43.9581 12.7101 44.1531 11.8101 45.0382 11.8101C45.4432 11.8101 45.7432 11.9751 45.9082 12.1551L45.5932 12.9501C45.4882 12.7701 45.3082 12.5451 44.9031 12.5451C44.4831 12.5451 44.1381 12.7701 44.0481 13.2951C45.2482 13.7451 46.0882 14.7351 46.0882 15.9051C46.0882 17.5101 44.4831 18.8301 42.503 18.8301ZM39.7728 15.5001C39.7728 17.4201 41.2279 18.5901 42.758 18.5901C44.3931 18.5901 45.1882 17.7351 45.1882 16.2951C45.1882 14.3901 43.7931 13.2501 42.248 13.2501C40.6429 13.2501 39.7728 14.0751 39.7728 15.5001ZM39.8328 20.6751C39.6828 21.4701 40.1929 22.6851 42.323 22.6851C43.7931 22.6851 45.6082 21.7101 45.6082 20.4501C45.6082 19.1901 43.5981 20.0751 41.948 20.4051C41.3179 20.5401 40.5229 20.6751 39.8328 20.6751Z" fill="black"/>
</mask>
<g mask="url(#mask6_99_770)">
<path d="M39.7878 17.855L40.1914 17.411L39.7888 17.045L39.3852 17.4101L39.7878 17.855ZM39.6228 20.66L40.1957 20.8384L40.4282 20.0917L39.6468 20.0605L39.6228 20.66ZM39.6528 17.72L40.0201 18.1944L40.5587 17.7774L40.0771 17.2957L39.6528 17.72ZM43.913 13.235L43.7174 13.8022L44.4452 14.0531L44.5109 13.2862L43.913 13.235ZM45.9081 12.155L46.466 12.376L46.6045 12.0266L46.3505 11.7496L45.9081 12.155ZM45.5931 12.95L45.0748 13.2523L45.6965 14.318L46.151 13.171L45.5931 12.95ZM44.048 13.295L43.4566 13.1936L43.3728 13.6826L43.8373 13.8568L44.048 13.295ZM39.8328 20.675V20.075H39.3353L39.2431 20.5638L39.8328 20.675ZM41.9479 20.405L41.8302 19.8166L41.8222 19.8183L41.9479 20.405ZM42.5029 18.83V18.23C41.5562 18.23 40.7297 17.9004 40.1914 17.411L39.7878 17.855L39.3841 18.299C40.1659 19.0096 41.2896 19.43 42.5029 19.43V18.83ZM39.7878 17.855L39.3852 17.4101C39.2137 17.5652 38.9608 17.8113 38.748 18.1202C38.5382 18.4248 38.3327 18.8403 38.3327 19.325H38.9327H39.5327C39.5327 19.1797 39.5973 19.0027 39.7363 18.801C39.8722 18.6037 40.0468 18.4298 40.1903 18.2999L39.7878 17.855ZM38.9327 19.325H38.3327C38.3327 19.5495 38.3982 19.7661 38.5376 19.9498C38.6715 20.1261 38.8461 20.2362 39.01 20.3054C39.3225 20.4375 39.6959 20.4626 40.0257 20.4555C40.7032 20.4409 41.5096 20.2779 42.0789 20.1505L41.9479 19.565L41.8169 18.9795C41.2462 19.1071 40.5449 19.2441 39.9999 19.2558C39.7185 19.2618 39.5517 19.2316 39.477 19.2C39.4473 19.1875 39.4665 19.1887 39.4934 19.2241C39.5258 19.2669 39.5327 19.3105 39.5327 19.325H38.9327ZM41.9479 19.565L42.0789 20.1505C42.6288 20.0275 43.1733 19.8775 43.6513 19.7528C44.1422 19.6247 44.558 19.5247 44.8981 19.4815C45.2612 19.4353 45.4165 19.4722 45.4631 19.4967C45.4691 19.4999 45.4685 19.5005 45.4654 19.4974C45.4621 19.4941 45.4616 19.4923 45.4633 19.4957C45.4675 19.5039 45.4881 19.551 45.4881 19.67H46.0882H46.6882C46.6882 19.1516 46.4965 18.6849 46.0227 18.4352C45.6281 18.2272 45.1506 18.2397 44.7468 18.291C44.32 18.3453 43.8347 18.4647 43.3483 18.5916C42.8489 18.7219 42.3395 18.8625 41.8169 18.9795L41.9479 19.565ZM46.0882 19.67H45.4881C45.4881 20.3665 45.0692 21.1025 44.3338 21.6891C43.6045 22.2709 42.639 22.64 41.7079 22.64V23.24V23.84C42.9369 23.84 44.1615 23.3616 45.0823 22.6272C45.9971 21.8975 46.6882 20.8485 46.6882 19.67H46.0882ZM41.7079 23.24V22.64C40.6818 22.64 40.3444 22.2925 40.2131 22.0271C40.048 21.6934 40.0748 21.2263 40.1957 20.8384L39.6228 20.66L39.0498 20.4816C38.8857 21.0087 38.7775 21.8316 39.1374 22.5592C39.5312 23.355 40.3788 23.84 41.7079 23.84V23.24ZM39.6228 20.66L39.6468 20.0605C39.3154 20.0472 39.1158 19.9847 39.0143 19.917C38.9712 19.8883 38.9497 19.8615 38.9361 19.8353C38.9219 19.808 38.9027 19.7545 38.9027 19.655H38.3027H37.7026C37.7026 20.2037 37.9358 20.6403 38.3486 20.9155C38.7196 21.1628 39.18 21.2428 39.5988 21.2595L39.6228 20.66ZM38.3027 19.655H38.9027C38.9027 19.4684 39.0156 19.2106 39.2666 18.9057C39.505 18.616 39.803 18.3625 40.0201 18.1944L39.6528 17.72L39.2854 17.2456C39.0375 17.4375 38.6604 17.754 38.3401 18.143C38.0323 18.5169 37.7026 19.0466 37.7026 19.655H38.3027ZM39.6528 17.72L40.0771 17.2957C39.6833 16.9019 39.4727 16.4205 39.4727 15.905H38.8727H38.2727C38.2727 16.7695 38.6322 17.5481 39.2284 18.1443L39.6528 17.72ZM38.8727 15.905H39.4727C39.4727 14.763 40.6791 13.61 42.5029 13.61V13.01V12.41C40.2765 12.41 38.2727 13.867 38.2727 15.905H38.8727ZM42.5029 13.01V13.61C42.9386 13.61 43.3518 13.6761 43.7174 13.8022L43.913 13.235L44.1086 12.6678C43.6042 12.4939 43.0574 12.41 42.5029 12.41V13.01ZM43.913 13.235L44.5109 13.2862C44.531 13.0516 44.5818 12.7991 44.6824 12.6219C44.7288 12.5401 44.7763 12.4916 44.8207 12.4629C44.8606 12.4372 44.9243 12.41 45.0381 12.41V11.81V11.21C44.3388 11.21 43.8885 11.5894 43.6387 12.0294C43.4093 12.4334 43.3401 12.8934 43.3152 13.1838L43.913 13.235ZM45.0381 11.81V12.41C45.2779 12.41 45.4164 12.5066 45.4658 12.5604L45.9081 12.155L46.3505 11.7496C46.0699 11.4434 45.6083 11.21 45.0381 11.21V11.81ZM45.9081 12.155L45.3503 11.934L45.0353 12.729L45.5931 12.95L46.151 13.171L46.466 12.376L45.9081 12.155ZM45.5931 12.95L46.1115 12.6477C46.0401 12.5253 45.9182 12.343 45.7125 12.194C45.4969 12.0379 45.2264 11.945 44.9031 11.945V12.545V13.145C44.948 13.145 44.9737 13.1511 44.9858 13.155C44.9975 13.1587 45.004 13.1626 45.0087 13.166C45.0205 13.1745 45.0412 13.1947 45.0748 13.2523L45.5931 12.95ZM44.9031 12.545V11.945C44.5868 11.945 44.2525 12.0307 43.9734 12.2575C43.6906 12.4872 43.5214 12.8156 43.4566 13.1936L44.048 13.295L44.6395 13.3964C44.6647 13.2494 44.713 13.2028 44.7302 13.1888C44.7511 13.1718 44.7994 13.145 44.9031 13.145V12.545ZM44.048 13.295L43.8373 13.8568C44.8689 14.2436 45.4881 15.0486 45.4881 15.905H46.0882H46.6882C46.6882 14.4214 45.6273 13.2464 44.2587 12.7332L44.048 13.295ZM46.0882 15.905H45.4881C45.4881 17.0715 44.27 18.23 42.5029 18.23V18.83V19.43C44.6961 19.43 46.6882 17.9485 46.6882 15.905H46.0882ZM39.7728 15.5H39.1727C39.1727 17.7745 40.9201 19.19 42.758 19.19V18.59V17.99C41.5356 17.99 40.3728 17.0655 40.3728 15.5H39.7728ZM42.758 18.59V19.19C43.675 19.19 44.4551 18.9493 45.0055 18.4117C45.5579 17.8722 45.7881 17.1225 45.7881 16.295H45.1881H44.5881C44.5881 16.9075 44.4208 17.3053 44.1669 17.5533C43.911 17.8032 43.476 17.99 42.758 17.99V18.59ZM45.1881 16.295H45.7881C45.7881 14.0389 44.1043 12.65 42.2479 12.65V13.25V13.85C43.4817 13.85 44.5881 14.7411 44.5881 16.295H45.1881ZM42.2479 13.25V12.65C41.3487 12.65 40.5652 12.8815 40.0024 13.3989C39.4319 13.9233 39.1727 14.663 39.1727 15.5H39.7728H40.3728C40.3728 14.912 40.5486 14.5267 40.8145 14.2823C41.0879 14.031 41.5421 13.85 42.2479 13.85V13.25ZM39.8328 20.675L39.2431 20.5638C39.1364 21.1292 39.2657 21.8302 39.7835 22.3868C40.3051 22.9475 41.1468 23.285 42.3229 23.285V22.685V22.085C41.3689 22.085 40.8905 21.815 40.6621 21.5695C40.4298 21.3198 40.3791 21.0158 40.4224 20.7862L39.8328 20.675ZM42.3229 22.685V23.285C43.1759 23.285 44.1073 23.0067 44.8365 22.5478C45.5469 22.1006 46.2082 21.3829 46.2082 20.45H45.6081H45.0081C45.0081 20.7771 44.7618 21.1769 44.1971 21.5322C43.6512 21.8758 42.9401 22.085 42.3229 22.085V22.685ZM45.6081 20.45H46.2082C46.2082 20.2146 46.1612 19.9748 46.0314 19.7612C45.8978 19.5415 45.7056 19.397 45.4986 19.311C45.1225 19.1546 44.6774 19.1831 44.3088 19.2377C43.9174 19.2957 43.481 19.4064 43.0645 19.5151C42.6354 19.627 42.2213 19.7383 41.8302 19.8166L41.9479 20.405L42.0656 20.9933C42.4995 20.9066 42.9555 20.7837 43.3674 20.6762C43.7919 20.5655 44.1673 20.4718 44.4848 20.4248C44.825 20.3744 44.9856 20.3973 45.0379 20.419C45.0451 20.422 45.0229 20.4125 45.0058 20.3844C44.9923 20.3622 45.0081 20.3704 45.0081 20.45H45.6081ZM41.9479 20.405L41.8222 19.8183C41.2038 19.9508 40.4583 20.075 39.8328 20.075V20.675V21.275C40.5873 21.275 41.432 21.1292 42.0736 20.9917L41.9479 20.405Z" fill="black"/>
</g>
<path d="M29.3267 17.57C29.3267 18.965 30.0767 19.865 31.6668 19.865C32.6569 19.865 33.5419 19.505 34.022 19.19V14.765C34.022 14.15 33.7669 13.97 33.1519 13.97V13.79L34.877 13.25V18.485C34.877 19.1 35.132 19.28 35.7471 19.28V19.46L34.022 20V19.34C33.4369 19.685 32.2218 20.24 31.1868 20.24C29.2367 20.24 28.4716 19.28 28.4716 17.57V14.765C28.4716 14.15 28.2166 13.97 27.6016 13.97V13.79L29.3267 13.25V17.57Z" fill="black"/>
<mask id="mask7_99_770" style="mask-type:luminance" maskUnits="userSpaceOnUse" x="27" y="12" width="11" height="9">
<path d="M37.0021 12H27.0015V21H37.0021V12Z" fill="white"/>
<path d="M29.3267 17.57C29.3267 18.965 30.0767 19.865 31.6668 19.865C32.6569 19.865 33.5419 19.505 34.022 19.19V14.765C34.022 14.15 33.7669 13.97 33.1519 13.97V13.79L34.877 13.25V18.485C34.877 19.1 35.132 19.28 35.7471 19.28V19.46L34.022 20V19.34C33.4369 19.685 32.2218 20.24 31.1868 20.24C29.2367 20.24 28.4716 19.28 28.4716 17.57V14.765C28.4716 14.15 28.2166 13.97 27.6016 13.97V13.79L29.3267 13.25V17.57Z" fill="black"/>
</mask>
<g mask="url(#mask7_99_770)">
<path d="M34.0219 19.1901L34.3511 19.6917L34.6219 19.514V19.1901H34.0219ZM33.1518 13.9701H32.5518V14.5701H33.1518V13.9701ZM33.1518 13.7901L32.9726 13.2175L32.5518 13.3492V13.7901H33.1518ZM34.877 13.2501H35.477V12.4336L34.6977 12.6775L34.877 13.2501ZM35.747 19.2801H36.347V18.6801H35.747V19.2801ZM35.747 19.4601L35.9262 20.0327L36.347 19.901V19.4601H35.747ZM34.0219 20.0001H33.4219V20.8166L34.2011 20.5727L34.0219 20.0001ZM34.0219 19.3401H34.6219V18.2897L33.7171 18.8233L34.0219 19.3401ZM27.6015 13.9701H27.0015V14.5701H27.6015V13.9701ZM27.6015 13.7901L27.4223 13.2175L27.0015 13.3492V13.7901H27.6015ZM29.3266 13.2501H29.9266V12.4336L29.1474 12.6775L29.3266 13.2501ZM29.3266 17.5701H28.7266C28.7266 18.3703 28.9426 19.1135 29.4691 19.6578C29.9992 20.2059 30.7594 20.4651 31.6668 20.4651V19.8651V19.2651C30.984 19.2651 30.5742 19.0743 30.3317 18.8236C30.0857 18.5692 29.9266 18.1649 29.9266 17.5701H29.3266ZM31.6668 19.8651V20.4651C32.789 20.4651 33.7868 20.062 34.3511 19.6917L34.0219 19.1901L33.6927 18.6885C33.297 18.9482 32.5246 19.2651 31.6668 19.2651V19.8651ZM34.0219 19.1901H34.6219V14.7651H34.0219H33.4219V19.1901H34.0219ZM34.0219 14.7651H34.6219C34.6219 14.397 34.5491 13.9771 34.2105 13.6836C33.8953 13.4104 33.4833 13.3701 33.1518 13.3701V13.9701V14.5701C33.2808 14.5701 33.3603 14.58 33.4073 14.5913C33.4509 14.6017 33.4452 14.6083 33.4246 14.5904C33.4004 14.5694 33.3967 14.5511 33.4017 14.5665C33.4092 14.5896 33.4219 14.6482 33.4219 14.7651H34.0219ZM33.1518 13.9701H33.7519V13.7901H33.1518H32.5518V13.9701H33.1518ZM33.1518 13.7901L33.3311 14.3627L35.0562 13.8227L34.877 13.2501L34.6977 12.6775L32.9726 13.2175L33.1518 13.7901ZM34.877 13.2501H34.2769V18.4851H34.877H35.477V13.2501H34.877ZM34.877 18.4851H34.2769C34.2769 18.8532 34.3497 19.2731 34.6883 19.5666C35.0036 19.8398 35.4156 19.8801 35.747 19.8801V19.2801V18.6801C35.6181 18.6801 35.5386 18.6702 35.4916 18.6589C35.448 18.6485 35.4537 18.6419 35.4743 18.6598C35.4985 18.6808 35.5022 18.6991 35.4972 18.6837C35.4897 18.6606 35.477 18.602 35.477 18.4851H34.877ZM35.747 19.2801H35.147V19.4601H35.747H36.347V19.2801H35.747ZM35.747 19.4601L35.5678 18.8875L33.8427 19.4275L34.0219 20.0001L34.2011 20.5727L35.9262 20.0327L35.747 19.4601ZM34.0219 20.0001H34.6219V19.3401H34.0219H33.4219V20.0001H34.0219ZM34.0219 19.3401L33.7171 18.8233C33.1603 19.1516 32.0589 19.6401 31.1867 19.6401V20.2401V20.8401C32.3847 20.8401 33.7134 20.2186 34.3267 19.8569L34.0219 19.3401ZM31.1867 20.2401V19.6401C30.3014 19.6401 29.8103 19.4225 29.531 19.1311C29.2471 18.835 29.0716 18.3484 29.0716 17.5701H28.4716H27.8715C27.8715 18.5018 28.0785 19.3502 28.6647 19.9616C29.2554 20.5777 30.122 20.8401 31.1867 20.8401V20.2401ZM28.4716 17.5701H29.0716V14.7651H28.4716H27.8715V17.5701H28.4716ZM28.4716 14.7651H29.0716C29.0716 14.397 28.9988 13.9771 28.6602 13.6836C28.3449 13.4104 27.9329 13.3701 27.6015 13.3701V13.9701V14.5701C27.7304 14.5701 27.8099 14.58 27.8569 14.5913C27.9005 14.6017 27.8948 14.6083 27.8742 14.5904C27.85 14.5694 27.8463 14.5511 27.8513 14.5665C27.8588 14.5896 27.8715 14.6482 27.8715 14.7651H28.4716ZM27.6015 13.9701H28.2015V13.7901H27.6015H27.0015V13.9701H27.6015ZM27.6015 13.7901L27.7807 14.3627L29.5058 13.8227L29.3266 13.2501L29.1474 12.6775L27.4223 13.2175L27.6015 13.7901ZM29.3266 13.2501H28.7266V17.5701H29.3266H29.9266V13.2501H29.3266Z" fill="black"/>
</g>
<path d="M21.0664 20.2398C19.0863 20.2398 17.4512 18.6198 17.4512 16.6098C17.4512 14.6298 19.0713 13.0098 21.0664 13.0098C23.0465 13.0098 24.6666 14.5998 24.6666 16.6098C24.6666 18.5898 23.0615 20.2398 21.0664 20.2398ZM18.3512 16.1298C18.3512 18.4998 19.7913 19.9998 21.3214 19.9998C22.9565 19.9998 23.7666 18.8898 23.7666 17.0898C23.7666 14.7198 22.3415 13.2498 20.8114 13.2498C19.1763 13.2498 18.3512 14.3298 18.3512 16.1298Z" fill="black"/>
<mask id="mask8_99_770" style="mask-type:luminance" maskUnits="userSpaceOnUse" x="16" y="12" width="11" height="9">
<path d="M26.0016 12H16.001V21H26.0016V12Z" fill="white"/>
<path d="M21.0664 20.2398C19.0863 20.2398 17.4512 18.6198 17.4512 16.6098C17.4512 14.6298 19.0713 13.0098 21.0664 13.0098C23.0465 13.0098 24.6666 14.5998 24.6666 16.6098C24.6666 18.5898 23.0615 20.2398 21.0664 20.2398ZM18.3512 16.1298C18.3512 18.4998 19.7913 19.9998 21.3214 19.9998C22.9565 19.9998 23.7666 18.8898 23.7666 17.0898C23.7666 14.7198 22.3415 13.2498 20.8114 13.2498C19.1763 13.2498 18.3512 14.3298 18.3512 16.1298Z" fill="black"/>
</mask>
<g mask="url(#mask8_99_770)">
<path d="M21.0663 20.2402V19.6402C19.4176 19.6402 18.0511 18.2888 18.0511 16.6102H17.4511H16.8511C16.8511 18.9516 18.7548 20.8402 21.0663 20.8402V20.2402ZM17.4511 16.6102H18.0511C18.0511 14.9632 19.4009 13.6102 21.0663 13.6102V13.0102V12.4102C18.7415 12.4102 16.8511 14.2972 16.8511 16.6102H17.4511ZM21.0663 13.0102V13.6102C22.7183 13.6102 24.0665 14.9348 24.0665 16.6102H24.6666H25.2666C25.2666 14.2656 23.3746 12.4102 21.0663 12.4102V13.0102ZM24.6666 16.6102H24.0665C24.0665 18.267 22.722 19.6402 21.0663 19.6402V20.2402V20.8402C23.4009 20.8402 25.2666 18.9134 25.2666 16.6102H24.6666ZM18.3512 16.1302H17.7511C17.7511 18.7156 19.3547 20.6002 21.3214 20.6002V20.0002V19.4002C20.2278 19.4002 18.9512 18.2848 18.9512 16.1302H18.3512ZM21.3214 20.0002V20.6002C22.2857 20.6002 23.0827 20.2655 23.6234 19.5978C24.1476 18.9503 24.3665 18.069 24.3665 17.0902H23.7665H23.1665C23.1665 17.9114 22.9804 18.4851 22.6907 18.8426C22.4177 19.1799 21.9921 19.4002 21.3214 19.4002V20.0002ZM23.7665 17.0902H24.3665C24.3665 14.5021 22.7757 12.6502 20.8113 12.6502V13.2502V13.8502C21.9071 13.8502 23.1665 14.9383 23.1665 17.0902H23.7665ZM20.8113 13.2502V12.6502C19.8527 12.6502 19.0528 12.9733 18.5063 13.6321C17.9747 14.2728 17.7511 15.1492 17.7511 16.1302H18.3512H18.9512C18.9512 15.3112 19.1401 14.7476 19.4299 14.3983C19.7047 14.0671 20.1349 13.8502 20.8113 13.8502V13.2502Z" fill="black"/>
</g>
<path d="M9.80074 9.5C11.3908 9.5 14.121 9.86 14.121 11.84C14.121 12.995 13.281 13.505 12.2009 13.985C13.386 14.195 14.9611 14.945 14.9611 16.835C14.9611 18.755 12.8459 20 10.4458 20H5.75049V19.82C6.36553 19.82 6.80055 19.64 6.80055 19.025V10.475C6.80055 9.86 6.36553 9.68 5.75049 9.68V9.5H9.80074ZM7.70061 19.82H9.77074C12.3359 19.82 13.986 18.755 13.986 16.835C13.986 15.11 12.8909 14.3 11.8859 14.135C10.0258 14.945 7.70061 15.86 7.70061 19.82ZM7.70061 18.08C8.66067 13.835 13.1459 14.195 13.1459 11.6C13.1459 9.74 10.3558 9.68 9.1257 9.68H7.70061V18.08Z" fill="black"/>
<mask id="mask9_99_770" style="mask-type:luminance" maskUnits="userSpaceOnUse" x="5" y="8" width="12" height="13">
<path d="M16.0012 8H5.00049V21H16.0012V8Z" fill="white"/>
<path d="M9.80074 9.5C11.3908 9.5 14.121 9.86 14.121 11.84C14.121 12.995 13.281 13.505 12.2009 13.985C13.386 14.195 14.9611 14.945 14.9611 16.835C14.9611 18.755 12.8459 20 10.4458 20H5.75049V19.82C6.36553 19.82 6.80055 19.64 6.80055 19.025V10.475C6.80055 9.86 6.36553 9.68 5.75049 9.68V9.5H9.80074ZM7.70061 19.82H9.77074C12.3359 19.82 13.986 18.755 13.986 16.835C13.986 15.11 12.8909 14.3 11.8859 14.135C10.0258 14.945 7.70061 15.86 7.70061 19.82ZM7.70061 18.08C8.66067 13.835 13.1459 14.195 13.1459 11.6C13.1459 9.74 10.3558 9.68 9.1257 9.68H7.70061V18.08Z" fill="black"/>
</mask>
<g mask="url(#mask9_99_770)">
<path d="M12.2008 13.9849L11.9571 13.4366L10.1643 14.2334L12.0961 14.5757L12.2008 13.9849ZM5.75043 19.9999H5.15039V20.5999H5.75043V19.9999ZM5.75043 19.8199V19.2199H5.15039V19.8199H5.75043ZM5.75043 9.6799H5.15039V10.2799H5.75043V9.6799ZM5.75043 9.4999V8.8999H5.15039V9.4999H5.75043ZM7.70055 19.8199H7.10051V20.4199H7.70055V19.8199ZM11.8858 14.1349L11.983 13.5428L11.8084 13.5142L11.6462 13.5848L11.8858 14.1349ZM7.70055 18.0799H7.10051L8.28581 18.2122L7.70055 18.0799ZM7.70055 9.6799V9.0799H7.10051V9.6799H7.70055ZM9.80068 9.4999V10.0999C10.5673 10.0999 11.5619 10.1888 12.3425 10.4877C13.1203 10.7856 13.5209 11.2124 13.5209 11.8399H14.1209H14.721C14.721 10.4874 13.7565 9.74423 12.7717 9.36709C11.7897 8.99103 10.6241 8.8999 9.80068 8.8999V9.4999ZM14.1209 11.8399H13.5209C13.5209 12.2444 13.3846 12.5074 13.1499 12.7331C12.8872 12.9858 12.4934 13.1983 11.9571 13.4366L12.2008 13.9849L12.4445 14.5332C12.9883 14.2915 13.5546 14.009 13.9819 13.5979C14.4373 13.1599 14.721 12.5904 14.721 11.8399H14.1209ZM12.2008 13.9849L12.0961 14.5757C12.6247 14.6694 13.2057 14.8792 13.642 15.2415C14.0579 15.5869 14.361 16.0826 14.361 16.8349H14.961H15.561C15.561 15.6972 15.0765 14.8729 14.4087 14.3183C13.7611 13.7806 12.9621 13.5104 12.3055 13.3941L12.2008 13.9849ZM14.961 16.8349H14.361C14.361 17.5462 13.9768 18.1684 13.2711 18.6378C12.5581 19.112 11.5504 19.3999 10.4457 19.3999V19.9999V20.5999C11.7412 20.5999 12.9911 20.2653 13.9357 19.637C14.8876 19.0039 15.561 18.0436 15.561 16.8349H14.961ZM10.4457 19.9999V19.3999H5.75043V19.9999V20.5999H10.4457V19.9999ZM5.75043 19.9999H6.35046V19.8199H5.75043H5.15039V19.9999H5.75043ZM5.75043 19.8199V20.4199C6.09366 20.4199 6.50097 20.3742 6.83542 20.1546C7.22019 19.902 7.40053 19.4955 7.40053 19.0249H6.80049H6.20046C6.20046 19.1085 6.18573 19.1412 6.18355 19.1456C6.18334 19.1461 6.18509 19.146 6.17677 19.1515C6.16336 19.1603 6.12718 19.179 6.05172 19.1948C5.97645 19.2104 5.87723 19.2199 5.75043 19.2199V19.8199ZM6.80049 19.0249H7.40053V10.4749H6.80049H6.20046V19.0249H6.80049ZM6.80049 10.4749H7.40053C7.40053 10.0043 7.22019 9.59782 6.83542 9.34522C6.50097 9.12564 6.09366 9.0799 5.75043 9.0799V9.6799V10.2799C5.87723 10.2799 5.97645 10.2894 6.05172 10.305C6.12718 10.3208 6.16336 10.3395 6.17677 10.3483C6.18509 10.3538 6.18334 10.3537 6.18355 10.3542C6.18573 10.3586 6.20046 10.3913 6.20046 10.4749H6.80049ZM5.75043 9.6799H6.35046V9.4999H5.75043H5.15039V9.6799H5.75043ZM5.75043 9.4999V10.0999H9.80068V9.4999V8.8999H5.75043V9.4999ZM7.70055 19.8199V20.4199H9.77068V19.8199V19.2199H7.70055V19.8199ZM9.77068 19.8199V20.4199C11.1246 20.4199 12.313 20.1406 13.1812 19.5411C14.0754 18.9236 14.586 17.9934 14.586 16.8349H13.9859H13.3859C13.3859 17.5964 13.0714 18.1587 12.4992 18.5537C11.9011 18.9667 10.982 19.2199 9.77068 19.2199V19.8199ZM13.9859 16.8349H14.586C14.586 15.8371 14.2656 15.0552 13.7565 14.496C13.2547 13.9448 12.6013 13.6443 11.983 13.5428L11.8858 14.1349L11.7886 14.727C12.1754 14.7905 12.5721 14.9775 12.8691 15.3038C13.1588 15.6221 13.3859 16.1077 13.3859 16.8349H13.9859ZM11.8858 14.1349L11.6462 13.5848C10.7423 13.9784 9.5789 14.4518 8.66844 15.3748C7.72703 16.3292 7.10051 17.7079 7.10051 19.8199H7.70055H8.30059C8.30059 17.9719 8.83664 16.9131 9.52283 16.2175C10.24 15.4905 11.1692 15.1014 12.1254 14.685L11.8858 14.1349ZM7.70055 18.0799L8.28581 18.2122C8.71015 16.336 9.88985 15.4765 11.0981 14.7319C11.6807 14.3729 12.3448 14.0004 12.8346 13.5534C13.3592 13.0745 13.7459 12.4599 13.7459 11.5999H13.1459H12.5458C12.5458 12.0374 12.3718 12.351 12.0255 12.6671C11.6443 13.015 11.1272 13.3044 10.4684 13.7104C9.19397 14.4958 7.65101 15.5788 7.11529 17.9476L7.70055 18.0799ZM13.1459 11.5999H13.7459C13.7459 10.9639 13.4992 10.4563 13.1044 10.0806C12.7271 9.72155 12.2384 9.50402 11.7646 9.36626C10.8213 9.09202 9.7366 9.0799 9.12564 9.0799V9.6799V10.2799C9.74475 10.2799 10.6701 10.2978 11.4295 10.5185C11.807 10.6283 12.0927 10.7745 12.277 10.9499C12.4437 11.1085 12.5458 11.3059 12.5458 11.5999H13.1459ZM9.12564 9.6799V9.0799H7.70055V9.6799V10.2799H9.12564V9.6799ZM7.70055 9.6799H7.10051V18.0799H7.70055H8.30059V9.6799H7.70055Z" fill="black"/>
</g>
<path d="M54.0485 15.6798C54.0485 14.0598 53.1934 13.1898 51.8133 13.1898C50.2232 13.1898 49.4732 14.4498 49.1282 15.4398H48.9482L49.0982 13.7598C49.4732 13.5798 50.5683 13.0098 51.8133 13.0098C53.7635 13.0098 54.9035 13.9698 54.9035 15.6798V18.7248C54.9035 19.3398 55.1585 19.5198 55.7736 19.5198V19.6998L54.0485 20.2398V18.0948C53.7034 19.1298 52.9534 20.2398 51.2733 20.2398C49.6982 20.2398 48.4531 19.2798 48.4531 18.0948C48.4531 15.4848 53.9435 15.6948 54.0485 15.6948V15.6798ZM49.2482 17.7498C49.2482 18.9648 50.6883 19.6098 51.9183 19.6098C53.9585 19.6098 54.0485 17.4648 54.0485 16.5798V15.8748C53.9285 15.8748 49.2482 15.6948 49.2482 17.7498Z" fill="black"/>
<mask id="mask10_99_770" style="mask-type:luminance" maskUnits="userSpaceOnUse" x="47" y="12" width="11" height="10">
<path d="M57.0035 12H47.0029V22H57.0035V12Z" fill="white"/>
<path d="M54.0485 15.6798C54.0485 14.0598 53.1934 13.1898 51.8133 13.1898C50.2232 13.1898 49.4732 14.4498 49.1282 15.4398H48.9482L49.0982 13.7598C49.4732 13.5798 50.5683 13.0098 51.8133 13.0098C53.7635 13.0098 54.9035 13.9698 54.9035 15.6798V18.7248C54.9035 19.3398 55.1585 19.5198 55.7736 19.5198V19.6998L54.0485 20.2398V18.0948C53.7034 19.1298 52.9534 20.2398 51.2733 20.2398C49.6982 20.2398 48.4531 19.2798 48.4531 18.0948C48.4531 15.4848 53.9435 15.6948 54.0485 15.6948V15.6798ZM49.2482 17.7498C49.2482 18.9648 50.6883 19.6098 51.9183 19.6098C53.9585 19.6098 54.0485 17.4648 54.0485 16.5798V15.8748C53.9285 15.8748 49.2482 15.6948 49.2482 17.7498Z" fill="black"/>
</mask>
<g mask="url(#mask10_99_770)">
<path d="M49.1281 15.4402V16.0402H49.5544L49.6947 15.6376L49.1281 15.4402ZM48.9481 15.4402L48.3505 15.3868L48.2921 16.0402H48.9481V15.4402ZM49.0981 13.7602L48.8385 13.2193L48.5308 13.367L48.5005 13.7068L49.0981 13.7602ZM55.7735 19.5202H56.3736V18.9202H55.7735V19.5202ZM55.7735 19.7002L55.9527 20.2728L56.3736 20.1411V19.7002H55.7735ZM54.0484 20.2402H53.4484V21.0567L54.2276 20.8128L54.0484 20.2402ZM54.0484 18.0952H54.6485L53.4792 17.9055L54.0484 18.0952ZM54.0484 15.6952V16.2952H54.6485V15.6952H54.0484ZM54.0484 15.8752H54.6485V15.2752H54.0484V15.8752ZM54.0484 15.6802H54.6485C54.6485 14.7694 54.4074 13.9841 53.89 13.4216C53.3665 12.8523 52.6327 12.5902 51.8133 12.5902V13.1902V13.7902C52.3739 13.7902 52.7577 13.9631 53.0067 14.2338C53.2619 14.5113 53.4484 14.971 53.4484 15.6802H54.0484ZM51.8133 13.1902V12.5902C49.8157 12.5902 48.926 14.1969 48.5615 15.2428L49.1281 15.4402L49.6947 15.6376C50.0203 14.7035 50.6307 13.7902 51.8133 13.7902V13.1902ZM49.1281 15.4402V14.8402H48.9481V15.4402V16.0402H49.1281V15.4402ZM48.9481 15.4402L49.5457 15.4936L49.6957 13.8136L49.0981 13.7602L48.5005 13.7068L48.3505 15.3868L48.9481 15.4402ZM49.0981 13.7602L49.3577 14.3011C49.7523 14.1117 50.7263 13.6102 51.8133 13.6102V13.0102V12.4102C50.4101 12.4102 49.1939 13.0487 48.8385 13.2193L49.0981 13.7602ZM51.8133 13.0102V13.6102C52.6977 13.6102 53.3132 13.8283 53.6989 14.1593C54.0712 14.4787 54.3034 14.9664 54.3034 15.6802H54.9035H55.5035C55.5035 14.684 55.1657 13.8367 54.4804 13.2486C53.8086 12.6721 52.8789 12.4102 51.8133 12.4102V13.0102ZM54.9035 15.6802H54.3034V18.7252H54.9035H55.5035V15.6802H54.9035ZM54.9035 18.7252H54.3034C54.3034 19.0933 54.3762 19.5132 54.7149 19.8067C55.0301 20.0799 55.4421 20.1202 55.7735 20.1202V19.5202V18.9202C55.6446 18.9202 55.5651 18.9103 55.5181 18.899C55.4745 18.8886 55.4802 18.882 55.5008 18.8999C55.525 18.9209 55.5287 18.9392 55.5237 18.9238C55.5162 18.9007 55.5035 18.8421 55.5035 18.7252H54.9035ZM55.7735 19.5202H55.1735V19.7002H55.7735H56.3736V19.5202H55.7735ZM55.7735 19.7002L55.5943 19.1276L53.8692 19.6676L54.0484 20.2402L54.2276 20.8128L55.9527 20.2728L55.7735 19.7002ZM54.0484 20.2402H54.6485V18.0952H54.0484H53.4484V20.2402H54.0484ZM54.0484 18.0952L53.4792 17.9055C53.3253 18.3671 53.0948 18.8007 52.7544 19.115C52.4277 19.4167 51.9667 19.6402 51.2732 19.6402V20.2402V20.8402C52.2599 20.8402 53.0139 20.5087 53.5686 19.9966C54.1095 19.4972 54.4265 18.8583 54.6176 18.2849L54.0484 18.0952ZM51.2732 20.2402V19.6402C49.8694 19.6402 49.0531 18.8087 49.0531 18.0952H48.4531H47.853C47.853 19.7517 49.5269 20.8402 51.2732 20.8402V20.2402ZM48.4531 18.0952H49.0531C49.0531 17.6959 49.2469 17.3864 49.6475 17.1169C50.0673 16.8346 50.6663 16.6357 51.3276 16.5051C52.643 16.2452 53.9749 16.2952 54.0484 16.2952V15.6952V15.0952C54.049 15.0952 54.0409 15.0948 53.98 15.0936C53.9315 15.0926 53.864 15.0916 53.7803 15.0913C53.613 15.0906 53.381 15.0927 53.106 15.1036C52.5587 15.1254 51.8291 15.1828 51.095 15.3278C50.3707 15.4709 49.5906 15.7089 48.9777 16.1213C48.3456 16.5465 47.853 17.1895 47.853 18.0952H48.4531ZM54.0484 15.6952H54.6485V15.6802H54.0484H53.4484V15.6952H54.0484ZM49.2481 17.7502H48.6481C48.6481 18.6321 49.1809 19.265 49.8096 19.6482C50.432 20.0274 51.2113 20.2102 51.9183 20.2102V19.6102V19.0102C51.3951 19.0102 50.8394 18.8705 50.4342 18.6235C50.0354 18.3804 49.8482 18.0833 49.8482 17.7502H49.2481ZM51.9183 19.6102V20.2102C52.5395 20.2102 53.0549 20.0446 53.4649 19.7463C53.8693 19.452 54.1306 19.0581 54.2998 18.6636C54.63 17.894 54.6485 17.0267 54.6485 16.5802H54.0484H53.4484C53.4484 17.0187 53.4218 17.6664 53.197 18.1905C53.0887 18.4429 52.9449 18.6406 52.7587 18.7761C52.5779 18.9076 52.3171 19.0102 51.9183 19.0102V19.6102ZM54.0484 16.5802H54.6485V15.8752H54.0484H53.4484V16.5802H54.0484ZM54.0484 15.8752V15.2752C54.0486 15.2752 54.0398 15.2749 53.9867 15.2738C53.9438 15.2729 53.8846 15.272 53.8116 15.2715C53.6658 15.2705 53.465 15.2716 53.2277 15.2795C52.7557 15.2953 52.1285 15.3387 51.4977 15.4514C50.877 15.5624 50.2014 15.7492 49.666 16.0798C49.1156 16.4197 48.6481 16.96 48.6481 17.7502H49.2481H49.8482C49.8482 17.5129 49.9657 17.3051 50.2966 17.1008C50.6425 16.8872 51.1444 16.7336 51.7089 16.6327C52.8291 16.4324 53.9659 16.4752 54.0484 16.4752V15.8752Z" fill="black"/>
</g>
<path d="M117.114 15.3117C117.114 13.8537 116.259 13.0707 114.879 13.0707C113.289 13.0707 112.539 14.2047 112.194 15.0957H112.014L112.164 13.5837C112.539 13.4217 113.634 12.9087 114.879 12.9087C116.829 12.9087 117.969 13.7727 117.969 15.3117V18.0522C117.969 18.6057 118.224 18.7677 118.839 18.7677V18.9297L117.114 19.4157V17.4852C116.769 18.4167 116.019 19.4157 114.339 19.4157C112.764 19.4157 111.519 18.5517 111.519 17.4852C111.519 15.1362 117.009 15.3252 117.114 15.3252V15.3117ZM112.314 17.1747C112.314 18.2682 113.754 18.8487 114.984 18.8487C117.024 18.8487 117.114 16.9182 117.114 16.1217V15.4872C116.994 15.4872 112.314 15.3252 112.314 17.1747Z" fill="black"/>
<mask id="mask11_99_770" style="mask-type:luminance" maskUnits="userSpaceOnUse" x="110" y="12" width="11" height="9">
<path d="M120.069 12H110.069V21H120.069V12Z" fill="white"/>
<path d="M117.114 15.3117C117.114 13.8537 116.259 13.0707 114.879 13.0707C113.289 13.0707 112.539 14.2047 112.194 15.0957H112.014L112.164 13.5837C112.539 13.4217 113.634 12.9087 114.879 12.9087C116.829 12.9087 117.969 13.7727 117.969 15.3117V18.0522C117.969 18.6057 118.224 18.7677 118.839 18.7677V18.9297L117.114 19.4157V17.4852C116.769 18.4167 116.019 19.4157 114.339 19.4157C112.764 19.4157 111.519 18.5517 111.519 17.4852C111.519 15.1362 117.009 15.3252 117.114 15.3252V15.3117ZM112.314 17.1747C112.314 18.2682 113.754 18.8487 114.984 18.8487C117.024 18.8487 117.114 16.9182 117.114 16.1217V15.4872C116.994 15.4872 112.314 15.3252 112.314 17.1747Z" fill="black"/>
</mask>
<g mask="url(#mask11_99_770)">
<path d="M112.194 15.0961V15.6361H112.62L112.761 15.2738L112.194 15.0961ZM112.014 15.0961L111.416 15.0481L111.358 15.6361H112.014V15.0961ZM112.164 13.5841L111.904 13.0973L111.597 13.2303L111.566 13.5361L112.164 13.5841ZM118.839 18.7681H119.439V18.2281H118.839V18.7681ZM118.839 18.9301L119.018 19.4455L119.439 19.327V18.9301H118.839ZM117.114 19.4161H116.514V20.151L117.293 19.9315L117.114 19.4161ZM117.114 17.4856H117.714L116.545 17.3149L117.114 17.4856ZM117.114 15.3256V15.8656H117.714V15.3256H117.114ZM117.114 15.4876H117.714V14.9476H117.114V15.4876ZM117.114 15.3121H117.714C117.714 14.4924 117.473 13.7857 116.956 13.2794C116.432 12.767 115.698 12.5311 114.879 12.5311V13.0711V13.6111C115.44 13.6111 115.823 13.7668 116.072 14.0104C116.327 14.2601 116.514 14.6739 116.514 15.3121H117.114ZM114.879 13.0711V12.5311C112.881 12.5311 111.992 13.9772 111.627 14.9185L112.194 15.0961L112.761 15.2738C113.086 14.4331 113.696 13.6111 114.879 13.6111V13.0711ZM112.194 15.0961V14.5561H112.014V15.0961V15.6361H112.194V15.0961ZM112.014 15.0961L112.612 15.1442L112.762 13.6322L112.164 13.5841L111.566 13.5361L111.416 15.0481L112.014 15.0961ZM112.164 13.5841L112.424 14.071C112.818 13.9005 113.792 13.4491 114.879 13.4491V12.9091V12.3691C113.476 12.3691 112.26 12.9438 111.904 13.0973L112.164 13.5841ZM114.879 12.9091V13.4491C115.763 13.4491 116.379 13.6454 116.764 13.9433C117.137 14.2308 117.369 14.6697 117.369 15.3121H117.969H118.569C118.569 14.4156 118.231 13.653 117.546 13.1237C116.874 12.6049 115.945 12.3691 114.879 12.3691V12.9091ZM117.969 15.3121H117.369V18.0526H117.969H118.569V15.3121H117.969ZM117.969 18.0526H117.369C117.369 18.3839 117.442 18.7618 117.78 19.026C118.096 19.2719 118.508 19.3081 118.839 19.3081V18.7681V18.2281C118.71 18.2281 118.631 18.2192 118.584 18.2091C118.54 18.1997 118.546 18.1938 118.566 18.2099C118.59 18.2288 118.594 18.2452 118.589 18.2314C118.582 18.2106 118.569 18.1579 118.569 18.0526H117.969ZM118.839 18.7681H118.239V18.9301H118.839H119.439V18.7681H118.839ZM118.839 18.9301L118.66 18.4148L116.935 18.9008L117.114 19.4161L117.293 19.9315L119.018 19.4455L118.839 18.9301ZM117.114 19.4161H117.714V17.4856H117.114H116.514V19.4161H117.114ZM117.114 17.4856L116.545 17.3149C116.391 17.7304 116.16 18.1206 115.82 18.4035C115.493 18.675 115.032 18.8761 114.339 18.8761V19.4161V19.9561C115.326 19.9561 116.08 19.6578 116.634 19.1969C117.175 18.7474 117.492 18.1724 117.683 17.6564L117.114 17.4856ZM114.339 19.4161V18.8761C112.935 18.8761 112.119 18.1278 112.119 17.4856H111.519H110.919C110.919 18.9765 112.593 19.9561 114.339 19.9561V19.4161ZM111.519 17.4856H112.119C112.119 17.1263 112.313 16.8477 112.713 16.6052C113.133 16.3511 113.732 16.1721 114.393 16.0546C115.709 15.8206 117.04 15.8656 117.114 15.8656V15.3256V14.7856C117.115 14.7856 117.106 14.7853 117.046 14.7842C116.997 14.7833 116.93 14.7824 116.846 14.7821C116.679 14.7815 116.447 14.7834 116.172 14.7932C115.624 14.8128 114.895 14.8645 114.161 14.995C113.436 15.1238 112.656 15.338 112.044 15.7091C111.411 16.0918 110.919 16.6705 110.919 17.4856H111.519ZM117.114 15.3256H117.714V15.3121H117.114H116.514V15.3256H117.114ZM112.314 17.1751H111.714C111.714 17.9689 112.247 18.5385 112.875 18.8833C113.498 19.2246 114.277 19.3891 114.984 19.3891V18.8491V18.3091C114.461 18.3091 113.905 18.1834 113.5 17.9611C113.101 17.7423 112.914 17.4749 112.914 17.1751H112.314ZM114.984 18.8491V19.3891C115.605 19.3891 116.121 19.2401 116.53 18.9716C116.935 18.7068 117.196 18.3523 117.365 17.9972C117.696 17.3046 117.714 16.524 117.714 16.1221H117.114H116.514C116.514 16.5168 116.487 17.0997 116.263 17.5714C116.154 17.7986 116.011 17.9765 115.824 18.0985C115.644 18.2168 115.383 18.3091 114.984 18.3091V18.8491ZM117.114 16.1221H117.714V15.4876H117.114H116.514V16.1221H117.114ZM117.114 15.4876V14.9476C117.114 14.9476 117.105 14.9474 117.052 14.9464C117.009 14.9456 116.95 14.9448 116.877 14.9443C116.731 14.9434 116.531 14.9444 116.293 14.9515C115.821 14.9657 115.194 15.0048 114.563 15.1062C113.943 15.2061 113.267 15.3742 112.732 15.6718C112.181 15.9777 111.714 16.464 111.714 17.1751H112.314H112.914C112.914 16.9616 113.031 16.7746 113.362 16.5907C113.708 16.3984 114.21 16.2602 114.775 16.1694C115.895 15.9891 117.031 16.0276 117.114 16.0276V15.4876Z" fill="black"/>
</g>
<path d="M109.305 17.4704C108.72 18.6854 107.67 19.5254 106.065 19.5254C103.98 19.5254 102.45 17.9054 102.45 15.8954C102.45 13.9154 104.07 12.2954 106.065 12.2954C107.61 12.2954 108.93 13.2554 109.44 14.6204C107.37 14.7704 105.24 16.2704 103.785 17.5004C104.34 18.6254 105.33 19.2854 106.41 19.2854C108.03 19.2854 108.825 18.1154 109.125 17.4704H109.305ZM103.35 15.4154C103.35 16.1354 103.485 16.7804 103.71 17.3354C105.015 16.2254 106.785 15.0254 108.465 14.5904C107.955 13.3754 106.905 12.5354 105.81 12.5354C104.175 12.5354 103.35 13.6154 103.35 15.4154Z" fill="black"/>
<mask id="mask12_99_770" style="mask-type:luminance" maskUnits="userSpaceOnUse" x="101" y="11" width="10" height="10">
<path d="M111 11.2856H101V20.2856H111V11.2856Z" fill="white"/>
<path d="M109.305 17.4704C108.72 18.6854 107.67 19.5254 106.065 19.5254C103.98 19.5254 102.45 17.9054 102.45 15.8954C102.45 13.9154 104.07 12.2954 106.065 12.2954C107.61 12.2954 108.93 13.2554 109.44 14.6204C107.37 14.7704 105.24 16.2704 103.785 17.5004C104.34 18.6254 105.33 19.2854 106.41 19.2854C108.03 19.2854 108.825 18.1154 109.125 17.4704H109.305ZM103.35 15.4154C103.35 16.1354 103.485 16.7804 103.71 17.3354C105.015 16.2254 106.785 15.0254 108.465 14.5904C107.955 13.3754 106.905 12.5354 105.81 12.5354C104.175 12.5354 103.35 13.6154 103.35 15.4154Z" fill="black"/>
</mask>
<g mask="url(#mask12_99_770)">
<path d="M109.305 17.4708L109.846 17.7311L110.26 16.8708H109.305V17.4708ZM109.44 14.6208L109.483 15.2192L110.282 15.1613L110.002 14.4108L109.44 14.6208ZM103.785 17.5008L103.398 17.0426L103.039 17.3455L103.247 17.7663L103.785 17.5008ZM109.125 17.4708V16.8708H108.742L108.581 17.2178L109.125 17.4708ZM103.71 17.3358L103.154 17.5612L103.466 18.331L104.099 17.7928L103.71 17.3358ZM108.465 14.5908L108.615 15.1716L109.287 14.9979L109.018 14.3586L108.465 14.5908ZM109.305 17.4708L108.764 17.2105C108.266 18.2463 107.41 18.9258 106.065 18.9258V19.5258V20.1258C107.93 20.1258 109.174 19.1253 109.846 17.7311L109.305 17.4708ZM106.065 19.5258V18.9258C104.323 18.9258 103.05 17.5859 103.05 15.8958H102.45H101.85C101.85 18.2257 103.637 20.1258 106.065 20.1258V19.5258ZM102.45 15.8958H103.05C103.05 14.2488 104.4 12.8958 106.065 12.8958V12.2958V11.6958C103.74 11.6958 101.85 13.5828 101.85 15.8958H102.45ZM106.065 12.2958V12.8958C107.356 12.8958 108.454 13.6968 108.878 14.8308L109.44 14.6208L110.002 14.4108C109.406 12.8148 107.864 11.6958 106.065 11.6958V12.2958ZM109.44 14.6208L109.397 14.0224C108.24 14.1062 107.101 14.5626 106.088 15.1329C105.069 15.7058 104.141 16.4141 103.398 17.0426L103.785 17.5008L104.172 17.959C104.884 17.3575 105.748 16.7008 106.676 16.1787C107.609 15.654 108.57 15.2854 109.483 15.2192L109.44 14.6208ZM103.785 17.5008L103.247 17.7663C103.886 19.0626 105.067 19.8858 106.41 19.8858V19.2858V18.6858C105.593 18.6858 104.794 18.189 104.323 17.2353L103.785 17.5008ZM106.41 19.2858V19.8858C108.379 19.8858 109.331 18.4503 109.669 17.7238L109.125 17.4708L108.581 17.2178C108.319 17.7813 107.681 18.6858 106.41 18.6858V19.2858ZM109.125 17.4708V18.0708H109.305V17.4708V16.8708H109.125V17.4708ZM103.35 15.4158H102.75C102.75 16.2115 102.899 16.9332 103.154 17.5612L103.71 17.3358L104.266 17.1104C104.071 16.6284 103.95 16.0601 103.95 15.4158H103.35ZM103.71 17.3358L104.099 17.7928C105.381 16.7024 107.067 15.5725 108.615 15.1716L108.465 14.5908L108.315 14.01C106.503 14.4791 104.649 15.7492 103.321 16.8788L103.71 17.3358ZM108.465 14.5908L109.018 14.3586C108.445 12.9924 107.216 11.9358 105.81 11.9358V12.5358V13.1358C106.594 13.1358 107.465 13.7592 107.912 14.823L108.465 14.5908ZM105.81 12.5358V11.9358C104.851 11.9358 104.052 12.2589 103.505 12.9177C102.974 13.5584 102.75 14.4348 102.75 15.4158H103.35H103.95C103.95 14.5968 104.139 14.0332 104.429 13.6839C104.703 13.3527 105.134 13.1358 105.81 13.1358V12.5358Z" fill="black"/>
</g>
</g>
<defs>
<clipPath id="clip0_99_770">
<rect width="127" height="28" fill="white"/>
</clipPath>
</defs>
</svg>
