<svg width="106" height="28" viewBox="0 0 106 28" fill="none" xmlns="http://www.w3.org/2000/svg">
<mask id="mask0_100_112" style="mask-type:luminance" maskUnits="userSpaceOnUse" x="0" y="0" width="105" height="28">
<path d="M105 0H0V28H105V0Z" fill="white"/>
</mask>
<g mask="url(#mask0_100_112)">
<path d="M93.4546 18.1848C92.8696 19.3998 91.8196 20.2398 90.2146 20.2398C88.1296 20.2398 86.5996 18.6198 86.5996 16.6098C86.5996 14.6298 88.2196 13.0098 90.2146 13.0098C91.7596 13.0098 93.0796 13.9698 93.5896 15.3348C91.5196 15.4848 89.3896 16.9848 87.9346 18.2148C88.4896 19.3398 89.4796 19.9998 90.5596 19.9998C92.1796 19.9998 92.9746 18.8298 93.2746 18.1848H93.4546ZM87.4996 16.1298C87.4996 16.8498 87.6346 17.4948 87.8596 18.0498C89.1646 16.9398 90.9346 15.7398 92.6146 15.3048C92.1046 14.0898 91.0546 13.2498 89.9596 13.2498C88.3246 13.2498 87.4996 14.3298 87.4996 16.1298Z" fill="white"/>
<mask id="mask1_100_112" style="mask-type:luminance" maskUnits="userSpaceOnUse" x="85" y="12" width="11" height="9">
<path d="M95.1504 12H85.1504V21H95.1504V12Z" fill="white"/>
<path d="M93.4546 18.1848C92.8696 19.3998 91.8196 20.2398 90.2146 20.2398C88.1296 20.2398 86.5996 18.6198 86.5996 16.6098C86.5996 14.6298 88.2196 13.0098 90.2146 13.0098C91.7596 13.0098 93.0796 13.9698 93.5896 15.3348C91.5196 15.4848 89.3896 16.9848 87.9346 18.2148C88.4896 19.3398 89.4796 19.9998 90.5596 19.9998C92.1796 19.9998 92.9746 18.8298 93.2746 18.1848H93.4546ZM87.4996 16.1298C87.4996 16.8498 87.6346 17.4948 87.8596 18.0498C89.1646 16.9398 90.9346 15.7398 92.6146 15.3048C92.1046 14.0898 91.0546 13.2498 89.9596 13.2498C88.3246 13.2498 87.4996 14.3298 87.4996 16.1298Z" fill="white"/>
</mask>
<g mask="url(#mask1_100_112)">
<path d="M93.455 18.1852L93.9956 18.4455L94.4098 17.5852H93.455V18.1852ZM93.59 15.3352L93.6334 15.9336L94.4325 15.8757L94.152 15.1252L93.59 15.3352ZM87.935 18.2152L87.5476 17.757L87.1893 18.0599L87.3969 18.4807L87.935 18.2152ZM93.275 18.1852V17.5852H92.8923L92.731 17.9322L93.275 18.1852ZM87.86 18.0502L87.3039 18.2756L87.616 19.0454L88.2487 18.5072L87.86 18.0502ZM92.615 15.3052L92.7654 15.886L93.4366 15.7123L93.1682 15.073L92.615 15.3052ZM93.455 18.1852L92.9144 17.9249C92.4157 18.9607 91.5595 19.6402 90.215 19.6402V20.2402V20.8402C92.0805 20.8402 93.3243 19.8397 93.9956 18.4455L93.455 18.1852ZM90.215 20.2402V19.6402C88.4727 19.6402 87.2 18.3003 87.2 16.6102H86.6H86C86 18.9401 87.7873 20.8402 90.215 20.8402V20.2402ZM86.6 16.6102H87.2C87.2 14.9632 88.5497 13.6102 90.215 13.6102V13.0102V12.4102C87.8902 12.4102 86 14.2972 86 16.6102H86.6ZM90.215 13.0102V13.6102C91.5058 13.6102 92.6042 14.4112 93.0279 15.5452L93.59 15.3352L94.152 15.1252C93.5557 13.5292 92.0141 12.4102 90.215 12.4102V13.0102ZM93.59 15.3352L93.5466 14.7368C92.3895 14.8206 91.2513 15.277 90.2377 15.8473C89.2194 16.4202 88.2911 17.1285 87.5476 17.757L87.935 18.2152L88.3223 18.6734C89.0339 18.0719 89.8981 17.4152 90.8261 16.8931C91.7587 16.3684 92.7205 15.9998 93.6334 15.9336L93.59 15.3352ZM87.935 18.2152L87.3969 18.4807C88.0365 19.777 89.2165 20.6002 90.56 20.6002V20.0002V19.4002C89.7435 19.4002 88.9435 18.9034 88.4731 17.9497L87.935 18.2152ZM90.56 20.0002V20.6002C92.529 20.6002 93.4811 19.1647 93.819 18.4382L93.275 18.1852L92.731 17.9322C92.4688 18.4957 91.8309 19.4002 90.56 19.4002V20.0002ZM93.275 18.1852V18.7852H93.455V18.1852V17.5852H93.275V18.1852ZM87.5 16.1302H86.9C86.9 16.9259 87.0493 17.6476 87.3039 18.2756L87.86 18.0502L88.416 17.8248C88.2207 17.3428 88.1 16.7745 88.1 16.1302H87.5ZM87.86 18.0502L88.2487 18.5072C89.5308 17.4168 91.2173 16.2869 92.7654 15.886L92.615 15.3052L92.4646 14.7244C90.6527 15.1935 88.7992 16.4636 87.4712 17.5932L87.86 18.0502ZM92.615 15.3052L93.1682 15.073C92.5948 13.7068 91.3659 12.6502 89.96 12.6502V13.2502V13.8502C90.7441 13.8502 91.6152 14.4736 92.0618 15.5374L92.615 15.3052ZM89.96 13.2502V12.6502C89.0014 12.6502 88.2016 12.9733 87.6551 13.6321C87.1236 14.2728 86.9 15.1492 86.9 16.1302H87.5H88.1C88.1 15.3112 88.2889 14.7476 88.5787 14.3983C88.8534 14.0671 89.2836 13.8502 89.96 13.8502V13.2502Z" fill="white"/>
</g>
<path d="M74.9004 19.82C75.5154 19.82 75.7704 19.64 75.7704 19.025V11.015C75.7704 10.4 75.5154 10.22 74.9004 10.22V10.04L76.6254 9.5V19.025C76.6254 19.64 76.8804 19.82 77.4954 19.82V20H74.9004V19.82Z" fill="white"/>
<mask id="mask2_100_112" style="mask-type:luminance" maskUnits="userSpaceOnUse" x="74" y="8" width="5" height="13">
<path d="M78.1504 8H74.1504V21H78.1504V8Z" fill="white"/>
<path d="M74.9004 19.82C75.5154 19.82 75.7704 19.64 75.7704 19.025V11.015C75.7704 10.4 75.5154 10.22 74.9004 10.22V10.04L76.6254 9.5V19.025C76.6254 19.64 76.8804 19.82 77.4954 19.82V20H74.9004V19.82Z" fill="white"/>
</mask>
<g mask="url(#mask2_100_112)">
<path d="M74.9008 19.8201V19.2201H74.3008V19.8201H74.9008ZM74.9008 10.2201H74.3008V10.8201H74.9008V10.2201ZM74.9008 10.0401L74.7215 9.46753L74.3008 9.59924V10.0401H74.9008ZM76.6258 9.50013H77.2258V8.68359L76.4465 8.92753L76.6258 9.50013ZM77.4958 19.8201H78.0958V19.2201H77.4958V19.8201ZM77.4958 20.0001V20.6001H78.0958V20.0001H77.4958ZM74.9008 20.0001H74.3008V20.6001H74.9008V20.0001ZM74.9008 19.8201V20.4201C75.2322 20.4201 75.6442 20.3798 75.9594 20.1066C76.298 19.8131 76.3708 19.3932 76.3708 19.0251H75.7708H75.1708C75.1708 19.142 75.1581 19.2006 75.1506 19.2237C75.1456 19.2391 75.1493 19.2208 75.1735 19.1998C75.1941 19.1819 75.1998 19.1885 75.1562 19.1989C75.1092 19.2102 75.0296 19.2201 74.9008 19.2201V19.8201ZM75.7708 19.0251H76.3708V11.0151H75.7708H75.1708V19.0251H75.7708ZM75.7708 11.0151H76.3708C76.3708 10.647 76.298 10.2271 75.9594 9.93359C75.6442 9.66042 75.2322 9.62013 74.9008 9.62013V10.2201V10.8201C75.0296 10.8201 75.1092 10.83 75.1562 10.8413C75.1998 10.8517 75.1941 10.8583 75.1735 10.8404C75.1493 10.8194 75.1456 10.8011 75.1506 10.8165C75.1581 10.8396 75.1708 10.8982 75.1708 11.0151H75.7708ZM74.9008 10.2201H75.5008V10.0401H74.9008H74.3008V10.2201H74.9008ZM74.9008 10.0401L75.08 10.6127L76.805 10.0727L76.6258 9.50013L76.4465 8.92753L74.7215 9.46753L74.9008 10.0401ZM76.6258 9.50013H76.0258V19.0251H76.6258H77.2258V9.50013H76.6258ZM76.6258 19.0251H76.0258C76.0258 19.3932 76.0985 19.8131 76.4372 20.1066C76.7524 20.3798 77.1644 20.4201 77.4958 20.4201V19.8201V19.2201C77.3669 19.2201 77.2874 19.2102 77.2404 19.1989C77.1968 19.1885 77.2025 19.1819 77.2231 19.1998C77.2473 19.2208 77.251 19.2391 77.246 19.2237C77.2385 19.2006 77.2258 19.142 77.2258 19.0251H76.6258ZM77.4958 19.8201H76.8958V20.0001H77.4958H78.0958V19.8201H77.4958ZM77.4958 20.0001V19.4001H74.9008V20.0001V20.6001H77.4958V20.0001ZM74.9008 20.0001H75.5008V19.8201H74.9008H74.3008V20.0001H74.9008Z" fill="white"/>
</g>
<path d="M80.9004 19.82C81.5154 19.82 81.7704 19.64 81.7704 19.025V11.015C81.7704 10.4 81.5154 10.22 80.9004 10.22V10.04L82.6254 9.5V19.025C82.6254 19.64 82.8804 19.82 83.4954 19.82V20H80.9004V19.82Z" fill="white"/>
<mask id="mask3_100_112" style="mask-type:luminance" maskUnits="userSpaceOnUse" x="80" y="8" width="5" height="13">
<path d="M84.1504 8H80.1504V21H84.1504V8Z" fill="white"/>
<path d="M80.9004 19.82C81.5154 19.82 81.7704 19.64 81.7704 19.025V11.015C81.7704 10.4 81.5154 10.22 80.9004 10.22V10.04L82.6254 9.5V19.025C82.6254 19.64 82.8804 19.82 83.4954 19.82V20H80.9004V19.82Z" fill="white"/>
</mask>
<g mask="url(#mask3_100_112)">
<path d="M80.9008 19.8201V19.2201H80.3008V19.8201H80.9008ZM80.9008 10.2201H80.3008V10.8201H80.9008V10.2201ZM80.9008 10.0401L80.7215 9.46753L80.3008 9.59924V10.0401H80.9008ZM82.6258 9.50013H83.2258V8.68359L82.4465 8.92753L82.6258 9.50013ZM83.4958 19.8201H84.0958V19.2201H83.4958V19.8201ZM83.4958 20.0001V20.6001H84.0958V20.0001H83.4958ZM80.9008 20.0001H80.3008V20.6001H80.9008V20.0001ZM80.9008 19.8201V20.4201C81.2322 20.4201 81.6442 20.3798 81.9594 20.1066C82.298 19.8131 82.3708 19.3932 82.3708 19.0251H81.7708H81.1708C81.1708 19.142 81.1581 19.2006 81.1506 19.2237C81.1456 19.2391 81.1493 19.2208 81.1735 19.1998C81.1941 19.1819 81.1998 19.1885 81.1562 19.1989C81.1092 19.2102 81.0296 19.2201 80.9008 19.2201V19.8201ZM81.7708 19.0251H82.3708V11.0151H81.7708H81.1708V19.0251H81.7708ZM81.7708 11.0151H82.3708C82.3708 10.647 82.298 10.2271 81.9594 9.93359C81.6442 9.66042 81.2322 9.62013 80.9008 9.62013V10.2201V10.8201C81.0296 10.8201 81.1092 10.83 81.1562 10.8413C81.1998 10.8517 81.1941 10.8583 81.1735 10.8404C81.1493 10.8194 81.1456 10.8011 81.1506 10.8165C81.1581 10.8396 81.1708 10.8982 81.1708 11.0151H81.7708ZM80.9008 10.2201H81.5008V10.0401H80.9008H80.3008V10.2201H80.9008ZM80.9008 10.0401L81.08 10.6127L82.805 10.0727L82.6258 9.50013L82.4465 8.92753L80.7215 9.46753L80.9008 10.0401ZM82.6258 9.50013H82.0258V19.0251H82.6258H83.2258V9.50013H82.6258ZM82.6258 19.0251H82.0258C82.0258 19.3932 82.0985 19.8131 82.4372 20.1066C82.7524 20.3798 83.1644 20.4201 83.4958 20.4201V19.8201V19.2201C83.3669 19.2201 83.2874 19.2102 83.2404 19.1989C83.1968 19.1885 83.2025 19.1819 83.2231 19.1998C83.2473 19.2208 83.251 19.2391 83.246 19.2237C83.2385 19.2006 83.2258 19.142 83.2258 19.0251H82.6258ZM83.4958 19.8201H82.8958V20.0001H83.4958H84.0958V19.8201H83.4958ZM83.4958 20.0001V19.4001H80.9008V20.0001V20.6001H83.4958V20.0001ZM80.9008 20.0001H81.5008V19.8201H80.9008H80.3008V20.0001H80.9008Z" fill="white"/>
</g>
<path d="M69.7704 14.5248C69.7704 13.9098 69.5154 13.7298 68.9004 13.7298V13.5498L70.6254 13.0098V19.0248C70.6254 19.6398 70.8804 19.8198 71.4954 19.8198V19.9998H68.9004V19.8198C69.5154 19.8198 69.7704 19.6398 69.7704 19.0248V14.5248ZM69.3504 11.5398C69.3504 11.1348 69.6654 10.8198 70.0704 10.8198C70.4604 10.8198 70.7904 11.1348 70.7904 11.5398C70.7904 11.9448 70.4604 12.2748 70.0704 12.2748C69.6654 12.2748 69.3504 11.9448 69.3504 11.5398Z" fill="white"/>
<mask id="mask4_100_112" style="mask-type:luminance" maskUnits="userSpaceOnUse" x="68" y="10" width="5" height="11">
<path d="M72.1504 10H68.1504V21H72.1504V10Z" fill="white"/>
<path d="M69.7704 14.5248C69.7704 13.9098 69.5154 13.7298 68.9004 13.7298V13.5498L70.6254 13.0098V19.0248C70.6254 19.6398 70.8804 19.8198 71.4954 19.8198V19.9998H68.9004V19.8198C69.5154 19.8198 69.7704 19.6398 69.7704 19.0248V14.5248ZM69.3504 11.5398C69.3504 11.1348 69.6654 10.8198 70.0704 10.8198C70.4604 10.8198 70.7904 11.1348 70.7904 11.5398C70.7904 11.9448 70.4604 12.2748 70.0704 12.2748C69.6654 12.2748 69.3504 11.9448 69.3504 11.5398Z" fill="white"/>
</mask>
<g mask="url(#mask4_100_112)">
<path d="M68.9008 13.7302H68.3008V14.3302H68.9008V13.7302ZM68.9008 13.5502L68.7215 12.9776L68.3008 13.1093V13.5502H68.9008ZM70.6258 13.0102H71.2258V12.1937L70.4465 12.4376L70.6258 13.0102ZM71.4958 19.8202H72.0958V19.2202H71.4958V19.8202ZM71.4958 20.0002V20.6002H72.0958V20.0002H71.4958ZM68.9008 20.0002H68.3008V20.6002H68.9008V20.0002ZM68.9008 19.8202V19.2202H68.3008V19.8202H68.9008ZM69.7708 14.5252H70.3708C70.3708 14.1571 70.298 13.7372 69.9594 13.4437C69.6442 13.1705 69.2322 13.1302 68.9008 13.1302V13.7302V14.3302C69.0296 14.3302 69.1092 14.3401 69.1562 14.3514C69.1998 14.3618 69.1941 14.3684 69.1735 14.3505C69.1493 14.3295 69.1456 14.3112 69.1506 14.3266C69.1581 14.3497 69.1708 14.4083 69.1708 14.5252H69.7708ZM68.9008 13.7302H69.5008V13.5502H68.9008H68.3008V13.7302H68.9008ZM68.9008 13.5502L69.08 14.1228L70.805 13.5828L70.6258 13.0102L70.4465 12.4376L68.7215 12.9776L68.9008 13.5502ZM70.6258 13.0102H70.0258V19.0252H70.6258H71.2258V13.0102H70.6258ZM70.6258 19.0252H70.0258C70.0258 19.3933 70.0985 19.8132 70.4372 20.1067C70.7524 20.3799 71.1644 20.4202 71.4958 20.4202V19.8202V19.2202C71.3669 19.2202 71.2874 19.2103 71.2404 19.199C71.1968 19.1886 71.2025 19.182 71.2231 19.1999C71.2473 19.2209 71.251 19.2392 71.246 19.2238C71.2385 19.2007 71.2258 19.1421 71.2258 19.0252H70.6258ZM71.4958 19.8202H70.8958V20.0002H71.4958H72.0958V19.8202H71.4958ZM71.4958 20.0002V19.4002H68.9008V20.0002V20.6002H71.4958V20.0002ZM68.9008 20.0002H69.5008V19.8202H68.9008H68.3008V20.0002H68.9008ZM68.9008 19.8202V20.4202C69.2322 20.4202 69.6442 20.3799 69.9594 20.1067C70.298 19.8132 70.3708 19.3933 70.3708 19.0252H69.7708H69.1708C69.1708 19.1421 69.1581 19.2007 69.1506 19.2238C69.1456 19.2392 69.1493 19.2209 69.1735 19.1999C69.1941 19.182 69.1998 19.1886 69.1562 19.199C69.1092 19.2103 69.0296 19.2202 68.9008 19.2202V19.8202ZM69.7708 19.0252H70.3708V14.5252H69.7708H69.1708V19.0252H69.7708ZM69.3508 11.5402H69.9508C69.9508 11.4971 69.9661 11.4697 69.9832 11.4526C70.0003 11.4355 70.0277 11.4202 70.0708 11.4202V10.8202V10.2202C69.3344 10.2202 68.7508 10.8038 68.7508 11.5402H69.3508ZM70.0708 10.8202V11.4202C70.1376 11.4202 70.1908 11.4747 70.1908 11.5402H70.7908H71.3908C71.3908 10.7957 70.784 10.2202 70.0708 10.2202V10.8202ZM70.7908 11.5402H70.1908C70.1908 11.5768 70.1762 11.6115 70.1498 11.6383C70.1229 11.6656 70.0936 11.6752 70.0708 11.6752V12.2752V12.8752C70.8002 12.8752 71.3908 12.2685 71.3908 11.5402H70.7908ZM70.0708 12.2752V11.6752C70.0364 11.6752 70.0099 11.6627 69.9892 11.6414C69.9676 11.6191 69.9508 11.585 69.9508 11.5402H69.3508H68.7508C68.7508 12.2603 69.3184 12.8752 70.0708 12.8752V12.2752Z" fill="white"/>
</g>
<path d="M59.56 14.36C59.275 13.715 58.855 13.43 58.375 13.43V13.25H60.955V13.43C60.265 13.43 60.19 13.82 60.43 14.36L62.515 19.025L64.6 14.36C64.84 13.835 64.78 13.43 64.09 13.43V13.25H65.98V13.43C65.53 13.43 65.08 13.715 64.795 14.36L62.26 20H62.08L59.56 14.36Z" fill="white"/>
<mask id="mask5_100_112" style="mask-type:luminance" maskUnits="userSpaceOnUse" x="57" y="12" width="11" height="9">
<path d="M67.1504 12H57.1504V21H67.1504V12Z" fill="white"/>
<path d="M59.56 14.36C59.275 13.715 58.855 13.43 58.375 13.43V13.25H60.955V13.43C60.265 13.43 60.19 13.82 60.43 14.36L62.515 19.025L64.6 14.36C64.84 13.835 64.78 13.43 64.09 13.43V13.25H65.98V13.43C65.53 13.43 65.08 13.715 64.795 14.36L62.26 20H62.08L59.56 14.36Z" fill="white"/>
</mask>
<g mask="url(#mask5_100_112)">
<path d="M59.5604 14.3599L59.0116 14.6024L59.0126 14.6047L59.5604 14.3599ZM58.3754 13.4299H57.7754V14.0299H58.3754V13.4299ZM58.3754 13.2499V12.6499H57.7754V13.2499H58.3754ZM60.9554 13.2499H61.5554V12.6499H60.9554V13.2499ZM60.9554 13.4299V14.0299H61.5554V13.4299H60.9554ZM60.4304 14.3599L59.8821 14.6036L59.8826 14.6047L60.4304 14.3599ZM62.5154 19.0249L61.9676 19.2697L62.5154 20.4953L63.0632 19.2697L62.5154 19.0249ZM64.6004 14.3599L64.0547 14.1104L64.0526 14.1151L64.6004 14.3599ZM64.0904 13.4299H63.4904V14.0299H64.0904V13.4299ZM64.0904 13.2499V12.6499H63.4904V13.2499H64.0904ZM65.9804 13.2499H66.5804V12.6499H65.9804V13.2499ZM65.9804 13.4299V14.0299H66.5804V13.4299H65.9804ZM64.7954 14.3599L65.3427 14.6059L65.3442 14.6024L64.7954 14.3599ZM62.2604 19.9999V20.5999H62.6485L62.8077 20.2459L62.2604 19.9999ZM62.0804 19.9999L61.5326 20.2447L61.6913 20.5999H62.0804V19.9999ZM59.5604 14.3599L60.1092 14.1174C59.7569 13.32 59.1567 12.8299 58.3754 12.8299V13.4299V14.0299C58.5541 14.0299 58.7939 14.1098 59.0116 14.6024L59.5604 14.3599ZM58.3754 13.4299H58.9754V13.2499H58.3754H57.7754V13.4299H58.3754ZM58.3754 13.2499V13.8499H60.9554V13.2499V12.6499H58.3754V13.2499ZM60.9554 13.2499H60.3554V13.4299H60.9554H61.5554V13.2499H60.9554ZM60.9554 13.4299V12.8299C60.5343 12.8299 60.0224 12.9503 59.7979 13.4441C59.608 13.862 59.7522 14.3113 59.8821 14.6036L60.4304 14.3599L60.9787 14.1162C60.9563 14.0659 60.9398 14.0222 60.9282 13.9852C60.9165 13.9479 60.9108 13.9207 60.9082 13.9026C60.9025 13.8626 60.9146 13.8873 60.8904 13.9407C60.8777 13.9684 60.8592 13.9946 60.8372 14.0157C60.8158 14.0361 60.7985 14.0447 60.7941 14.0467C60.7906 14.0483 60.7996 14.0437 60.8273 14.0389C60.855 14.0341 60.8966 14.0299 60.9554 14.0299V13.4299ZM60.4304 14.3599L59.8826 14.6047L61.9676 19.2697L62.5154 19.0249L63.0632 18.7801L60.9782 14.1151L60.4304 14.3599ZM62.5154 19.0249L63.0632 19.2697L65.1482 14.6047L64.6004 14.3599L64.0526 14.1151L61.9676 18.7801L62.5154 19.0249ZM64.6004 14.3599L65.1461 14.6094C65.2769 14.3232 65.4241 13.8798 65.2459 13.4624C65.0314 12.9599 64.5198 12.8299 64.0904 12.8299V13.4299V14.0299C64.1481 14.0299 64.1882 14.0342 64.2139 14.0388C64.2398 14.0435 64.2467 14.0477 64.2411 14.0451C64.2346 14.042 64.216 14.032 64.1942 14.0102C64.1718 13.9878 64.154 13.9609 64.1423 13.9336C64.1202 13.8819 64.1325 13.8599 64.1261 13.9011C64.1232 13.9196 64.1171 13.9468 64.1052 13.9833C64.0934 14.0196 64.0769 14.062 64.0547 14.1104L64.6004 14.3599ZM64.0904 13.4299H64.6904V13.2499H64.0904H63.4904V13.4299H64.0904ZM64.0904 13.2499V13.8499H65.9804V13.2499V12.6499H64.0904V13.2499ZM65.9804 13.2499H65.3804V13.4299H65.9804H66.5804V13.2499H65.9804ZM65.9804 13.4299V12.8299C65.2367 12.8299 64.6027 13.3115 64.2466 14.1174L64.7954 14.3599L65.3442 14.6024C65.5581 14.1183 65.8241 14.0299 65.9804 14.0299V13.4299ZM64.7954 14.3599L64.2481 14.1139L61.7131 19.7539L62.2604 19.9999L62.8077 20.2459L65.3427 14.6059L64.7954 14.3599ZM62.2604 19.9999V19.3999H62.0804V19.9999V20.5999H62.2604V19.9999ZM62.0804 19.9999L62.6282 19.7551L60.1082 14.1151L59.5604 14.3599L59.0126 14.6047L61.5326 20.2447L62.0804 19.9999Z" fill="white"/>
</g>
<path d="M54.3204 15.6798C54.3204 14.2848 53.5704 13.3848 51.9804 13.3848C50.9904 13.3848 50.1054 13.7448 49.6254 14.0598V19.0248C49.6254 19.6398 49.8804 19.8198 50.4954 19.8198V19.9998H47.9004V19.8198C48.5154 19.8198 48.7704 19.6398 48.7704 19.0248V14.5248C48.7704 13.9098 48.5154 13.7298 47.9004 13.7298V13.5498L49.6254 13.0098V13.9098C50.2104 13.5648 51.4254 13.0098 52.4604 13.0098C54.4104 13.0098 55.1754 13.9698 55.1754 15.6798V19.0248C55.1754 19.6398 55.4304 19.8198 56.0454 19.8198V19.9998H53.4504V19.8198C54.0654 19.8198 54.3204 19.6398 54.3204 19.0248V15.6798Z" fill="white"/>
<mask id="mask6_100_112" style="mask-type:luminance" maskUnits="userSpaceOnUse" x="47" y="12" width="11" height="9">
<path d="M57.1504 12H47.1504V21H57.1504V12Z" fill="white"/>
<path d="M54.3204 15.6798C54.3204 14.2848 53.5704 13.3848 51.9804 13.3848C50.9904 13.3848 50.1054 13.7448 49.6254 14.0598V19.0248C49.6254 19.6398 49.8804 19.8198 50.4954 19.8198V19.9998H47.9004V19.8198C48.5154 19.8198 48.7704 19.6398 48.7704 19.0248V14.5248C48.7704 13.9098 48.5154 13.7298 47.9004 13.7298V13.5498L49.6254 13.0098V13.9098C50.2104 13.5648 51.4254 13.0098 52.4604 13.0098C54.4104 13.0098 55.1754 13.9698 55.1754 15.6798V19.0248C55.1754 19.6398 55.4304 19.8198 56.0454 19.8198V19.9998H53.4504V19.8198C54.0654 19.8198 54.3204 19.6398 54.3204 19.0248V15.6798Z" fill="white"/>
</mask>
<g mask="url(#mask6_100_112)">
<path d="M49.6258 14.0599L49.2966 13.5583L49.0258 13.736V14.0599H49.6258ZM50.4958 19.8199H51.0958V19.2199H50.4958V19.8199ZM50.4958 19.9999V20.5999H51.0958V19.9999H50.4958ZM47.9008 19.9999H47.3008V20.5999H47.9008V19.9999ZM47.9008 19.8199V19.2199H47.3008V19.8199H47.9008ZM47.9008 13.7299H47.3008V14.3299H47.9008V13.7299ZM47.9008 13.5499L47.7215 12.9773L47.3008 13.109V13.5499H47.9008ZM49.6258 13.0099H50.2258V12.1934L49.4465 12.4373L49.6258 13.0099ZM49.6258 13.9099H49.0258V14.9603L49.9306 14.4267L49.6258 13.9099ZM56.0458 19.8199H56.6458V19.2199H56.0458V19.8199ZM56.0458 19.9999V20.5999H56.6458V19.9999H56.0458ZM53.4508 19.9999H52.8508V20.5999H53.4508V19.9999ZM53.4508 19.8199V19.2199H52.8508V19.8199H53.4508ZM54.3208 15.6799H54.9208C54.9208 14.8797 54.7047 14.1365 54.1783 13.5922C53.6483 13.0441 52.8881 12.7849 51.9808 12.7849V13.3849V13.9849C52.6635 13.9849 53.0733 14.1757 53.3157 14.4264C53.5618 14.6808 53.7208 15.0851 53.7208 15.6799H54.3208ZM51.9808 13.3849V12.7849C50.8586 12.7849 49.8608 13.188 49.2966 13.5583L49.6258 14.0599L49.955 14.5615C50.3507 14.3018 51.123 13.9849 51.9808 13.9849V13.3849ZM49.6258 14.0599H49.0258V19.0249H49.6258H50.2258V14.0599H49.6258ZM49.6258 19.0249H49.0258C49.0258 19.393 49.0985 19.8129 49.4372 20.1064C49.7524 20.3796 50.1644 20.4199 50.4958 20.4199V19.8199V19.2199C50.3669 19.2199 50.2874 19.21 50.2404 19.1987C50.1968 19.1883 50.2025 19.1817 50.2231 19.1996C50.2473 19.2206 50.251 19.2389 50.246 19.2235C50.2385 19.2004 50.2258 19.1418 50.2258 19.0249H49.6258ZM50.4958 19.8199H49.8958V19.9999H50.4958H51.0958V19.8199H50.4958ZM50.4958 19.9999V19.3999H47.9008V19.9999V20.5999H50.4958V19.9999ZM47.9008 19.9999H48.5008V19.8199H47.9008H47.3008V19.9999H47.9008ZM47.9008 19.8199V20.4199C48.2322 20.4199 48.6442 20.3796 48.9594 20.1064C49.298 19.8129 49.3708 19.393 49.3708 19.0249H48.7708H48.1708C48.1708 19.1418 48.1581 19.2004 48.1506 19.2235C48.1456 19.2389 48.1493 19.2206 48.1735 19.1996C48.1941 19.1817 48.1998 19.1883 48.1562 19.1987C48.1092 19.21 48.0296 19.2199 47.9008 19.2199V19.8199ZM48.7708 19.0249H49.3708V14.5249H48.7708H48.1708V19.0249H48.7708ZM48.7708 14.5249H49.3708C49.3708 14.1568 49.298 13.7369 48.9594 13.4434C48.6442 13.1702 48.2322 13.1299 47.9008 13.1299V13.7299V14.3299C48.0296 14.3299 48.1092 14.3398 48.1562 14.3511C48.1998 14.3615 48.1941 14.3681 48.1735 14.3502C48.1493 14.3292 48.1456 14.3109 48.1506 14.3263C48.1581 14.3494 48.1708 14.408 48.1708 14.5249H48.7708ZM47.9008 13.7299H48.5008V13.5499H47.9008H47.3008V13.7299H47.9008ZM47.9008 13.5499L48.08 14.1225L49.805 13.5825L49.6258 13.0099L49.4465 12.4373L47.7215 12.9773L47.9008 13.5499ZM49.6258 13.0099H49.0258V13.9099H49.6258H50.2258V13.0099H49.6258ZM49.6258 13.9099L49.9306 14.4267C50.4873 14.0984 51.5887 13.6099 52.4608 13.6099V13.0099V12.4099C51.2629 12.4099 49.9343 13.0314 49.321 13.3931L49.6258 13.9099ZM52.4608 13.0099V13.6099C53.3461 13.6099 53.8371 13.8275 54.1164 14.1189C54.4003 14.415 54.5758 14.9016 54.5758 15.6799H55.1758H55.7758C55.7758 14.7482 55.5688 13.8998 54.9827 13.2884C54.392 12.6723 53.5255 12.4099 52.4608 12.4099V13.0099ZM55.1758 15.6799H54.5758V19.0249H55.1758H55.7758V15.6799H55.1758ZM55.1758 19.0249H54.5758C54.5758 19.393 54.6485 19.8129 54.9872 20.1064C55.3024 20.3796 55.7144 20.4199 56.0458 20.4199V19.8199V19.2199C55.9169 19.2199 55.8374 19.21 55.7904 19.1987C55.7468 19.1883 55.7525 19.1817 55.7731 19.1996C55.7973 19.2206 55.801 19.2389 55.796 19.2235C55.7885 19.2004 55.7758 19.1418 55.7758 19.0249H55.1758ZM56.0458 19.8199H55.4458V19.9999H56.0458H56.6458V19.8199H56.0458ZM56.0458 19.9999V19.3999H53.4508V19.9999V20.5999H56.0458V19.9999ZM53.4508 19.9999H54.0508V19.8199H53.4508H52.8508V19.9999H53.4508ZM53.4508 19.8199V20.4199C53.7822 20.4199 54.1942 20.3796 54.5094 20.1064C54.848 19.8129 54.9208 19.393 54.9208 19.0249H54.3208H53.7208C53.7208 19.1418 53.7081 19.2004 53.7006 19.2235C53.6956 19.2389 53.6993 19.2206 53.7235 19.1996C53.7441 19.1817 53.7498 19.1883 53.7062 19.1987C53.6592 19.21 53.5796 19.2199 53.4508 19.2199V19.8199ZM54.3208 19.0249H54.9208V15.6799H54.3208H53.7208V19.0249H54.3208Z" fill="white"/>
</g>
<path d="M42.7704 14.5248C42.7704 13.9098 42.5154 13.7298 41.9004 13.7298V13.5498L43.6254 13.0098V19.0248C43.6254 19.6398 43.8804 19.8198 44.4954 19.8198V19.9998H41.9004V19.8198C42.5154 19.8198 42.7704 19.6398 42.7704 19.0248V14.5248ZM42.3504 11.5398C42.3504 11.1348 42.6654 10.8198 43.0704 10.8198C43.4604 10.8198 43.7904 11.1348 43.7904 11.5398C43.7904 11.9448 43.4604 12.2748 43.0704 12.2748C42.6654 12.2748 42.3504 11.9448 42.3504 11.5398Z" fill="white"/>
<mask id="mask7_100_112" style="mask-type:luminance" maskUnits="userSpaceOnUse" x="41" y="10" width="5" height="11">
<path d="M45.1504 10H41.1504V21H45.1504V10Z" fill="white"/>
<path d="M42.7704 14.5248C42.7704 13.9098 42.5154 13.7298 41.9004 13.7298V13.5498L43.6254 13.0098V19.0248C43.6254 19.6398 43.8804 19.8198 44.4954 19.8198V19.9998H41.9004V19.8198C42.5154 19.8198 42.7704 19.6398 42.7704 19.0248V14.5248ZM42.3504 11.5398C42.3504 11.1348 42.6654 10.8198 43.0704 10.8198C43.4604 10.8198 43.7904 11.1348 43.7904 11.5398C43.7904 11.9448 43.4604 12.2748 43.0704 12.2748C42.6654 12.2748 42.3504 11.9448 42.3504 11.5398Z" fill="white"/>
</mask>
<g mask="url(#mask7_100_112)">
<path d="M41.9008 13.7302H41.3008V14.3302H41.9008V13.7302ZM41.9008 13.5502L41.7215 12.9776L41.3008 13.1093V13.5502H41.9008ZM43.6258 13.0102H44.2258V12.1937L43.4465 12.4376L43.6258 13.0102ZM44.4958 19.8202H45.0958V19.2202H44.4958V19.8202ZM44.4958 20.0002V20.6002H45.0958V20.0002H44.4958ZM41.9008 20.0002H41.3008V20.6002H41.9008V20.0002ZM41.9008 19.8202V19.2202H41.3008V19.8202H41.9008ZM42.7708 14.5252H43.3708C43.3708 14.1571 43.298 13.7372 42.9594 13.4437C42.6442 13.1705 42.2322 13.1302 41.9008 13.1302V13.7302V14.3302C42.0296 14.3302 42.1092 14.3401 42.1562 14.3514C42.1998 14.3618 42.1941 14.3684 42.1735 14.3505C42.1493 14.3295 42.1456 14.3112 42.1506 14.3266C42.1581 14.3497 42.1708 14.4083 42.1708 14.5252H42.7708ZM41.9008 13.7302H42.5008V13.5502H41.9008H41.3008V13.7302H41.9008ZM41.9008 13.5502L42.08 14.1228L43.805 13.5828L43.6258 13.0102L43.4465 12.4376L41.7215 12.9776L41.9008 13.5502ZM43.6258 13.0102H43.0258V19.0252H43.6258H44.2258V13.0102H43.6258ZM43.6258 19.0252H43.0258C43.0258 19.3933 43.0985 19.8132 43.4372 20.1067C43.7524 20.3799 44.1644 20.4202 44.4958 20.4202V19.8202V19.2202C44.3669 19.2202 44.2874 19.2103 44.2404 19.199C44.1968 19.1886 44.2025 19.182 44.2231 19.1999C44.2473 19.2209 44.251 19.2392 44.246 19.2238C44.2385 19.2007 44.2258 19.1421 44.2258 19.0252H43.6258ZM44.4958 19.8202H43.8958V20.0002H44.4958H45.0958V19.8202H44.4958ZM44.4958 20.0002V19.4002H41.9008V20.0002V20.6002H44.4958V20.0002ZM41.9008 20.0002H42.5008V19.8202H41.9008H41.3008V20.0002H41.9008ZM41.9008 19.8202V20.4202C42.2322 20.4202 42.6442 20.3799 42.9594 20.1067C43.298 19.8132 43.3708 19.3933 43.3708 19.0252H42.7708H42.1708C42.1708 19.1421 42.1581 19.2007 42.1506 19.2238C42.1456 19.2392 42.1493 19.2209 42.1735 19.1999C42.1941 19.182 42.1998 19.1886 42.1562 19.199C42.1092 19.2103 42.0296 19.2202 41.9008 19.2202V19.8202ZM42.7708 19.0252H43.3708V14.5252H42.7708H42.1708V19.0252H42.7708ZM42.3508 11.5402H42.9508C42.9508 11.4971 42.9661 11.4697 42.9832 11.4526C43.0003 11.4355 43.0277 11.4202 43.0708 11.4202V10.8202V10.2202C42.3344 10.2202 41.7508 10.8038 41.7508 11.5402H42.3508ZM43.0708 10.8202V11.4202C43.1376 11.4202 43.1908 11.4747 43.1908 11.5402H43.7908H44.3908C44.3908 10.7957 43.784 10.2202 43.0708 10.2202V10.8202ZM43.7908 11.5402H43.1908C43.1908 11.5768 43.1762 11.6115 43.1498 11.6383C43.1229 11.6656 43.0936 11.6752 43.0708 11.6752V12.2752V12.8752C43.8002 12.8752 44.3908 12.2685 44.3908 11.5402H43.7908ZM43.0708 12.2752V11.6752C43.0364 11.6752 43.0099 11.6627 42.9892 11.6414C42.9676 11.6191 42.9508 11.585 42.9508 11.5402H42.3508H41.7508C41.7508 12.2603 42.3184 12.8752 43.0708 12.8752V12.2752Z" fill="white"/>
</g>
<path d="M25.6512 18.8301C24.5712 18.8301 23.5962 18.4551 22.9362 17.8551C22.6212 18.1401 22.0812 18.6951 22.0812 19.3251C22.0812 20.1651 23.9562 19.8201 25.0962 19.5651C27.2412 19.0851 29.2362 18.2001 29.2362 19.6701C29.2362 21.5451 27.0162 23.2401 24.8562 23.2401C22.5012 23.2401 22.4862 21.5751 22.7712 20.6601C22.0212 20.6301 21.4512 20.3751 21.4512 19.6551C21.4512 18.8601 22.3362 18.0801 22.8012 17.7201C22.3062 17.2251 22.0212 16.5951 22.0212 15.9051C22.0212 14.3151 23.6262 13.0101 25.6512 13.0101C26.1462 13.0101 26.6262 13.0851 27.0612 13.2351C27.1062 12.7101 27.3012 11.8101 28.1862 11.8101C28.5912 11.8101 28.8912 11.9751 29.0562 12.1551L28.7412 12.9501C28.6362 12.7701 28.4562 12.5451 28.0512 12.5451C27.6312 12.5451 27.2862 12.7701 27.1962 13.2951C28.3962 13.7451 29.2362 14.7351 29.2362 15.9051C29.2362 17.5101 27.6312 18.8301 25.6512 18.8301ZM22.9212 15.5001C22.9212 17.4201 24.3762 18.5901 25.9062 18.5901C27.5412 18.5901 28.3362 17.7351 28.3362 16.2951C28.3362 14.3901 26.9412 13.2501 25.3962 13.2501C23.7912 13.2501 22.9212 14.0751 22.9212 15.5001ZM22.9812 20.6751C22.8312 21.4701 23.3412 22.6851 25.4712 22.6851C26.9412 22.6851 28.7562 21.7101 28.7562 20.4501C28.7562 19.1901 26.7462 20.0751 25.0962 20.4051C24.4662 20.5401 23.6712 20.6751 22.9812 20.6751Z" fill="white"/>
<mask id="mask8_100_112" style="mask-type:luminance" maskUnits="userSpaceOnUse" x="20" y="11" width="11" height="13">
<path d="M30.1504 11H20.1504V24H30.1504V11Z" fill="white"/>
<path d="M25.6512 18.8301C24.5712 18.8301 23.5962 18.4551 22.9362 17.8551C22.6212 18.1401 22.0812 18.6951 22.0812 19.3251C22.0812 20.1651 23.9562 19.8201 25.0962 19.5651C27.2412 19.0851 29.2362 18.2001 29.2362 19.6701C29.2362 21.5451 27.0162 23.2401 24.8562 23.2401C22.5012 23.2401 22.4862 21.5751 22.7712 20.6601C22.0212 20.6301 21.4512 20.3751 21.4512 19.6551C21.4512 18.8601 22.3362 18.0801 22.8012 17.7201C22.3062 17.2251 22.0212 16.5951 22.0212 15.9051C22.0212 14.3151 23.6262 13.0101 25.6512 13.0101C26.1462 13.0101 26.6262 13.0851 27.0612 13.2351C27.1062 12.7101 27.3012 11.8101 28.1862 11.8101C28.5912 11.8101 28.8912 11.9751 29.0562 12.1551L28.7412 12.9501C28.6362 12.7701 28.4562 12.5451 28.0512 12.5451C27.6312 12.5451 27.2862 12.7701 27.1962 13.2951C28.3962 13.7451 29.2362 14.7351 29.2362 15.9051C29.2362 17.5101 27.6312 18.8301 25.6512 18.8301ZM22.9212 15.5001C22.9212 17.4201 24.3762 18.5901 25.9062 18.5901C27.5412 18.5901 28.3362 17.7351 28.3362 16.2951C28.3362 14.3901 26.9412 13.2501 25.3962 13.2501C23.7912 13.2501 22.9212 14.0751 22.9212 15.5001ZM22.9812 20.6751C22.8312 21.4701 23.3412 22.6851 25.4712 22.6851C26.9412 22.6851 28.7562 21.7101 28.7562 20.4501C28.7562 19.1901 26.7462 20.0751 25.0962 20.4051C24.4662 20.5401 23.6712 20.6751 22.9812 20.6751Z" fill="white"/>
</mask>
<g mask="url(#mask8_100_112)">
<path d="M22.9346 17.855L23.3382 17.411L22.9356 17.045L22.532 17.4101L22.9346 17.855ZM22.7696 20.66L23.3424 20.8384L23.575 20.0917L22.7936 20.0605L22.7696 20.66ZM22.7996 17.72L23.1669 18.1944L23.7055 17.7774L23.2239 17.2957L22.7996 17.72ZM27.0596 13.235L26.864 13.8022L27.5917 14.0531L27.6574 13.2862L27.0596 13.235ZM29.0546 12.155L29.6124 12.376L29.7508 12.0266L29.4969 11.7496L29.0546 12.155ZM28.7396 12.95L28.2213 13.2523L28.843 14.318L29.2974 13.171L28.7396 12.95ZM27.1946 13.295L26.6032 13.1936L26.5194 13.6826L26.9839 13.8568L27.1946 13.295ZM22.9796 20.675V20.075H22.4822L22.39 20.5638L22.9796 20.675ZM25.0946 20.405L24.9769 19.8166L24.9689 19.8183L25.0946 20.405ZM25.6496 18.83V18.23C24.7029 18.23 23.8765 17.9004 23.3382 17.411L22.9346 17.855L22.531 18.299C23.3127 19.0096 24.4363 19.43 25.6496 19.43V18.83ZM22.9346 17.855L22.532 17.4101C22.3606 17.5652 22.1077 17.8113 21.8949 18.1202C21.6851 18.4248 21.4796 18.8403 21.4796 19.325H22.0796H22.6796C22.6796 19.1797 22.7441 19.0027 22.8831 18.801C23.019 18.6037 23.1936 18.4298 23.3371 18.2999L22.9346 17.855ZM22.0796 19.325H21.4796C21.4796 19.5495 21.5451 19.7661 21.6845 19.9498C21.8184 20.1261 21.9929 20.2362 22.1568 20.3054C22.4694 20.4375 22.8426 20.4626 23.1725 20.4555C23.8499 20.4409 24.6563 20.2779 25.2256 20.1505L25.0946 19.565L24.9636 18.9795C24.3929 19.1071 23.6917 19.2441 23.1467 19.2558C22.8653 19.2618 22.6985 19.2316 22.6239 19.2C22.5942 19.1875 22.6134 19.1887 22.6403 19.2241C22.6727 19.2669 22.6796 19.3105 22.6796 19.325H22.0796ZM25.0946 19.565L25.2256 20.1505C25.7755 20.0275 26.3199 19.8775 26.7979 19.7528C27.2888 19.6247 27.7045 19.5247 28.0446 19.4815C28.4077 19.4353 28.563 19.4722 28.6096 19.4967C28.6156 19.4999 28.615 19.5005 28.6119 19.4974C28.6086 19.4941 28.6081 19.4923 28.6098 19.4957C28.614 19.5039 28.6346 19.551 28.6346 19.67H29.2346H29.8346C29.8346 19.1516 29.6429 18.6849 29.1691 18.4352C28.7746 18.2272 28.2971 18.2397 27.8933 18.291C27.4666 18.3453 26.9813 18.4647 26.4949 18.5916C25.9955 18.7219 25.4862 18.8625 24.9636 18.9795L25.0946 19.565ZM29.2346 19.67H28.6346C28.6346 20.3665 28.2157 21.1025 27.4804 21.6891C26.7511 22.2709 25.7857 22.64 24.8546 22.64V23.24V23.84C26.0835 23.84 27.3081 23.3616 28.2288 22.6272C29.1435 21.8975 29.8346 20.8485 29.8346 19.67H29.2346ZM24.8546 23.24V22.64C23.8286 22.64 23.4912 22.2925 23.3599 22.0271C23.1948 21.6934 23.2216 21.2263 23.3424 20.8384L22.7696 20.66L22.1967 20.4816C22.0326 21.0087 21.9244 21.8316 22.2843 22.5592C22.678 23.355 23.5256 23.84 24.8546 23.84V23.24ZM22.7696 20.66L22.7936 20.0605C22.4623 20.0472 22.2627 19.9847 22.1612 19.917C22.1181 19.8883 22.0966 19.8615 22.083 19.8353C22.0688 19.808 22.0496 19.7545 22.0496 19.655H21.4496H20.8496C20.8496 20.2037 21.0827 20.6403 21.4955 20.9155C21.8664 21.1628 22.3268 21.2428 22.7456 21.2595L22.7696 20.66ZM21.4496 19.655H22.0496C22.0496 19.4684 22.1625 19.2106 22.4134 18.9057C22.6519 18.616 22.9498 18.3625 23.1669 18.1944L22.7996 17.72L22.4323 17.2456C22.1844 17.4375 21.8072 17.754 21.487 18.143C21.1792 18.5169 20.8496 19.0466 20.8496 19.655H21.4496ZM22.7996 17.72L23.2239 17.2957C22.8301 16.9019 22.6196 16.4205 22.6196 15.905H22.0196H21.4196C21.4196 16.7695 21.7791 17.5481 22.3753 18.1443L22.7996 17.72ZM22.0196 15.905H22.6196C22.6196 14.763 23.8258 13.61 25.6496 13.61V13.01V12.41C23.4233 12.41 21.4196 13.867 21.4196 15.905H22.0196ZM25.6496 13.01V13.61C26.0852 13.61 26.4984 13.6761 26.864 13.8022L27.0596 13.235L27.2552 12.6678C26.7508 12.4939 26.204 12.41 25.6496 12.41V13.01ZM27.0596 13.235L27.6574 13.2862C27.6775 13.0516 27.7282 12.7991 27.8289 12.6219C27.8753 12.5401 27.9228 12.4916 27.9671 12.4629C28.0071 12.4372 28.0708 12.41 28.1846 12.41V11.81V11.21C27.4853 11.21 27.0351 11.5894 26.7853 12.0294C26.5559 12.4334 26.4867 12.8934 26.4618 13.1838L27.0596 13.235ZM28.1846 11.81V12.41C28.4244 12.41 28.5629 12.5066 28.6123 12.5604L29.0546 12.155L29.4969 11.7496C29.2163 11.4434 28.7548 11.21 28.1846 11.21V11.81ZM29.0546 12.155L28.4968 11.934L28.1818 12.729L28.7396 12.95L29.2974 13.171L29.6124 12.376L29.0546 12.155ZM28.7396 12.95L29.2579 12.6477C29.1865 12.5253 29.0647 12.343 28.859 12.194C28.6434 12.0379 28.3729 11.945 28.0496 11.945V12.545V13.145C28.0945 13.145 28.1202 13.1511 28.1323 13.155C28.144 13.1587 28.1505 13.1626 28.1552 13.166C28.167 13.1745 28.1877 13.1947 28.2213 13.2523L28.7396 12.95ZM28.0496 12.545V11.945C27.7333 11.945 27.3991 12.0307 27.12 12.2575C26.8372 12.4872 26.668 12.8156 26.6032 13.1936L27.1946 13.295L27.786 13.3964C27.8112 13.2494 27.8595 13.2028 27.8767 13.1888C27.8976 13.1718 27.9458 13.145 28.0496 13.145V12.545ZM27.1946 13.295L26.9839 13.8568C28.0154 14.2436 28.6346 15.0486 28.6346 15.905H29.2346H29.8346C29.8346 14.4214 28.7738 13.2464 27.4053 12.7332L27.1946 13.295ZM29.2346 15.905H28.6346C28.6346 17.0715 27.4166 18.23 25.6496 18.23V18.83V19.43C27.8426 19.43 29.8346 17.9485 29.8346 15.905H29.2346ZM22.9196 15.5H22.3196C22.3196 17.7745 24.0669 19.19 25.9046 19.19V18.59V17.99C24.6823 17.99 23.5196 17.0655 23.5196 15.5H22.9196ZM25.9046 18.59V19.19C26.8216 19.19 27.6016 18.9493 28.152 18.4117C28.7043 17.8722 28.9346 17.1225 28.9346 16.295H28.3346H27.7346C27.7346 16.9075 27.5673 17.3053 27.3135 17.5533C27.0576 17.8032 26.6226 17.99 25.9046 17.99V18.59ZM28.3346 16.295H28.9346C28.9346 14.0389 27.2509 12.65 25.3946 12.65V13.25V13.85C26.6283 13.85 27.7346 14.7411 27.7346 16.295H28.3346ZM25.3946 13.25V12.65C24.4953 12.65 23.712 12.8815 23.1492 13.3989C22.5788 13.9233 22.3196 14.663 22.3196 15.5H22.9196H23.5196C23.5196 14.912 23.6954 14.5267 23.9613 14.2823C24.2347 14.031 24.6888 13.85 25.3946 13.85V13.25ZM22.9796 20.675L22.39 20.5638C22.2833 21.1292 22.4125 21.8302 22.9303 22.3868C23.4518 22.9475 24.2936 23.285 25.4696 23.285V22.685V22.085C24.5156 22.085 24.0373 21.815 23.8089 21.5695C23.5766 21.3198 23.5259 21.0158 23.5692 20.7862L22.9796 20.675ZM25.4696 22.685V23.285C26.3224 23.285 27.2538 23.0067 27.9829 22.5478C28.6934 22.1006 29.3546 21.3829 29.3546 20.45H28.7546H28.1546C28.1546 20.7771 27.9083 21.1769 27.3437 21.5322C26.7978 21.8758 26.0867 22.085 25.4696 22.085V22.685ZM28.7546 20.45H29.3546C29.3546 20.2146 29.3076 19.9748 29.1777 19.7612C29.0443 19.5415 28.8521 19.397 28.6451 19.311C28.269 19.1546 27.8239 19.1831 27.4554 19.2377C27.064 19.2957 26.6276 19.4064 26.2111 19.5151C25.7821 19.627 25.368 19.7383 24.9769 19.8166L25.0946 20.405L25.2123 20.9933C25.6461 20.9066 26.1021 20.7837 26.514 20.6762C26.9384 20.5655 27.3139 20.4718 27.6313 20.4248C27.9715 20.3744 28.132 20.3973 28.1844 20.419C28.1916 20.422 28.1694 20.4125 28.1523 20.3844C28.1388 20.3622 28.1546 20.3704 28.1546 20.45H28.7546ZM25.0946 20.405L24.9689 19.8183C24.3505 19.9508 23.6051 20.075 22.9796 20.075V20.675V21.275C23.7341 21.275 24.5787 21.1292 25.2203 20.9917L25.0946 20.405Z" fill="white"/>
</g>
<path d="M12.475 17.57C12.475 18.965 13.225 19.865 14.815 19.865C15.805 19.865 16.69 19.505 17.17 19.19V14.765C17.17 14.15 16.915 13.97 16.3 13.97V13.79L18.025 13.25V18.485C18.025 19.1 18.28 19.28 18.895 19.28V19.46L17.17 20V19.34C16.585 19.685 15.37 20.24 14.335 20.24C12.385 20.24 11.62 19.28 11.62 17.57V14.765C11.62 14.15 11.365 13.97 10.75 13.97V13.79L12.475 13.25V17.57Z" fill="white"/>
<mask id="mask9_100_112" style="mask-type:luminance" maskUnits="userSpaceOnUse" x="10" y="12" width="11" height="9">
<path d="M20.1504 12H10.1504V21H20.1504V12Z" fill="white"/>
<path d="M12.475 17.57C12.475 18.965 13.225 19.865 14.815 19.865C15.805 19.865 16.69 19.505 17.17 19.19V14.765C17.17 14.15 16.915 13.97 16.3 13.97V13.79L18.025 13.25V18.485C18.025 19.1 18.28 19.28 18.895 19.28V19.46L17.17 20V19.34C16.585 19.685 15.37 20.24 14.335 20.24C12.385 20.24 11.62 19.28 11.62 17.57V14.765C11.62 14.15 11.365 13.97 10.75 13.97V13.79L12.475 13.25V17.57Z" fill="white"/>
</mask>
<g mask="url(#mask9_100_112)">
<path d="M17.1704 19.1901L17.4996 19.6917L17.7704 19.514V19.1901H17.1704ZM16.3004 13.9701H15.7004V14.5701H16.3004V13.9701ZM16.3004 13.7901L16.1211 13.2175L15.7004 13.3492V13.7901H16.3004ZM18.0254 13.2501H18.6254V12.4336L17.8461 12.6775L18.0254 13.2501ZM18.8954 19.2801H19.4954V18.6801H18.8954V19.2801ZM18.8954 19.4601L19.0746 20.0327L19.4954 19.901V19.4601H18.8954ZM17.1704 20.0001H16.5704V20.8166L17.3496 20.5727L17.1704 20.0001ZM17.1704 19.3401H17.7704V18.2897L16.8656 18.8233L17.1704 19.3401ZM10.7504 13.9701H10.1504V14.5701H10.7504V13.9701ZM10.7504 13.7901L10.5711 13.2175L10.1504 13.3492V13.7901H10.7504ZM12.4754 13.2501H13.0754V12.4336L12.2961 12.6775L12.4754 13.2501ZM12.4754 17.5701H11.8754C11.8754 18.3703 12.0914 19.1135 12.6178 19.6578C13.1479 20.2059 13.9081 20.4651 14.8154 20.4651V19.8651V19.2651C14.1327 19.2651 13.7229 19.0743 13.4804 18.8236C13.2343 18.5692 13.0754 18.1649 13.0754 17.5701H12.4754ZM14.8154 19.8651V20.4651C15.9376 20.4651 16.9353 20.062 17.4996 19.6917L17.1704 19.1901L16.8412 18.6885C16.4454 18.9482 15.6732 19.2651 14.8154 19.2651V19.8651ZM17.1704 19.1901H17.7704V14.7651H17.1704H16.5704V19.1901H17.1704ZM17.1704 14.7651H17.7704C17.7704 14.397 17.6976 13.9771 17.359 13.6836C17.0438 13.4104 16.6318 13.3701 16.3004 13.3701V13.9701V14.5701C16.4292 14.5701 16.5088 14.58 16.5558 14.5913C16.5994 14.6017 16.5937 14.6083 16.5731 14.5904C16.5489 14.5694 16.5452 14.5511 16.5502 14.5665C16.5577 14.5896 16.5704 14.6482 16.5704 14.7651H17.1704ZM16.3004 13.9701H16.9004V13.7901H16.3004H15.7004V13.9701H16.3004ZM16.3004 13.7901L16.4796 14.3627L18.2046 13.8227L18.0254 13.2501L17.8461 12.6775L16.1211 13.2175L16.3004 13.7901ZM18.0254 13.2501H17.4254V18.4851H18.0254H18.6254V13.2501H18.0254ZM18.0254 18.4851H17.4254C17.4254 18.8532 17.4981 19.2731 17.8368 19.5666C18.152 19.8398 18.564 19.8801 18.8954 19.8801V19.2801V18.6801C18.7665 18.6801 18.687 18.6702 18.64 18.6589C18.5964 18.6485 18.6021 18.6419 18.6227 18.6598C18.6469 18.6808 18.6506 18.6991 18.6456 18.6837C18.6381 18.6606 18.6254 18.602 18.6254 18.4851H18.0254ZM18.8954 19.2801H18.2954V19.4601H18.8954H19.4954V19.2801H18.8954ZM18.8954 19.4601L18.7161 18.8875L16.9911 19.4275L17.1704 20.0001L17.3496 20.5727L19.0746 20.0327L18.8954 19.4601ZM17.1704 20.0001H17.7704V19.3401H17.1704H16.5704V20.0001H17.1704ZM17.1704 19.3401L16.8656 18.8233C16.3089 19.1516 15.2075 19.6401 14.3354 19.6401V20.2401V20.8401C15.5333 20.8401 16.8619 20.2186 17.4752 19.8569L17.1704 19.3401ZM14.3354 20.2401V19.6401C13.4501 19.6401 12.9591 19.4225 12.6798 19.1311C12.3959 18.835 12.2204 18.3484 12.2204 17.5701H11.6204H11.0204C11.0204 18.5018 11.2274 19.3502 11.8135 19.9616C12.4042 20.5777 13.2707 20.8401 14.3354 20.8401V20.2401ZM11.6204 17.5701H12.2204V14.7651H11.6204H11.0204V17.5701H11.6204ZM11.6204 14.7651H12.2204C12.2204 14.397 12.1476 13.9771 11.809 13.6836C11.4938 13.4104 11.0818 13.3701 10.7504 13.3701V13.9701V14.5701C10.8792 14.5701 10.9588 14.58 11.0058 14.5913C11.0494 14.6017 11.0437 14.6083 11.0231 14.5904C10.9989 14.5694 10.9952 14.5511 11.0002 14.5665C11.0077 14.5896 11.0204 14.6482 11.0204 14.7651H11.6204ZM10.7504 13.9701H11.3504V13.7901H10.7504H10.1504V13.9701H10.7504ZM10.7504 13.7901L10.9296 14.3627L12.6546 13.8227L12.4754 13.2501L12.2961 12.6775L10.5711 13.2175L10.7504 13.7901ZM12.4754 13.2501H11.8754V17.5701H12.4754H13.0754V13.2501H12.4754Z" fill="white"/>
</g>
<path d="M4.21461 20.2398C2.23461 20.2398 0.599609 18.6198 0.599609 16.6098C0.599609 14.6298 2.21961 13.0098 4.21461 13.0098C6.19461 13.0098 7.81461 14.5998 7.81461 16.6098C7.81461 18.5898 6.20961 20.2398 4.21461 20.2398ZM1.49961 16.1298C1.49961 18.4998 2.93961 19.9998 4.46961 19.9998C6.10461 19.9998 6.91461 18.8898 6.91461 17.0898C6.91461 14.7198 5.48961 13.2498 3.95961 13.2498C2.32461 13.2498 1.49961 14.3298 1.49961 16.1298Z" fill="white"/>
<mask id="mask10_100_112" style="mask-type:luminance" maskUnits="userSpaceOnUse" x="-1" y="12" width="11" height="9">
<path d="M9.15039 12H-0.849609V21H9.15039V12Z" fill="white"/>
<path d="M4.21461 20.2398C2.23461 20.2398 0.599609 18.6198 0.599609 16.6098C0.599609 14.6298 2.21961 13.0098 4.21461 13.0098C6.19461 13.0098 7.81461 14.5998 7.81461 16.6098C7.81461 18.5898 6.20961 20.2398 4.21461 20.2398ZM1.49961 16.1298C1.49961 18.4998 2.93961 19.9998 4.46961 19.9998C6.10461 19.9998 6.91461 18.8898 6.91461 17.0898C6.91461 14.7198 5.48961 13.2498 3.95961 13.2498C2.32461 13.2498 1.49961 14.3298 1.49961 16.1298Z" fill="white"/>
</mask>
<g mask="url(#mask10_100_112)">
<path d="M4.215 20.2402V19.6402C2.56637 19.6402 1.2 18.2888 1.2 16.6102H0.6H0C0 18.9516 1.90363 20.8402 4.215 20.8402V20.2402ZM0.6 16.6102H1.2C1.2 14.9632 2.54975 13.6102 4.215 13.6102V13.0102V12.4102C1.89025 12.4102 0 14.2972 0 16.6102H0.6ZM4.215 13.0102V13.6102C5.8669 13.6102 7.215 14.9348 7.215 16.6102H7.815H8.415C8.415 14.2656 6.52311 12.4102 4.215 12.4102V13.0102ZM7.815 16.6102H7.215C7.215 18.267 5.87057 19.6402 4.215 19.6402V20.2402V20.8402C6.54944 20.8402 8.415 18.9134 8.415 16.6102H7.815ZM1.5 16.1302H0.9C0.9 18.7156 2.50352 20.6002 4.47 20.6002V20.0002V19.4002C3.37648 19.4002 2.1 18.2848 2.1 16.1302H1.5ZM4.47 20.0002V20.6002C5.43434 20.6002 6.23123 20.2655 6.77193 19.5978C7.29615 18.9503 7.515 18.069 7.515 17.0902H6.915H6.315C6.315 17.9114 6.12885 18.4851 5.83932 18.8426C5.56627 19.1799 5.14067 19.4002 4.47 19.4002V20.0002ZM6.915 17.0902H7.515C7.515 14.5021 5.92428 12.6502 3.96 12.6502V13.2502V13.8502C5.05572 13.8502 6.315 14.9383 6.315 17.0902H6.915ZM3.96 13.2502V12.6502C3.00141 12.6502 2.20163 12.9733 1.65508 13.6321C1.12364 14.2728 0.9 15.1492 0.9 16.1302H1.5H2.1C2.1 15.3112 2.28887 14.7476 2.57867 14.3983C2.85337 14.0671 3.28359 13.8502 3.96 13.8502V13.2502Z" fill="white"/>
</g>
<path d="M37.1946 15.6798C37.1946 14.0598 36.3396 13.1898 34.9596 13.1898C33.3696 13.1898 32.6196 14.4498 32.2746 15.4398H32.0946L32.2446 13.7598C32.6196 13.5798 33.7146 13.0098 34.9596 13.0098C36.9096 13.0098 38.0496 13.9698 38.0496 15.6798V18.7248C38.0496 19.3398 38.3046 19.5198 38.9196 19.5198V19.6998L37.1946 20.2398V18.0948C36.8496 19.1298 36.0996 20.2398 34.4196 20.2398C32.8446 20.2398 31.5996 19.2798 31.5996 18.0948C31.5996 15.4848 37.0896 15.6948 37.1946 15.6948V15.6798ZM32.3946 17.7498C32.3946 18.9648 33.8346 19.6098 35.0646 19.6098C37.1046 19.6098 37.1946 17.4648 37.1946 16.5798V15.8748C37.0746 15.8748 32.3946 15.6948 32.3946 17.7498Z" fill="white"/>
<mask id="mask11_100_112" style="mask-type:luminance" maskUnits="userSpaceOnUse" x="30" y="12" width="11" height="10">
<path d="M40.1504 12H30.1504V22H40.1504V12Z" fill="white"/>
<path d="M37.1946 15.6798C37.1946 14.0598 36.3396 13.1898 34.9596 13.1898C33.3696 13.1898 32.6196 14.4498 32.2746 15.4398H32.0946L32.2446 13.7598C32.6196 13.5798 33.7146 13.0098 34.9596 13.0098C36.9096 13.0098 38.0496 13.9698 38.0496 15.6798V18.7248C38.0496 19.3398 38.3046 19.5198 38.9196 19.5198V19.6998L37.1946 20.2398V18.0948C36.8496 19.1298 36.0996 20.2398 34.4196 20.2398C32.8446 20.2398 31.5996 19.2798 31.5996 18.0948C31.5996 15.4848 37.0896 15.6948 37.1946 15.6948V15.6798ZM32.3946 17.7498C32.3946 18.9648 33.8346 19.6098 35.0646 19.6098C37.1046 19.6098 37.1946 17.4648 37.1946 16.5798V15.8748C37.0746 15.8748 32.3946 15.6948 32.3946 17.7498Z" fill="white"/>
</mask>
<g mask="url(#mask11_100_112)">
<path d="M32.275 15.4402V16.0402H32.7013L32.8416 15.6376L32.275 15.4402ZM32.095 15.4402L31.4974 15.3868L31.439 16.0402H32.095V15.4402ZM32.245 13.7602L31.9854 13.2193L31.6777 13.367L31.6474 13.7068L32.245 13.7602ZM38.92 19.5202H39.52V18.9202H38.92V19.5202ZM38.92 19.7002L39.0992 20.2728L39.52 20.1411V19.7002H38.92ZM37.195 20.2402H36.595V21.0567L37.3742 20.8128L37.195 20.2402ZM37.195 18.0952H37.795L36.6258 17.9055L37.195 18.0952ZM37.195 15.6952V16.2952H37.795V15.6952H37.195ZM37.195 15.8752H37.795V15.2752H37.195V15.8752ZM37.195 15.6802H37.795C37.795 14.7694 37.554 13.9841 37.0366 13.4216C36.5131 12.8523 35.7794 12.5902 34.96 12.5902V13.1902V13.7902C35.5206 13.7902 35.9044 13.9631 36.1534 14.2338C36.4085 14.5113 36.595 14.971 36.595 15.6802H37.195ZM34.96 13.1902V12.5902C32.9625 12.5902 32.0729 14.1969 31.7084 15.2428L32.275 15.4402L32.8416 15.6376C33.1671 14.7035 33.7775 13.7902 34.96 13.7902V13.1902ZM32.275 15.4402V14.8402H32.095V15.4402V16.0402H32.275V15.4402ZM32.095 15.4402L32.6926 15.4936L32.8426 13.8136L32.245 13.7602L31.6474 13.7068L31.4974 15.3868L32.095 15.4402ZM32.245 13.7602L32.5046 14.3011C32.8992 14.1117 33.873 13.6102 34.96 13.6102V13.0102V12.4102C33.5569 12.4102 32.3408 13.0487 31.9854 13.2193L32.245 13.7602ZM34.96 13.0102V13.6102C35.8444 13.6102 36.4598 13.8283 36.8455 14.1593C37.2178 14.4787 37.45 14.9664 37.45 15.6802H38.05H38.65C38.65 14.684 38.3122 13.8367 37.627 13.2486C36.9552 12.6721 36.0256 12.4102 34.96 12.4102V13.0102ZM38.05 15.6802H37.45V18.7252H38.05H38.65V15.6802H38.05ZM38.05 18.7252H37.45C37.45 19.0933 37.5227 19.5132 37.8614 19.8067C38.1766 20.0799 38.5886 20.1202 38.92 20.1202V19.5202V18.9202C38.7911 18.9202 38.7116 18.9103 38.6646 18.899C38.621 18.8886 38.6267 18.882 38.6473 18.8999C38.6715 18.9209 38.6752 18.9392 38.6702 18.9238C38.6627 18.9007 38.65 18.8421 38.65 18.7252H38.05ZM38.92 19.5202H38.32V19.7002H38.92H39.52V19.5202H38.92ZM38.92 19.7002L38.7407 19.1276L37.0157 19.6676L37.195 20.2402L37.3742 20.8128L39.0992 20.2728L38.92 19.7002ZM37.195 20.2402H37.795V18.0952H37.195H36.595V20.2402H37.195ZM37.195 18.0952L36.6258 17.9055C36.4719 18.3671 36.2414 18.8007 35.9011 19.115C35.5744 19.4167 35.1134 19.6402 34.42 19.6402V20.2402V20.8402C35.4066 20.8402 36.1606 20.5087 36.7152 19.9966C37.2561 19.4972 37.5731 18.8583 37.7642 18.2849L37.195 18.0952ZM34.42 20.2402V19.6402C33.0162 19.6402 32.2 18.8087 32.2 18.0952H31.6H31C31 19.7517 32.6738 20.8402 34.42 20.8402V20.2402ZM31.6 18.0952H32.2C32.2 17.6959 32.3938 17.3864 32.7943 17.1169C33.2141 16.8346 33.8131 16.6357 34.4744 16.5051C35.7897 16.2452 37.1215 16.2952 37.195 16.2952V15.6952V15.0952C37.1956 15.0952 37.1875 15.0948 37.1266 15.0936C37.0781 15.0926 37.0106 15.0916 36.9268 15.0913C36.7595 15.0906 36.5276 15.0927 36.2526 15.1036C35.7053 15.1254 34.9758 15.1828 34.2418 15.3278C33.5175 15.4709 32.7375 15.7089 32.1245 16.1213C31.4925 16.5465 31 17.1895 31 18.0952H31.6ZM37.195 15.6952H37.795V15.6802H37.195H36.595V15.6952H37.195ZM32.395 17.7502H31.795C31.795 18.6321 32.3278 19.265 32.9565 19.6482C33.5788 20.0274 34.3581 20.2102 35.065 20.2102V19.6102V19.0102C34.5419 19.0102 33.9862 18.8705 33.581 18.6235C33.1822 18.3804 32.995 18.0833 32.995 17.7502H32.395ZM35.065 19.6102V20.2102C35.6862 20.2102 36.2016 20.0446 36.6115 19.7463C37.0159 19.452 37.2772 19.0581 37.4464 18.6636C37.7766 17.894 37.795 17.0267 37.795 16.5802H37.195H36.595C36.595 17.0187 36.5684 17.6664 36.3436 18.1905C36.2353 18.4429 36.0916 18.6406 35.9054 18.7761C35.7246 18.9076 35.4638 19.0102 35.065 19.0102V19.6102ZM37.195 16.5802H37.795V15.8752H37.195H36.595V16.5802H37.195ZM37.195 15.8752V15.2752C37.1952 15.2752 37.1864 15.2749 37.1333 15.2738C37.0904 15.2729 37.0312 15.272 36.9582 15.2715C36.8123 15.2705 36.6116 15.2716 36.3743 15.2795C35.9024 15.2953 35.2752 15.3387 34.6444 15.4514C34.0238 15.5624 33.3482 15.7492 32.8129 16.0798C32.2625 16.4197 31.795 16.96 31.795 17.7502H32.395H32.995C32.995 17.5129 33.1125 17.3051 33.4434 17.1008C33.7892 16.8872 34.2912 16.7336 34.8556 16.6327C35.9757 16.4324 37.1125 16.4752 37.195 16.4752V15.8752Z" fill="white"/>
</g>
</g>
<path d="M102.045 15.3117C102.045 13.8537 101.19 13.0707 99.8102 13.0707C98.2202 13.0707 97.4702 14.2047 97.1252 15.0957H96.9452L97.0952 13.5837C97.4702 13.4217 98.5652 12.9087 99.8102 12.9087C101.76 12.9087 102.9 13.7727 102.9 15.3117V18.0522C102.9 18.6057 103.155 18.7677 103.77 18.7677V18.9297L102.045 19.4157V17.4852C101.7 18.4167 100.95 19.4157 99.2702 19.4157C97.6952 19.4157 96.4502 18.5517 96.4502 17.4852C96.4502 15.1362 101.94 15.3252 102.045 15.3252V15.3117ZM97.2452 17.1747C97.2452 18.2682 98.6852 18.8487 99.9152 18.8487C101.955 18.8487 102.045 16.9182 102.045 16.1217V15.4872C101.925 15.4872 97.2452 15.3252 97.2452 17.1747Z" fill="white"/>
<mask id="mask12_100_112" style="mask-type:luminance" maskUnits="userSpaceOnUse" x="95" y="12" width="10" height="9">
<path d="M105 12H95V21H105V12Z" fill="white"/>
<path d="M102.045 15.3117C102.045 13.8537 101.19 13.0707 99.8102 13.0707C98.2202 13.0707 97.4702 14.2047 97.1252 15.0957H96.9452L97.0952 13.5837C97.4702 13.4217 98.5652 12.9087 99.8102 12.9087C101.76 12.9087 102.9 13.7727 102.9 15.3117V18.0522C102.9 18.6057 103.155 18.7677 103.77 18.7677V18.9297L102.045 19.4157V17.4852C101.7 18.4167 100.95 19.4157 99.2702 19.4157C97.6952 19.4157 96.4502 18.5517 96.4502 17.4852C96.4502 15.1362 101.94 15.3252 102.045 15.3252V15.3117ZM97.2452 17.1747C97.2452 18.2682 98.6852 18.8487 99.9152 18.8487C101.955 18.8487 102.045 16.9182 102.045 16.1217V15.4872C101.925 15.4872 97.2452 15.3252 97.2452 17.1747Z" fill="black"/>
</mask>
<g mask="url(#mask12_100_112)">
<path d="M97.1246 15.0961V15.6361H97.5509L97.6912 15.2738L97.1246 15.0961ZM96.9446 15.0961L96.347 15.0481L96.2886 15.6361H96.9446V15.0961ZM97.0946 13.5841L96.835 13.0973L96.5273 13.2303L96.497 13.5361L97.0946 13.5841ZM103.77 18.7681H104.37V18.2281H103.77V18.7681ZM103.77 18.9301L103.949 19.4455L104.37 19.327V18.9301H103.77ZM102.045 19.4161H101.445V20.151L102.224 19.9315L102.045 19.4161ZM102.045 17.4856H102.645L101.475 17.3149L102.045 17.4856ZM102.045 15.3256V15.8656H102.645V15.3256H102.045ZM102.045 15.4876H102.645V14.9476H102.045V15.4876ZM102.045 15.3121H102.645C102.645 14.4924 102.404 13.7857 101.886 13.2794C101.363 12.767 100.629 12.5311 99.8096 12.5311V13.0711V13.6111C100.37 13.6111 100.754 13.7668 101.003 14.0104C101.258 14.2601 101.445 14.6739 101.445 15.3121H102.045ZM99.8096 13.0711V12.5311C97.8121 12.5311 96.9225 13.9772 96.558 14.9185L97.1246 15.0961L97.6912 15.2738C98.0167 14.4331 98.6271 13.6111 99.8096 13.6111V13.0711ZM97.1246 15.0961V14.5561H96.9446V15.0961V15.6361H97.1246V15.0961ZM96.9446 15.0961L97.5422 15.1442L97.6922 13.6322L97.0946 13.5841L96.497 13.5361L96.347 15.0481L96.9446 15.0961ZM97.0946 13.5841L97.3542 14.071C97.7488 13.9005 98.7227 13.4491 99.8096 13.4491V12.9091V12.3691C98.4065 12.3691 97.1904 12.9438 96.835 13.0973L97.0946 13.5841ZM99.8096 12.9091V13.4491C100.694 13.4491 101.309 13.6454 101.695 13.9433C102.067 14.2308 102.3 14.6697 102.3 15.3121H102.9H103.5C103.5 14.4156 103.162 13.653 102.477 13.1237C101.805 12.6049 100.875 12.3691 99.8096 12.3691V12.9091ZM102.9 15.3121H102.3V18.0526H102.9H103.5V15.3121H102.9ZM102.9 18.0526H102.3C102.3 18.3839 102.372 18.7618 102.711 19.026C103.026 19.2719 103.438 19.3081 103.77 19.3081V18.7681V18.2281C103.641 18.2281 103.561 18.2192 103.514 18.2091C103.471 18.1997 103.476 18.1938 103.497 18.2099C103.521 18.2288 103.525 18.2452 103.52 18.2314C103.512 18.2106 103.5 18.1579 103.5 18.0526H102.9ZM103.77 18.7681H103.17V18.9301H103.77H104.37V18.7681H103.77ZM103.77 18.9301L103.59 18.4148L101.865 18.9008L102.045 19.4161L102.224 19.9315L103.949 19.4455L103.77 18.9301ZM102.045 19.4161H102.645V17.4856H102.045H101.445V19.4161H102.045ZM102.045 17.4856L101.475 17.3149C101.322 17.7304 101.091 18.1206 100.751 18.4035C100.424 18.675 99.963 18.8761 99.2696 18.8761V19.4161V19.9561C100.256 19.9561 101.01 19.6578 101.565 19.1969C102.106 18.7474 102.423 18.1724 102.614 17.6564L102.045 17.4856ZM99.2696 19.4161V18.8761C97.8658 18.8761 97.0496 18.1278 97.0496 17.4856H96.4496H95.8496C95.8496 18.9765 97.5234 19.9561 99.2696 19.9561V19.4161ZM96.4496 17.4856H97.0496C97.0496 17.1263 97.2434 16.8477 97.644 16.6052C98.0637 16.3511 98.6627 16.1721 99.324 16.0546C100.639 15.8206 101.971 15.8656 102.045 15.8656V15.3256V14.7856C102.045 14.7856 102.037 14.7853 101.976 14.7842C101.928 14.7833 101.86 14.7824 101.777 14.7821C101.609 14.7815 101.377 14.7834 101.102 14.7932C100.555 14.8128 99.8254 14.8645 99.0914 14.995C98.3671 15.1238 97.5871 15.338 96.9742 15.7091C96.3421 16.0918 95.8496 16.6705 95.8496 17.4856H96.4496ZM102.045 15.3256H102.645V15.3121H102.045H101.445V15.3256H102.045ZM97.2446 17.1751H96.6446C96.6446 17.9689 97.1774 18.5385 97.8061 18.8833C98.4284 19.2246 99.2077 19.3891 99.9146 19.3891V18.8491V18.3091C99.3915 18.3091 98.8358 18.1834 98.4306 17.9611C98.0318 17.7423 97.8446 17.4749 97.8446 17.1751H97.2446ZM99.9146 18.8491V19.3891C100.536 19.3891 101.051 19.2401 101.461 18.9716C101.866 18.7068 102.127 18.3523 102.296 17.9972C102.626 17.3046 102.645 16.524 102.645 16.1221H102.045H101.445C101.445 16.5168 101.418 17.0997 101.193 17.5714C101.085 17.7986 100.941 17.9765 100.755 18.0985C100.574 18.2168 100.313 18.3091 99.9146 18.3091V18.8491ZM102.045 16.1221H102.645V15.4876H102.045H101.445V16.1221H102.045ZM102.045 15.4876V14.9476C102.045 14.9476 102.036 14.9474 101.983 14.9464C101.94 14.9456 101.881 14.9448 101.808 14.9443C101.662 14.9434 101.461 14.9444 101.224 14.9515C100.752 14.9657 100.125 15.0048 99.494 15.1062C98.8734 15.2061 98.1978 15.3742 97.6625 15.6718C97.1121 15.9777 96.6446 16.464 96.6446 17.1751H97.2446H97.8446C97.8446 16.9616 97.9621 16.7746 98.293 16.5907C98.6389 16.3984 99.1408 16.2602 99.7052 16.1694C100.825 15.9891 101.962 16.0276 102.045 16.0276V15.4876Z" fill="white"/>
</g>
</svg>
