<svg width="43" height="43" viewBox="0 0 43 43" fill="none" xmlns="http://www.w3.org/2000/svg">
<path d="M25.5312 25.5312H32.25V32.25" stroke="white" stroke-width="2" stroke-miterlimit="10" stroke-linecap="round" stroke-linejoin="round"/>
<path d="M8.0625 30.9062H14.7812V24.1875" stroke="white" stroke-width="2" stroke-miterlimit="10" stroke-linecap="round" stroke-linejoin="round"/>
<path d="M32.25 26.0688C31.3094 27.1438 30.3688 28.2188 29.2937 29.2938C19.8875 38.7001 8.73437 43.0001 4.43437 38.7001C0.134369 34.4 4.3 23.2469 13.8406 13.8407C23.3813 4.43442 34.4 0.134423 38.7 4.43442C40.5813 6.31567 40.85 9.27192 39.775 12.9" stroke="white" stroke-width="2" stroke-miterlimit="10" stroke-linecap="round" stroke-linejoin="round"/>
<path d="M14.7812 30.2344C14.3781 29.9657 14.1094 29.5625 13.7062 29.1594C4.29999 19.7532 -6.81203e-06 8.60003 4.29999 4.30003C8.59999 3.00871e-05 19.7531 4.16566 29.1594 13.7063C38.5656 23.2469 42.8656 34.2657 38.5656 38.5657C36.2812 40.8501 32.1156 40.7157 27.2781 38.7" stroke="white" stroke-width="2" stroke-miterlimit="10" stroke-linecap="round" stroke-linejoin="round"/>
</svg>
