<svg width="44" height="45" viewBox="0 0 44 45" fill="none" xmlns="http://www.w3.org/2000/svg">
<path d="M44 22.0288C44 26.3856 42.7097 30.6447 40.2923 34.2673C37.8749 37.8899 34.439 40.7134 30.419 42.3807C26.3991 44.048 21.9756 44.4842 17.708 43.6343C13.4404 42.7843 9.52041 40.6862 6.44366 37.6055C3.36691 34.5247 1.27161 30.5995 0.422734 26.3264C-0.426141 22.0532 0.00953224 17.624 1.67466 13.5987C3.33979 9.57349 6.15958 6.13307 9.77746 3.71252C13.3953 1.29196 17.6488 0 22 0C24.8891 0 27.7499 0.569791 30.419 1.67684C33.0882 2.78389 35.5135 4.40652 37.5564 6.45208C39.5992 8.49764 41.2197 10.9261 42.3254 13.5987C43.431 16.2714 44 19.1359 44 22.0288ZM6.78313 17.7187C6.78313 17.7187 6.36631 17.8857 6.36631 18.15C6.36631 18.4143 6.78313 18.5813 6.78313 18.5813L21.0024 24.622C21.6578 24.8592 22.3755 24.8592 23.031 24.622L31.6453 20.9631L37.2447 18.5841C37.2923 18.5637 37.3387 18.5405 37.3836 18.5145L37.4003 18.5034L37.4447 18.4756C37.5046 18.4438 37.5558 18.3977 37.5936 18.3414C37.6314 18.2851 37.6547 18.2203 37.6615 18.1528C37.6615 17.9942 37.5225 17.8412 37.2447 17.7215L23.0282 11.678C22.7515 11.5697 22.4581 11.5104 22.1612 11.5027H22.0139C21.6686 11.4957 21.3252 11.5552 21.0024 11.678L6.78313 17.7187ZM31.6481 22.8746L23.7173 26.2442C22.6221 26.668 21.4085 26.668 20.3133 26.2442L12.3853 22.8746V27.2292C12.3853 30.0367 16.698 32.31 22.0167 32.31C27.3354 32.31 31.6509 30.0367 31.6509 27.2292L31.6481 22.8746ZM36.8779 28.4173C36.8779 27.9782 36.7037 27.5571 36.3936 27.2466C36.0835 26.9362 35.663 26.7617 35.2245 26.7617C34.7859 26.7617 34.3654 26.9362 34.0553 27.2466C33.7453 27.5571 33.5711 27.9782 33.5711 28.4173V30.6155H36.8779V28.4173ZM35.2245 22.9665C35.4422 22.9665 35.6551 22.9018 35.8361 22.7806C36.0171 22.6594 36.1582 22.4871 36.2414 22.2856C36.3246 22.0841 36.3462 21.8624 36.3035 21.6486C36.2608 21.4348 36.1558 21.2385 36.0016 21.0845C35.8474 20.9305 35.6511 20.8258 35.4374 20.7836C35.2238 20.7414 35.0024 20.7636 34.8014 20.8474C34.6004 20.9312 34.4287 21.0729 34.3081 21.2545C34.1876 21.436 34.1235 21.6493 34.124 21.8674C34.1248 22.1591 34.241 22.4387 34.4473 22.6447C34.6536 22.8508 34.9331 22.9665 35.2245 22.9665ZM34.124 24.8363C34.124 25.0542 34.1886 25.2672 34.3095 25.4484C34.4304 25.6296 34.6023 25.7709 34.8033 25.8543C35.0044 25.9377 35.2257 25.9595 35.4391 25.917C35.6526 25.8744 35.8487 25.7695 36.0026 25.6154C36.1565 25.4613 36.2613 25.265 36.3037 25.0512C36.3462 24.8375 36.3244 24.616 36.2411 24.4146C36.1578 24.2133 36.0168 24.0412 35.8358 23.9201C35.6549 23.799 35.4421 23.7344 35.2245 23.7344C34.9326 23.7344 34.6527 23.8505 34.4463 24.0571C34.24 24.2638 34.124 24.544 34.124 24.8363Z" fill="white"/>
</svg>
