<svg width="100" height="96" viewBox="0 0 100 96" fill="none" xmlns="http://www.w3.org/2000/svg">
<mask id="mask0_889_42" style="mask-type:luminance" maskUnits="userSpaceOnUse" x="0" y="0" width="100" height="96">
<path d="M100 0.316406H0V95.3164H100V0.316406Z" fill="white"/>
</mask>
<g mask="url(#mask0_889_42)">
<g opacity="0.4">
<path d="M71.5371 95.3156V85.5646C69.4124 85.2966 68.7982 84.7926 68.7484 83.3314C68.7028 82.0929 69.0306 81.8369 71.0764 81.4158C71.7779 78.5672 72.4414 75.7066 73.1843 72.8708C74.355 68.416 75.6329 63.9905 76.77 59.532C78.6457 52.1713 80.8286 44.8807 81.9779 37.3466C82.2514 35.5466 82.6957 33.7756 83.115 31.7363C76.2757 32.0995 69.6531 32.9128 63.0219 33.6435C56.2864 34.3228 49.5966 35.3938 42.987 36.8512C43.1737 36.2567 43.2733 35.9347 43.4019 35.5384C38.331 31.5918 33.3347 27.4882 28.1102 23.7026C24.2717 20.9284 20.1261 18.5794 16.1424 16.0033C11.9304 13.287 7.7185 10.5664 3.56461 7.74677C2.42344 6.97893 1.48975 5.90145 0.485517 4.93543C0.285657 4.66773 0.122393 4.37481 0 4.06437C4.67674 4.59691 9.22071 4.29555 13.7646 3.94465C16.4371 3.74374 19.1067 3.50843 21.7736 3.23871C26.4379 2.79286 31.098 2.26856 35.7581 1.7773L44.9249 0.819538C46.6429 0.642022 48.3609 0.443865 50.0789 0.315888C50.5105 0.288189 50.9393 0.402815 51.2989 0.642022C55.7764 3.90337 60.7354 6.35969 65.5324 9.08436C69.7485 11.4829 74.0186 13.7906 78.2179 16.2098C84.6957 19.9252 91.1364 23.7191 97.5807 27.4924C98.34 27.9382 99.05 28.4707 100 29.1065C94.7093 30.8156 89.4514 31.0922 84.0029 31.7156C82.3971 40.0878 80.6829 48.4847 78.3464 56.7536C76.0107 65.0226 73.965 73.2671 71.7071 81.7504C72.0821 81.9645 72.4293 82.224 72.7407 82.5225C73.1557 83.0258 73.3257 83.6533 72.8193 84.1984C72.3129 84.7436 72.4043 85.3874 72.4043 86.0602C72.375 88.5373 72.2879 91.0597 72.18 93.5574C72.11 94.1458 71.9936 94.7286 71.8314 95.2993L71.5371 95.3156ZM2.51058 5.34827C2.44419 5.45147 2.38194 5.5588 2.31554 5.66614C3.17781 6.42766 4.07805 7.14551 5.01286 7.81696C9.9925 11.0701 15.0427 14.2736 20.0556 17.5019C23.2882 19.5661 26.6246 21.5311 29.7037 23.8182C34.4884 27.3726 39.0987 31.1582 43.7505 34.8779C43.9854 35.1107 44.2753 35.281 44.5936 35.3734C44.9119 35.4657 45.2484 35.4771 45.5722 35.4063C46.2238 35.2576 46.8877 35.1627 47.5516 35.0554C51.0167 34.4857 54.4693 33.8169 57.9509 33.3793C61.7686 32.8797 65.6113 32.5536 69.4498 32.1697C76.8321 31.439 84.2229 30.7454 91.605 29.9817C93.68 29.7671 95.755 29.3666 97.83 29.0488L97.9043 28.6978C97.4064 28.3799 96.9207 28.0456 96.4107 27.7524C86.4514 22.0279 76.4921 16.3075 66.5325 10.5912C61.3371 7.63121 55.9756 4.97259 51.0706 1.55437C50.7021 1.30909 50.2691 1.17702 49.8257 1.17457C48.8215 1.17457 47.8214 1.29016 46.8213 1.40163C43.3854 1.78969 39.9576 2.22728 36.5217 2.58645C32.2019 3.04468 27.8695 3.5153 23.5331 3.91162C19.0265 4.32032 14.524 4.66709 10.0091 4.9891C7.511 5.16662 5.00871 5.23267 2.51058 5.34827ZM71.0516 82.6955C70.4623 82.6005 69.6987 82.1177 69.5244 83.191C69.5085 83.3676 69.5291 83.5455 69.5851 83.7135C69.6411 83.8815 69.7313 84.0361 69.8499 84.1687C69.9686 84.3005 70.1134 84.4069 70.2751 84.4806C70.4368 84.5551 70.6121 84.5948 70.7901 84.599C71.5 84.599 72.2671 83.9135 72.2179 83.2818C72.1593 82.5267 71.695 82.4069 71.0516 82.6955Z" fill="black"/>
<path d="M18.8688 22.609C16.2545 29.9533 14.7813 37.3594 11.8848 44.3197C12.3537 40.3607 13.8476 36.7113 14.8518 32.9298C15.8561 29.1483 17.0512 25.3957 18.1716 21.5605C19.5377 21.9889 20.8123 22.665 21.9313 23.5544C25.8776 26.5639 29.7743 29.6271 33.7704 32.5747C36.6877 34.7173 39.7543 36.6452 42.7421 38.7093C43.3912 39.1511 44.1853 39.3297 44.9622 39.2089C49.9419 38.6584 54.9368 38.1217 59.9469 37.5988C63.0508 37.2727 66.1715 36.9837 69.2671 36.6535C71.1511 36.4554 73.0307 36.187 74.9193 36.026C75.5536 36.0281 76.1857 36.0931 76.8071 36.22C76.9236 39.3451 73.8736 55.623 72.7321 57.8563C72.51 57.3484 72.4821 56.7774 72.6535 56.2504C73.6821 50.691 74.705 45.1289 75.72 39.5639C75.865 38.7383 75.8857 37.9126 75.9728 37.0003C74.8736 37.0003 73.8986 36.9177 72.915 37.0003C67.4703 37.5452 62.0342 38.1397 56.5939 38.7093C53.5397 39.0313 50.4896 39.3327 47.4355 39.6423C47.3242 39.6358 47.2126 39.6441 47.1035 39.6671C44.8668 40.5299 42.9538 39.696 41.132 38.5112C37.9658 36.4471 34.7996 34.3375 31.7412 32.1041C27.9608 29.3464 24.2966 26.4319 20.566 23.5999C20.0183 23.2399 19.4518 22.9091 18.8688 22.609Z" fill="black"/>
<path d="M71.9686 60.0154C70.9603 60.5521 69.9727 61.1424 68.9394 61.6213C65.2704 63.2969 61.3013 64.2247 57.2662 64.3501C49.4606 64.6639 41.933 63.3057 34.6004 60.6966C29.5378 58.8967 24.5871 56.8696 20.1386 53.8106C16.772 51.5128 13.738 48.7667 11.1213 45.649C10.9501 45.3983 10.8041 45.1315 10.6855 44.8523C11.3661 44.4395 11.5653 44.9513 11.8392 45.2651C14.1998 47.9434 16.8432 50.3614 19.7237 52.4772C23.8775 55.4039 28.4412 57.7073 33.2683 59.3136C36.7875 60.5615 40.3761 61.6063 44.0161 62.4429C50.0848 63.8175 56.3703 63.9579 62.4948 62.8557C64.661 62.4429 66.7193 61.481 68.8149 60.7378C69.7942 60.3911 70.7528 59.9742 71.72 59.5902L71.9686 60.0154Z" fill="black"/>
<path d="M69.0844 84.9458C68.4827 85.8334 67.9349 86.3914 67.6818 87.0599C67.1797 88.3934 66.827 89.7844 66.4369 91.1591C66.2341 92.0354 65.9145 92.8811 65.4866 93.673C65.407 93.4043 65.3583 93.1271 65.3413 92.8478C65.4926 90.6933 66.0221 88.582 66.9058 86.6097C67.2253 85.883 67.6029 85.0039 69.0844 84.9458Z" fill="black"/>
<path d="M70.7941 86.2092C70.2408 88.8188 69.6874 91.4327 69.1342 94.053H68.7482C68.7109 93.5114 68.7109 92.9683 68.7482 92.4267C68.9765 90.8415 69.213 89.252 69.545 87.6831C69.7353 87.1032 69.9959 86.5487 70.321 86.0319L70.7941 86.2092Z" fill="black"/>
</g>
</g>
</svg>
