<svg width="37" height="46" viewBox="0 0 37 46" fill="none" xmlns="http://www.w3.org/2000/svg">
<path fill-rule="evenodd" clip-rule="evenodd" d="M18.8844 3.67747C18.3227 3.54247 17.7056 3.53112 15.8968 3.53112H13.0479C11.0438 3.53112 9.64674 3.53249 8.55911 3.62147C7.49206 3.70878 6.87902 3.87152 6.41466 4.10843C5.41935 4.61622 4.61013 5.4265 4.103 6.42311C3.8664 6.88808 3.70388 7.50194 3.61668 8.57037C3.52781 9.65942 3.52645 11.0583 3.52645 13.065V32.8389C3.52645 34.8457 3.52781 36.2445 3.61668 37.3335C3.70388 38.402 3.8664 39.0159 4.103 39.4809C4.61013 40.4773 5.41935 41.2878 6.41466 41.7956C6.87902 42.0324 7.49206 42.1951 8.55911 42.2824C9.64674 42.3714 11.0438 42.3728 13.0479 42.3728H23.3921C25.3963 42.3728 26.7932 42.3714 27.8808 42.2824C28.9479 42.1951 29.561 42.0324 30.0253 41.7956C31.0205 41.2878 31.8297 40.4773 32.3371 39.4809C32.5736 39.0159 32.736 38.402 32.8232 37.3335C32.9121 36.2445 32.9135 34.8457 32.9135 32.8389V20.5701C32.9135 18.7589 32.9022 18.1409 32.7673 17.5786C32.6377 17.0382 32.424 16.5215 32.1339 16.0476C31.8323 15.5545 31.404 15.1096 30.1248 13.8287L22.6294 6.32353C21.3503 5.0427 20.9057 4.61379 20.4134 4.31163C19.9402 4.02123 19.4241 3.80723 18.8844 3.67747ZM16.0975 3.74686e-05C17.6294 -0.000409799 18.6897 -0.000715713 19.7077 0.243963C20.6071 0.460229 21.4671 0.816889 22.2559 1.3009C23.1485 1.84859 23.898 2.59953 24.9809 3.68439L25.1229 3.8267L32.6182 11.3319L32.7605 11.4741C33.8438 12.5584 34.5937 13.3089 35.1408 14.2026C35.6242 14.9924 35.9803 15.8536 36.1964 16.7543C36.4407 17.7735 36.4404 18.8352 36.44 20.3691V20.5701V32.8389V32.9145C36.44 34.8281 36.44 36.3714 36.3379 37.6212C36.2331 38.9079 36.0111 40.0381 35.4791 41.084C34.6337 42.745 33.2852 44.0955 31.6264 44.9418C30.5818 45.4745 29.4531 45.6967 28.1681 45.8017C26.92 45.9039 25.3787 45.9039 23.4676 45.9039H23.3921H13.0479H12.9723C11.0614 45.9039 9.52009 45.9039 8.27194 45.8017C6.98683 45.6967 5.85802 45.4745 4.8137 44.9418C3.15483 44.0955 1.80613 42.745 0.960911 41.084C0.428793 40.0381 0.206957 38.9079 0.101939 37.6212C-2.22629e-05 36.3714 -2.2812e-05 34.8279 6.97671e-07 32.9145V32.8389V13.065V12.9894C-2.2812e-05 11.076 -2.22629e-05 9.53261 0.101939 8.28282C0.206957 6.99603 0.428793 5.86577 0.960911 4.82005C1.80613 3.15902 3.15483 1.80855 4.8137 0.962228C5.85802 0.429415 6.98683 0.207287 8.27194 0.102156C9.52009 3.75246e-05 11.0614 3.75005e-05 12.9724 6.10409e-05H13.0479H15.8968L16.0975 3.74686e-05ZM18.22 11.7703C19.1938 11.7703 19.9832 12.5607 19.9832 13.5358V32.0812C20.4461 31.9077 20.9685 31.5866 21.7147 30.9522C22.5467 30.245 23.5355 29.2568 24.9527 27.838L26.3771 26.4117C27.0657 25.7222 28.182 25.7222 28.8706 26.4117C29.5592 27.1012 29.5592 28.2189 28.8706 28.9084L27.4461 30.3347L27.393 30.3881C26.0416 31.7412 24.9517 32.8326 23.997 33.644C23.0141 34.4797 22.0591 35.1219 20.9443 35.4844C19.1738 36.0604 17.2662 36.0604 15.4957 35.4844C14.3809 35.1219 13.4259 34.4797 12.4429 33.644C11.4883 32.8326 10.3984 31.7412 9.04715 30.3881L8.99376 30.3347L7.56933 28.9084C6.88076 28.2189 6.88076 27.1012 7.56933 26.4117C8.25791 25.7222 9.37433 25.7222 10.0629 26.4117L11.4873 27.838C12.9044 29.2568 13.8933 30.245 14.7253 30.9522C15.4715 31.5866 15.9939 31.9077 16.4568 32.0812V13.5358C16.4568 12.5607 17.2462 11.7703 18.22 11.7703Z" fill="white"/>
</svg>
