<svg width="106" height="89" viewBox="0 0 106 89" fill="none" xmlns="http://www.w3.org/2000/svg">
<g opacity="0.4">
<path d="M2.70045 26.5491C5.03542 25.5573 7.32633 24.538 9.64819 23.605C12.7313 22.3696 15.8244 21.1598 18.9473 20.0165C26.3715 17.2921 33.8331 14.6557 41.2489 11.8999C45.6027 10.2801 49.8623 8.44338 54.2107 6.80581C59.7289 4.72531 65.2719 2.66746 70.8504 0.765749C73.9434 -0.283978 75.9198 0.577193 77.4715 3.34304C78.1304 4.63936 78.7189 5.96676 79.2347 7.31986C80.3056 9.83204 81.3321 12.3428 82.4145 14.8384C84.1144 18.7827 85.8658 22.7041 87.5576 26.6528C89.3492 30.8362 91.1062 35.0196 92.8288 39.2027C93.9874 41.9923 95.1109 44.7957 96.1703 47.6188C97.0738 49.9903 96.4606 51.337 93.9804 52.4288C91.1665 53.6512 88.3032 54.7922 85.4308 55.8918C80.5835 57.745 75.686 59.5691 70.8069 61.388C65.0501 63.5318 59.2956 65.6794 53.5199 67.7922C47.3938 70.0344 41.2546 72.2373 35.116 74.4502C31.8643 75.6228 28.6143 76.7893 25.3446 77.9149C22.253 78.9845 20.4784 78.0801 19.2379 75.165C17.6017 71.3252 15.7572 67.563 14.0901 63.7351C11.935 58.7953 9.89527 53.8132 7.74237 48.8774C6.22352 45.3814 4.59154 41.9315 3.05796 38.4383C2.14614 36.3916 1.22377 34.3454 0.412783 32.259C-0.587694 29.6928 0.193803 27.9185 2.70045 26.5491ZM93.111 51.8146C95.5533 50.5267 95.8639 49.8511 95.2938 47.9635C95.1171 47.389 94.8821 46.8256 94.6424 46.2546C92.5983 41.3366 90.5648 36.4183 88.4963 31.5138C86.584 26.9989 84.6263 22.4986 82.6913 17.991C81.4332 15.0442 80.1777 12.0958 78.9252 9.14596C78.19 7.41566 77.568 5.63906 76.7223 3.95878C75.4865 1.50572 73.8585 0.877398 71.1083 1.61598C70.14 1.88171 69.1945 2.23822 68.2501 2.57866C64.5262 3.92143 60.7939 5.23271 57.0973 6.638C51.7592 8.66657 46.4716 10.8223 41.1235 12.8254C34.6855 15.269 28.1321 17.4969 21.6761 19.9554C16.3859 21.9733 11.2043 24.1693 5.95589 26.3089C4.8343 26.7134 3.74352 27.1903 2.69112 27.7363C1.07969 28.658 0.595797 29.9135 1.23405 31.5831C2.04422 33.7216 2.94429 35.8471 3.87868 37.9486C5.43091 41.4368 7.09033 44.887 8.61567 48.3847C10.7048 53.2161 12.6498 58.1053 14.7674 62.9211C16.5128 67.011 18.4223 70.9957 20.242 75.0294C21.2587 77.2925 22.5086 77.8537 24.878 77.0341C27.2473 76.2146 29.7373 75.3343 32.163 74.4736C37.1902 72.6838 42.217 70.8873 47.2433 69.0842C51.2588 67.6492 55.2885 66.2374 59.2898 64.7792C63.649 63.1772 67.9809 61.5125 72.3198 59.8594C75.9052 58.4943 79.4787 57.1099 83.0522 55.7253C86.6257 54.3409 90.2025 52.9441 93.1233 51.8078L93.111 51.8146Z" fill="black"/>
<path d="M16.6973 83.0523C18.7415 82.1987 20.6234 81.3461 22.5581 80.6246C26.6128 79.1114 30.702 77.6724 34.7715 76.1924C40.8509 73.9807 46.9377 71.7807 52.9894 69.5327C57.5846 67.8274 62.1447 66.038 66.7257 64.3097C71.836 62.3797 76.9552 60.4914 82.0654 58.5616C85.2969 57.3381 88.513 56.0714 91.7409 54.8241C94.7281 53.6809 97.7263 52.559 100.736 51.4586C101.257 51.2616 101.827 51.172 102.362 50.9884C102.503 50.9183 102.659 50.8784 102.819 50.8717C102.979 50.8651 103.138 50.8917 103.286 50.9497C103.434 51.0078 103.566 51.0958 103.675 51.2076C103.783 51.3194 103.864 51.4523 103.912 51.5969C104.027 51.8112 104.154 52.0193 104.293 52.2202C106.333 55.4933 105.326 57.6183 101.745 59.0892C98.7338 60.3266 95.6088 61.3061 92.5608 62.4653C88.3326 64.0682 84.1376 65.7612 79.9117 67.368C75.6858 68.9747 71.3253 70.5569 67.041 72.1748C63.8742 73.3887 60.723 74.6458 57.5468 75.8442C53.2649 77.4661 48.9564 79.0353 44.6745 80.6572C41.5077 81.8711 38.3868 83.2045 35.1701 84.3011C31.257 85.6544 27.2909 86.8765 23.3352 88.0621C19.8973 89.0989 18.1827 87.3306 17.2147 85.0048C16.9991 84.3648 16.8263 83.7127 16.6973 83.0523ZM18.0463 83.4819C18.1969 86.4454 20.0587 87.8491 23.0369 87.2081C23.4105 87.1403 23.7796 87.0523 24.1425 86.9447C29.6713 85.0598 35.2289 83.2572 40.7079 81.255C46.5519 79.1204 52.311 76.7845 58.1241 74.5635C62.5737 72.8603 67.0429 71.1981 71.5115 69.526C76.2086 67.765 80.922 66.0313 85.6137 64.2527C90.7834 62.2955 95.9702 60.3754 101.09 58.3011C104.611 56.8934 105.118 55.3985 103.244 52.4785C103.124 52.3201 102.993 52.1689 102.853 52.0258C102.614 51.9878 102.369 51.9905 102.13 52.0337C74.1404 62.487 46.1124 72.9697 18.0463 83.4819Z" fill="black"/>
<path d="M22.8335 67.3054C21.9959 65.3626 21.142 63.4287 20.3313 61.4764C19.0474 58.3922 17.7841 55.3122 16.5416 52.2365C15.0147 48.4247 13.541 44.584 11.9938 40.7833C11.0367 38.4309 10.0669 36.0751 8.93908 33.7902C7.91129 31.7138 9.06397 29.7729 10.8687 28.9365C12.5074 28.1755 14.239 27.5753 15.9499 26.9503C21.1411 25.064 26.3424 23.2032 31.543 21.3323C36.2704 19.6272 40.995 17.9235 45.717 16.2212C49.9124 14.6983 54.0908 13.1382 58.291 11.6229C61.2379 10.5653 64.1865 9.50148 67.1707 8.53183C69.5263 7.76108 70.9457 8.39497 71.8903 10.558C73.5373 14.3351 75.0974 18.139 76.7484 21.914C78.7435 26.5023 80.8777 31.0869 82.8352 35.7113C84.152 38.7603 85.284 41.8895 86.3903 45.0122C87.2038 47.2986 86.6238 48.6996 84.3185 49.7577C82.0988 50.7691 79.7607 51.5508 77.4747 52.4179C73.1372 54.0615 68.7964 55.6965 64.4521 57.3232C60.2739 58.8832 56.0794 60.3902 51.9112 61.9757C48.5113 63.2705 45.1743 64.7219 41.7589 65.9736C37.449 67.5231 33.2563 69.38 28.7461 70.4141C26.5338 70.9209 25.0523 70.4346 23.8759 68.6665C23.5877 68.1942 23.3018 67.7258 23.016 67.2573L22.8335 67.3054ZM23.5747 66.632L23.7519 66.5662L24.2243 67.3405C25.7621 69.8609 26.7948 70.262 29.6809 69.3098C32.0693 68.5212 34.4195 67.6347 36.7845 66.7813C38.97 65.99 41.1633 65.2201 43.3274 64.394C48.3194 62.4927 53.294 60.5543 58.2884 58.6309C61.0968 57.551 63.9083 56.4794 66.7234 55.4164C70.0144 54.1656 73.3051 52.9235 76.5958 51.69C78.9508 50.8113 81.3634 50.0713 83.6556 49.0719C85.8045 48.1405 86.1996 46.8819 85.3395 44.7862C84.8122 43.4946 84.2729 42.2097 83.7398 40.9264C81.5356 35.6212 79.3436 30.3093 77.1189 25.0153C75.6931 21.6095 74.2356 18.2141 72.7465 14.8291C72.094 13.3324 71.406 11.8395 70.6202 10.4001C69.9191 9.12621 69.374 8.95417 67.9841 9.25923C67.6727 9.33431 67.3665 9.42742 67.0674 9.53819C61.9184 11.3601 56.7536 13.1648 51.6132 15.0183C45.1715 17.34 38.7412 19.7071 32.3048 22.0466L16.3677 27.8577C14.6959 28.3986 13.0542 29.0199 11.4494 29.7189C9.55854 30.628 9.19684 31.7187 9.89307 33.5993C10.2148 34.456 10.6301 35.2615 10.9844 36.1004C12.5857 39.9541 14.1974 43.8072 15.78 47.666C16.9852 50.6211 18.1492 53.6244 19.3656 56.5889C20.7445 59.9446 22.1666 63.2819 23.5747 66.632Z" fill="black"/>
<path d="M54.4625 71.9645C55.6113 72.8855 56.7469 72.5645 57.873 72.13C60.6813 71.0499 63.5007 69.9794 66.2989 68.8739C66.8456 68.577 67.3663 68.239 67.856 67.8632C65.1596 67.7102 63.427 69.0748 61.4469 69.6147C59.4666 70.1546 57.4795 71.013 55.4981 71.7291C55.4249 71.609 55.3493 71.4852 55.2761 71.3651C55.6192 71.0531 56.0012 70.782 56.4137 70.5578C59.325 69.406 62.2427 68.2559 65.1936 67.196C65.9745 66.9474 66.7998 66.8474 67.6224 66.9015C68.7235 66.9246 69.0918 67.6886 68.4491 68.5147C68.0694 68.9908 67.5648 69.3644 66.9854 69.5984C63.6678 70.8947 60.3178 72.1467 56.9451 73.308C56.3072 73.5273 55.4658 73.3417 54.7555 73.193C54.5309 73.1454 54.4059 72.62 54.2461 72.3047L54.4625 71.9645Z" fill="black"/>
</g>
</svg>
