<svg width="127" height="45" viewBox="0 0 127 45" fill="none" xmlns="http://www.w3.org/2000/svg">
<g clip-path="url(#clip0_1077_19009)">
<path d="M11.2378 16.8359H14.7681C15.5688 16.8359 16.2451 16.958 16.7969 17.2021C17.3535 17.4463 17.7759 17.8076 18.064 18.2861C18.3569 18.7598 18.5034 19.3433 18.5034 20.0366C18.5034 20.5249 18.4033 20.9717 18.2031 21.377C18.0078 21.7773 17.7246 22.1191 17.3535 22.4023C16.9873 22.6807 16.5479 22.8882 16.0352 23.0249L15.6396 23.1787H12.3218L12.3071 22.0288H14.812C15.3198 22.0288 15.7422 21.9409 16.0791 21.7651C16.416 21.5845 16.6699 21.3428 16.8408 21.04C17.0117 20.7373 17.0972 20.4028 17.0972 20.0366C17.0972 19.6265 17.0166 19.2676 16.8555 18.96C16.6943 18.6523 16.4404 18.4155 16.0938 18.2495C15.752 18.0786 15.3101 17.9932 14.7681 17.9932H12.6514V27.5H11.2378V16.8359ZM17.4707 27.5L14.8779 22.666L16.3501 22.6587L18.9795 27.4121V27.5H17.4707ZM23.5645 27.6465C23.0127 27.6465 22.5122 27.5537 22.063 27.3682C21.6187 27.1777 21.2354 26.9116 20.9131 26.5698C20.5957 26.228 20.3516 25.8228 20.1807 25.354C20.0098 24.8853 19.9243 24.3726 19.9243 23.8159V23.5083C19.9243 22.8638 20.0195 22.29 20.21 21.7871C20.4004 21.2793 20.6592 20.8496 20.9863 20.498C21.3135 20.1465 21.6846 19.8804 22.0996 19.6997C22.5146 19.519 22.9443 19.4287 23.3887 19.4287C23.9551 19.4287 24.4434 19.5264 24.8535 19.7217C25.2686 19.917 25.6079 20.1904 25.8716 20.542C26.1353 20.8887 26.3306 21.2988 26.4575 21.7725C26.5845 22.2412 26.6479 22.7539 26.6479 23.3105V23.9185H20.73V22.8125H25.293V22.71C25.2734 22.3584 25.2002 22.0166 25.0732 21.6846C24.9512 21.3525 24.7559 21.0791 24.4873 20.8643C24.2188 20.6494 23.8525 20.542 23.3887 20.542C23.0811 20.542 22.7979 20.6079 22.5391 20.7397C22.2803 20.8667 22.0581 21.0571 21.8726 21.311C21.687 21.5649 21.543 21.875 21.4404 22.2412C21.3379 22.6074 21.2866 23.0298 21.2866 23.5083V23.8159C21.2866 24.1919 21.3379 24.5459 21.4404 24.8779C21.5479 25.2051 21.7017 25.4932 21.9019 25.7422C22.1069 25.9912 22.3535 26.1865 22.6416 26.3281C22.9346 26.4697 23.2666 26.5405 23.6377 26.5405C24.1162 26.5405 24.5215 26.4429 24.8535 26.2476C25.1855 26.0522 25.4761 25.791 25.7251 25.4639L26.5454 26.1157C26.3745 26.3745 26.1572 26.6211 25.8936 26.8555C25.6299 27.0898 25.3052 27.2803 24.9194 27.4268C24.5386 27.5732 24.0869 27.6465 23.5645 27.6465ZM32.9028 26.145V22.0654C32.9028 21.7529 32.8394 21.4819 32.7124 21.2524C32.5903 21.0181 32.4048 20.8374 32.1558 20.7104C31.9067 20.5835 31.5991 20.52 31.2329 20.52C30.8911 20.52 30.5908 20.5786 30.332 20.6958C30.0781 20.813 29.8779 20.9668 29.7314 21.1572C29.5898 21.3477 29.519 21.5527 29.519 21.7725H28.1641C28.1641 21.4893 28.2373 21.2085 28.3838 20.9302C28.5303 20.6519 28.7402 20.4004 29.0137 20.1758C29.292 19.9463 29.624 19.7656 30.0098 19.6338C30.4004 19.4971 30.835 19.4287 31.3135 19.4287C31.8896 19.4287 32.3975 19.5264 32.8369 19.7217C33.2812 19.917 33.6279 20.2124 33.877 20.6079C34.1309 20.9985 34.2578 21.4893 34.2578 22.0801V25.7715C34.2578 26.0352 34.2798 26.3159 34.3237 26.6138C34.3726 26.9116 34.4434 27.168 34.5361 27.3828V27.5H33.1226C33.0542 27.3438 33.0005 27.1362 32.9614 26.8774C32.9224 26.6138 32.9028 26.3696 32.9028 26.145ZM33.1372 22.6953L33.1519 23.6475H31.7822C31.3965 23.6475 31.0522 23.6792 30.7495 23.7427C30.4468 23.8013 30.1929 23.8916 29.9878 24.0137C29.7827 24.1357 29.6265 24.2896 29.519 24.4751C29.4116 24.6558 29.3579 24.8682 29.3579 25.1123C29.3579 25.3613 29.4141 25.5884 29.5264 25.7935C29.6387 25.9985 29.8071 26.1621 30.0317 26.2842C30.2612 26.4014 30.542 26.46 30.874 26.46C31.2891 26.46 31.6553 26.3721 31.9727 26.1963C32.29 26.0205 32.5415 25.8057 32.7271 25.5518C32.9175 25.2979 33.02 25.0513 33.0347 24.812L33.6133 25.4639C33.5791 25.6689 33.4863 25.896 33.335 26.145C33.1836 26.394 32.981 26.6333 32.7271 26.8628C32.478 27.0874 32.1802 27.2754 31.8335 27.4268C31.4917 27.5732 31.106 27.6465 30.6763 27.6465C30.1392 27.6465 29.668 27.5415 29.2627 27.3315C28.8623 27.1216 28.5498 26.8408 28.3252 26.4893C28.1055 26.1328 27.9956 25.7349 27.9956 25.2954C27.9956 24.8706 28.0786 24.4971 28.2446 24.1748C28.4106 23.8477 28.6499 23.5767 28.9624 23.3618C29.2749 23.1421 29.6509 22.9761 30.0903 22.8638C30.5298 22.7515 31.0205 22.6953 31.5625 22.6953H33.1372ZM41.3843 25.9619V16.25H42.7466V27.5H41.5015L41.3843 25.9619ZM36.0522 23.6255V23.4717C36.0522 22.8662 36.1255 22.3169 36.272 21.8237C36.4233 21.3257 36.6357 20.8984 36.9092 20.542C37.1875 20.1855 37.5171 19.9121 37.8979 19.7217C38.2837 19.5264 38.7134 19.4287 39.187 19.4287C39.6851 19.4287 40.1196 19.5166 40.4907 19.6924C40.8667 19.8633 41.1841 20.1147 41.4429 20.4468C41.7065 20.7739 41.9141 21.1694 42.0654 21.6333C42.2168 22.0972 42.3218 22.6221 42.3804 23.208V23.8818C42.3267 24.4629 42.2217 24.9854 42.0654 25.4492C41.9141 25.9131 41.7065 26.3086 41.4429 26.6357C41.1841 26.9629 40.8667 27.2144 40.4907 27.3901C40.1147 27.561 39.6753 27.6465 39.1724 27.6465C38.7085 27.6465 38.2837 27.5464 37.8979 27.3462C37.5171 27.146 37.1875 26.8652 36.9092 26.5039C36.6357 26.1426 36.4233 25.7178 36.272 25.2295C36.1255 24.7363 36.0522 24.2017 36.0522 23.6255ZM37.4146 23.4717V23.6255C37.4146 24.021 37.4536 24.3921 37.5317 24.7388C37.6147 25.0854 37.7417 25.3906 37.9126 25.6543C38.0835 25.918 38.3008 26.1255 38.5645 26.2769C38.8281 26.4233 39.1431 26.4966 39.5093 26.4966C39.9585 26.4966 40.3271 26.4014 40.6152 26.2109C40.9082 26.0205 41.1426 25.769 41.3184 25.4565C41.4941 25.144 41.6309 24.8047 41.7285 24.4385V22.6733C41.6699 22.4048 41.5845 22.146 41.4722 21.897C41.3647 21.6431 41.2231 21.4185 41.0474 21.2231C40.8765 21.0229 40.6641 20.8643 40.4102 20.7471C40.1611 20.6299 39.8657 20.5713 39.5239 20.5713C39.1528 20.5713 38.833 20.6494 38.5645 20.8057C38.3008 20.957 38.0835 21.167 37.9126 21.4355C37.7417 21.6992 37.6147 22.0068 37.5317 22.3584C37.4536 22.7051 37.4146 23.0762 37.4146 23.4717ZM49.2285 16.8359H50.5981L54.0918 25.5298L57.5781 16.8359H58.9551L54.6191 27.5H53.5498L49.2285 16.8359ZM48.7817 16.8359H49.9902L50.188 23.3398V27.5H48.7817V16.8359ZM58.186 16.8359H59.3945V27.5H57.9883V23.3398L58.186 16.8359ZM61.3135 23.6255V23.457C61.3135 22.8857 61.3965 22.356 61.5625 21.8677C61.7285 21.3745 61.9678 20.9473 62.2803 20.5859C62.5928 20.2197 62.9712 19.9365 63.4155 19.7363C63.8599 19.5312 64.3579 19.4287 64.9097 19.4287C65.4663 19.4287 65.9668 19.5312 66.4111 19.7363C66.8604 19.9365 67.2412 20.2197 67.5537 20.5859C67.8711 20.9473 68.1128 21.3745 68.2788 21.8677C68.4448 22.356 68.5278 22.8857 68.5278 23.457V23.6255C68.5278 24.1968 68.4448 24.7266 68.2788 25.2148C68.1128 25.7031 67.8711 26.1304 67.5537 26.4966C67.2412 26.8579 66.8628 27.1411 66.4185 27.3462C65.979 27.5464 65.481 27.6465 64.9243 27.6465C64.3677 27.6465 63.8672 27.5464 63.4229 27.3462C62.9785 27.1411 62.5977 26.8579 62.2803 26.4966C61.9678 26.1304 61.7285 25.7031 61.5625 25.2148C61.3965 24.7266 61.3135 24.1968 61.3135 23.6255ZM62.6685 23.457V23.6255C62.6685 24.021 62.7148 24.3945 62.8076 24.7461C62.9004 25.0928 63.0396 25.4004 63.2251 25.6689C63.4155 25.9375 63.6523 26.1499 63.9355 26.3062C64.2188 26.4575 64.5483 26.5332 64.9243 26.5332C65.2954 26.5332 65.6201 26.4575 65.8984 26.3062C66.1816 26.1499 66.416 25.9375 66.6016 25.6689C66.7871 25.4004 66.9263 25.0928 67.019 24.7461C67.1167 24.3945 67.1655 24.021 67.1655 23.6255V23.457C67.1655 23.0664 67.1167 22.6978 67.019 22.3511C66.9263 21.9995 66.7847 21.6895 66.5942 21.4209C66.4087 21.1475 66.1743 20.9326 65.8911 20.7764C65.6128 20.6201 65.2856 20.542 64.9097 20.542C64.5386 20.542 64.2114 20.6201 63.9282 20.7764C63.6499 20.9326 63.4155 21.1475 63.2251 21.4209C63.0396 21.6895 62.9004 21.9995 62.8076 22.3511C62.7148 22.6978 62.6685 23.0664 62.6685 23.457ZM71.582 20.8203V27.5H70.2271V19.5752H71.5454L71.582 20.8203ZM74.0576 19.5312L74.0503 20.791C73.938 20.7666 73.8306 20.752 73.728 20.7471C73.6304 20.7373 73.5181 20.7324 73.3911 20.7324C73.0786 20.7324 72.8027 20.7812 72.5635 20.8789C72.3242 20.9766 72.1216 21.1133 71.9556 21.2891C71.7896 21.4648 71.6577 21.6748 71.5601 21.9189C71.4673 22.1582 71.4062 22.4219 71.377 22.71L70.9961 22.9297C70.9961 22.4512 71.0425 22.002 71.1353 21.582C71.2329 21.1621 71.3818 20.791 71.582 20.4688C71.7822 20.1416 72.0361 19.8877 72.3438 19.707C72.6562 19.5215 73.0273 19.4287 73.457 19.4287C73.5547 19.4287 73.667 19.4409 73.7939 19.4653C73.9209 19.4849 74.0088 19.5068 74.0576 19.5312ZM78.4521 27.6465C77.9004 27.6465 77.3999 27.5537 76.9507 27.3682C76.5063 27.1777 76.123 26.9116 75.8008 26.5698C75.4834 26.228 75.2393 25.8228 75.0684 25.354C74.8975 24.8853 74.812 24.3726 74.812 23.8159V23.5083C74.812 22.8638 74.9072 22.29 75.0977 21.7871C75.2881 21.2793 75.5469 20.8496 75.874 20.498C76.2012 20.1465 76.5723 19.8804 76.9873 19.6997C77.4023 19.519 77.832 19.4287 78.2764 19.4287C78.8428 19.4287 79.3311 19.5264 79.7412 19.7217C80.1562 19.917 80.4956 20.1904 80.7593 20.542C81.0229 20.8887 81.2183 21.2988 81.3452 21.7725C81.4722 22.2412 81.5356 22.7539 81.5356 23.3105V23.9185H75.6177V22.8125H80.1807V22.71C80.1611 22.3584 80.0879 22.0166 79.9609 21.6846C79.8389 21.3525 79.6436 21.0791 79.375 20.8643C79.1064 20.6494 78.7402 20.542 78.2764 20.542C77.9688 20.542 77.6855 20.6079 77.4268 20.7397C77.168 20.8667 76.9458 21.0571 76.7603 21.311C76.5747 21.5649 76.4307 21.875 76.3281 22.2412C76.2256 22.6074 76.1743 23.0298 76.1743 23.5083V23.8159C76.1743 24.1919 76.2256 24.5459 76.3281 24.8779C76.4355 25.2051 76.5894 25.4932 76.7896 25.7422C76.9946 25.9912 77.2412 26.1865 77.5293 26.3281C77.8223 26.4697 78.1543 26.5405 78.5254 26.5405C79.0039 26.5405 79.4092 26.4429 79.7412 26.2476C80.0732 26.0522 80.3638 25.791 80.6128 25.4639L81.4331 26.1157C81.2622 26.3745 81.0449 26.6211 80.7812 26.8555C80.5176 27.0898 80.1929 27.2803 79.8071 27.4268C79.4263 27.5732 78.9746 27.6465 78.4521 27.6465Z" fill="#F4976C"/>
<g clip-path="url(#clip1_1077_19009)">
<path d="M98 23.5H109.86L106.23 27.86C106.146 27.9611 106.083 28.0778 106.044 28.2034C106.005 28.329 105.991 28.461 106.003 28.5919C106.027 28.8564 106.156 29.1003 106.36 29.27C106.564 29.4397 106.827 29.5214 107.092 29.497C107.356 29.4726 107.6 29.3442 107.77 29.14L112.77 23.14C112.804 23.0923 112.834 23.0421 112.86 22.99C112.86 22.94 112.91 22.91 112.93 22.86C112.975 22.7453 112.999 22.6233 113 22.5C112.999 22.3767 112.975 22.2547 112.93 22.14C112.93 22.09 112.88 22.06 112.86 22.01C112.834 21.9579 112.804 21.9077 112.77 21.86L107.77 15.86C107.676 15.7471 107.558 15.6563 107.425 15.5941C107.292 15.5319 107.147 15.4998 107 15.5C106.766 15.4995 106.54 15.5809 106.36 15.73C106.259 15.814 106.175 15.9171 106.114 16.0334C106.052 16.1497 106.015 16.2771 106.002 16.408C105.99 16.539 106.004 16.6711 106.043 16.7967C106.082 16.9223 106.146 17.039 106.23 17.14L109.86 21.5H98C97.7348 21.5 97.4804 21.6054 97.2929 21.7929C97.1054 21.9804 97 22.2348 97 22.5C97 22.7652 97.1054 23.0196 97.2929 23.2071C97.4804 23.3946 97.7348 23.5 98 23.5Z" fill="#F4976C"/>
</g>
</g>
<defs>
<clipPath id="clip0_1077_19009">
<rect y="0.5" width="127" height="44" rx="5" fill="white"/>
</clipPath>
<clipPath id="clip1_1077_19009">
<rect width="24" height="24" fill="white" transform="translate(93 10.5)"/>
</clipPath>
</defs>
</svg>
