<svg width="80" height="80" viewBox="0 0 80 80" fill="none" xmlns="http://www.w3.org/2000/svg">
<path d="M40.813 13.3335C42.5933 13.3433 47.0477 13.3864 51.7803 13.5759L53.4583 13.6491C58.2233 13.8747 62.9843 14.2601 65.3457 14.9185C68.4953 15.8033 70.971 18.3852 71.8077 21.6579C73.14 26.8549 73.3067 36.9982 73.3273 39.4528L73.3303 39.9615V39.9972C73.3303 39.9972 73.3303 40.0095 73.3303 40.0332L73.3273 40.5418C73.3067 42.9965 73.14 53.1398 71.8077 58.3368C70.9593 61.6215 68.4837 64.2035 65.3457 65.0762C62.9843 65.7345 58.2233 66.1198 53.4583 66.3455L51.7803 66.4185C47.0477 66.6082 42.5933 66.6512 40.813 66.6612L40.0317 66.6638H39.997C39.997 66.6638 39.9853 66.6638 39.9623 66.6638L39.1817 66.6612C35.4137 66.6405 19.6591 66.4702 14.6484 65.0762C11.4987 64.1912 9.02306 61.6095 8.18622 58.3368C6.85399 53.1398 6.68746 42.9965 6.66666 40.5418V39.4528C6.68746 36.9982 6.85399 26.8549 8.18622 21.6579C9.03466 18.373 11.5103 15.7912 14.6484 14.9185C19.6591 13.5243 35.4137 13.3542 39.1817 13.3335H40.813ZM33.3304 28.3306V51.6638L53.3303 39.9972L33.3304 28.3306Z" fill="#FF0000"/>
<path d="M33.3304 28.3306V51.6638L53.3303 39.9972L33.3304 28.3306Z" fill="white"/>
</svg>
