<svg width="11" height="7" viewBox="0 0 11 7" fill="none" xmlns="http://www.w3.org/2000/svg">
<path fill-rule="evenodd" clip-rule="evenodd" d="M0.219828 1.21991C0.360453 1.07946 0.551078 1.00057 0.749828 1.00057C0.948579 1.00057 1.1392 1.07946 1.27983 1.21991L4.99983 4.93991L8.71983 1.21991C8.78849 1.14622 8.87129 1.08712 8.96329 1.04613C9.05529 1.00514 9.1546 0.983095 9.25531 0.981318C9.35601 0.979541 9.45604 0.998066 9.54943 1.03579C9.64281 1.07351 9.72765 1.12965 9.79887 1.20087C9.87008 1.27209 9.92623 1.35692 9.96395 1.45031C10.0017 1.5437 10.0202 1.64373 10.0184 1.74443C10.0166 1.84513 9.9946 1.94445 9.95361 2.03645C9.91262 2.12845 9.85351 2.21125 9.77983 2.27991L5.52983 6.52991C5.3892 6.67036 5.19858 6.74925 4.99983 6.74925C4.80108 6.74925 4.61045 6.67036 4.46983 6.52991L0.219828 2.27991C0.0793777 2.13928 0.000488281 1.94866 0.000488281 1.74991C0.000488281 1.55116 0.0793777 1.36053 0.219828 1.21991Z" fill="#383838"/>
</svg>
