<svg width="52" height="52" viewBox="0 0 52 52" fill="none" xmlns="http://www.w3.org/2000/svg">
<rect width="52" height="52" rx="26" fill="black" fill-opacity="0.3"/>
<path d="M28.4401 35.3333C28.2409 35.334 28.044 35.29 27.8641 35.2047C27.6841 35.1193 27.5255 34.9947 27.4001 34.84L20.9601 26.84C20.7639 26.6014 20.6567 26.3021 20.6567 25.9933C20.6567 25.6845 20.7639 25.3852 20.9601 25.1466L27.6267 17.1466C27.853 16.8744 28.1783 16.7031 28.5308 16.6706C28.8834 16.6381 29.2344 16.747 29.5067 16.9733C29.779 17.1996 29.9502 17.5248 29.9827 17.8774C30.0153 18.23 29.9064 18.581 29.6801 18.8533L23.7201 26L29.4801 33.1466C29.6431 33.3424 29.7467 33.5807 29.7785 33.8334C29.8103 34.0861 29.7691 34.3427 29.6597 34.5727C29.5503 34.8028 29.3773 34.9967 29.1611 35.1315C28.945 35.2662 28.6948 35.3363 28.4401 35.3333Z" fill="white"/>
</svg>
