<svg width="128" height="44" viewBox="0 0 128 44" fill="none" xmlns="http://www.w3.org/2000/svg">
<g clip-path="url(#clip0_1780_21904)">
<path d="M11.9878 16.3359H15.5181C16.3188 16.3359 16.9951 16.458 17.5469 16.7021C18.1035 16.9463 18.5259 17.3076 18.814 17.7861C19.1069 18.2598 19.2534 18.8433 19.2534 19.5366C19.2534 20.0249 19.1533 20.4717 18.9531 20.877C18.7578 21.2773 18.4746 21.6191 18.1035 21.9023C17.7373 22.1807 17.2979 22.3882 16.7852 22.5249L16.3896 22.6787H13.0718L13.0571 21.5288H15.562C16.0698 21.5288 16.4922 21.4409 16.8291 21.2651C17.166 21.0845 17.4199 20.8428 17.5908 20.54C17.7617 20.2373 17.8472 19.9028 17.8472 19.5366C17.8472 19.1265 17.7666 18.7676 17.6055 18.46C17.4443 18.1523 17.1904 17.9155 16.8438 17.7495C16.502 17.5786 16.0601 17.4932 15.5181 17.4932H13.4014V27H11.9878V16.3359ZM18.2207 27L15.6279 22.166L17.1001 22.1587L19.7295 26.9121V27H18.2207ZM24.3145 27.1465C23.7627 27.1465 23.2622 27.0537 22.813 26.8682C22.3687 26.6777 21.9854 26.4116 21.6631 26.0698C21.3457 25.728 21.1016 25.3228 20.9307 24.854C20.7598 24.3853 20.6743 23.8726 20.6743 23.3159V23.0083C20.6743 22.3638 20.7695 21.79 20.96 21.2871C21.1504 20.7793 21.4092 20.3496 21.7363 19.998C22.0635 19.6465 22.4346 19.3804 22.8496 19.1997C23.2646 19.019 23.6943 18.9287 24.1387 18.9287C24.7051 18.9287 25.1934 19.0264 25.6035 19.2217C26.0186 19.417 26.3579 19.6904 26.6216 20.042C26.8853 20.3887 27.0806 20.7988 27.2075 21.2725C27.3345 21.7412 27.3979 22.2539 27.3979 22.8105V23.4185H21.48V22.3125H26.043V22.21C26.0234 21.8584 25.9502 21.5166 25.8232 21.1846C25.7012 20.8525 25.5059 20.5791 25.2373 20.3643C24.9688 20.1494 24.6025 20.042 24.1387 20.042C23.8311 20.042 23.5479 20.1079 23.2891 20.2397C23.0303 20.3667 22.8081 20.5571 22.6226 20.811C22.437 21.0649 22.293 21.375 22.1904 21.7412C22.0879 22.1074 22.0366 22.5298 22.0366 23.0083V23.3159C22.0366 23.6919 22.0879 24.0459 22.1904 24.3779C22.2979 24.7051 22.4517 24.9932 22.6519 25.2422C22.8569 25.4912 23.1035 25.6865 23.3916 25.8281C23.6846 25.9697 24.0166 26.0405 24.3877 26.0405C24.8662 26.0405 25.2715 25.9429 25.6035 25.7476C25.9355 25.5522 26.2261 25.291 26.4751 24.9639L27.2954 25.6157C27.1245 25.8745 26.9072 26.1211 26.6436 26.3555C26.3799 26.5898 26.0552 26.7803 25.6694 26.9268C25.2886 27.0732 24.8369 27.1465 24.3145 27.1465ZM33.6528 25.645V21.5654C33.6528 21.2529 33.5894 20.9819 33.4624 20.7524C33.3403 20.5181 33.1548 20.3374 32.9058 20.2104C32.6567 20.0835 32.3491 20.02 31.9829 20.02C31.6411 20.02 31.3408 20.0786 31.082 20.1958C30.8281 20.313 30.6279 20.4668 30.4814 20.6572C30.3398 20.8477 30.269 21.0527 30.269 21.2725H28.9141C28.9141 20.9893 28.9873 20.7085 29.1338 20.4302C29.2803 20.1519 29.4902 19.9004 29.7637 19.6758C30.042 19.4463 30.374 19.2656 30.7598 19.1338C31.1504 18.9971 31.585 18.9287 32.0635 18.9287C32.6396 18.9287 33.1475 19.0264 33.5869 19.2217C34.0312 19.417 34.3779 19.7124 34.627 20.1079C34.8809 20.4985 35.0078 20.9893 35.0078 21.5801V25.2715C35.0078 25.5352 35.0298 25.8159 35.0737 26.1138C35.1226 26.4116 35.1934 26.668 35.2861 26.8828V27H33.8726C33.8042 26.8438 33.7505 26.6362 33.7114 26.3774C33.6724 26.1138 33.6528 25.8696 33.6528 25.645ZM33.8872 22.1953L33.9019 23.1475H32.5322C32.1465 23.1475 31.8022 23.1792 31.4995 23.2427C31.1968 23.3013 30.9429 23.3916 30.7378 23.5137C30.5327 23.6357 30.3765 23.7896 30.269 23.9751C30.1616 24.1558 30.1079 24.3682 30.1079 24.6123C30.1079 24.8613 30.1641 25.0884 30.2764 25.2935C30.3887 25.4985 30.5571 25.6621 30.7817 25.7842C31.0112 25.9014 31.292 25.96 31.624 25.96C32.0391 25.96 32.4053 25.8721 32.7227 25.6963C33.04 25.5205 33.2915 25.3057 33.4771 25.0518C33.6675 24.7979 33.77 24.5513 33.7847 24.312L34.3633 24.9639C34.3291 25.1689 34.2363 25.396 34.085 25.645C33.9336 25.894 33.731 26.1333 33.4771 26.3628C33.228 26.5874 32.9302 26.7754 32.5835 26.9268C32.2417 27.0732 31.856 27.1465 31.4263 27.1465C30.8892 27.1465 30.418 27.0415 30.0127 26.8315C29.6123 26.6216 29.2998 26.3408 29.0752 25.9893C28.8555 25.6328 28.7456 25.2349 28.7456 24.7954C28.7456 24.3706 28.8286 23.9971 28.9946 23.6748C29.1606 23.3477 29.3999 23.0767 29.7124 22.8618C30.0249 22.6421 30.4009 22.4761 30.8403 22.3638C31.2798 22.2515 31.7705 22.1953 32.3125 22.1953H33.8872ZM42.1343 25.4619V15.75H43.4966V27H42.2515L42.1343 25.4619ZM36.8022 23.1255V22.9717C36.8022 22.3662 36.8755 21.8169 37.022 21.3237C37.1733 20.8257 37.3857 20.3984 37.6592 20.042C37.9375 19.6855 38.2671 19.4121 38.6479 19.2217C39.0337 19.0264 39.4634 18.9287 39.937 18.9287C40.4351 18.9287 40.8696 19.0166 41.2407 19.1924C41.6167 19.3633 41.9341 19.6147 42.1929 19.9468C42.4565 20.2739 42.6641 20.6694 42.8154 21.1333C42.9668 21.5972 43.0718 22.1221 43.1304 22.708V23.3818C43.0767 23.9629 42.9717 24.4854 42.8154 24.9492C42.6641 25.4131 42.4565 25.8086 42.1929 26.1357C41.9341 26.4629 41.6167 26.7144 41.2407 26.8901C40.8647 27.061 40.4253 27.1465 39.9224 27.1465C39.4585 27.1465 39.0337 27.0464 38.6479 26.8462C38.2671 26.646 37.9375 26.3652 37.6592 26.0039C37.3857 25.6426 37.1733 25.2178 37.022 24.7295C36.8755 24.2363 36.8022 23.7017 36.8022 23.1255ZM38.1646 22.9717V23.1255C38.1646 23.521 38.2036 23.8921 38.2817 24.2388C38.3647 24.5854 38.4917 24.8906 38.6626 25.1543C38.8335 25.418 39.0508 25.6255 39.3145 25.7769C39.5781 25.9233 39.8931 25.9966 40.2593 25.9966C40.7085 25.9966 41.0771 25.9014 41.3652 25.7109C41.6582 25.5205 41.8926 25.269 42.0684 24.9565C42.2441 24.644 42.3809 24.3047 42.4785 23.9385V22.1733C42.4199 21.9048 42.3345 21.646 42.2222 21.397C42.1147 21.1431 41.9731 20.9185 41.7974 20.7231C41.6265 20.5229 41.4141 20.3643 41.1602 20.2471C40.9111 20.1299 40.6157 20.0713 40.2739 20.0713C39.9028 20.0713 39.583 20.1494 39.3145 20.3057C39.0508 20.457 38.8335 20.667 38.6626 20.9355C38.4917 21.1992 38.3647 21.5068 38.2817 21.8584C38.2036 22.2051 38.1646 22.5762 38.1646 22.9717ZM49.9785 16.3359H51.3481L54.8418 25.0298L58.3281 16.3359H59.7051L55.3691 27H54.2998L49.9785 16.3359ZM49.5317 16.3359H50.7402L50.938 22.8398V27H49.5317V16.3359ZM58.936 16.3359H60.1445V27H58.7383V22.8398L58.936 16.3359ZM62.0635 23.1255V22.957C62.0635 22.3857 62.1465 21.856 62.3125 21.3677C62.4785 20.8745 62.7178 20.4473 63.0303 20.0859C63.3428 19.7197 63.7212 19.4365 64.1655 19.2363C64.6099 19.0312 65.1079 18.9287 65.6597 18.9287C66.2163 18.9287 66.7168 19.0312 67.1611 19.2363C67.6104 19.4365 67.9912 19.7197 68.3037 20.0859C68.6211 20.4473 68.8628 20.8745 69.0288 21.3677C69.1948 21.856 69.2778 22.3857 69.2778 22.957V23.1255C69.2778 23.6968 69.1948 24.2266 69.0288 24.7148C68.8628 25.2031 68.6211 25.6304 68.3037 25.9966C67.9912 26.3579 67.6128 26.6411 67.1685 26.8462C66.729 27.0464 66.231 27.1465 65.6743 27.1465C65.1177 27.1465 64.6172 27.0464 64.1729 26.8462C63.7285 26.6411 63.3477 26.3579 63.0303 25.9966C62.7178 25.6304 62.4785 25.2031 62.3125 24.7148C62.1465 24.2266 62.0635 23.6968 62.0635 23.1255ZM63.4185 22.957V23.1255C63.4185 23.521 63.4648 23.8945 63.5576 24.2461C63.6504 24.5928 63.7896 24.9004 63.9751 25.1689C64.1655 25.4375 64.4023 25.6499 64.6855 25.8062C64.9688 25.9575 65.2983 26.0332 65.6743 26.0332C66.0454 26.0332 66.3701 25.9575 66.6484 25.8062C66.9316 25.6499 67.166 25.4375 67.3516 25.1689C67.5371 24.9004 67.6763 24.5928 67.769 24.2461C67.8667 23.8945 67.9155 23.521 67.9155 23.1255V22.957C67.9155 22.5664 67.8667 22.1978 67.769 21.8511C67.6763 21.4995 67.5347 21.1895 67.3442 20.9209C67.1587 20.6475 66.9243 20.4326 66.6411 20.2764C66.3628 20.1201 66.0356 20.042 65.6597 20.042C65.2886 20.042 64.9614 20.1201 64.6782 20.2764C64.3999 20.4326 64.1655 20.6475 63.9751 20.9209C63.7896 21.1895 63.6504 21.4995 63.5576 21.8511C63.4648 22.1978 63.4185 22.5664 63.4185 22.957ZM72.332 20.3203V27H70.9771V19.0752H72.2954L72.332 20.3203ZM74.8076 19.0312L74.8003 20.291C74.688 20.2666 74.5806 20.252 74.478 20.2471C74.3804 20.2373 74.2681 20.2324 74.1411 20.2324C73.8286 20.2324 73.5527 20.2812 73.3135 20.3789C73.0742 20.4766 72.8716 20.6133 72.7056 20.7891C72.5396 20.9648 72.4077 21.1748 72.3101 21.4189C72.2173 21.6582 72.1562 21.9219 72.127 22.21L71.7461 22.4297C71.7461 21.9512 71.7925 21.502 71.8853 21.082C71.9829 20.6621 72.1318 20.291 72.332 19.9688C72.5322 19.6416 72.7861 19.3877 73.0938 19.207C73.4062 19.0215 73.7773 18.9287 74.207 18.9287C74.3047 18.9287 74.417 18.9409 74.5439 18.9653C74.6709 18.9849 74.7588 19.0068 74.8076 19.0312ZM79.2021 27.1465C78.6504 27.1465 78.1499 27.0537 77.7007 26.8682C77.2563 26.6777 76.873 26.4116 76.5508 26.0698C76.2334 25.728 75.9893 25.3228 75.8184 24.854C75.6475 24.3853 75.562 23.8726 75.562 23.3159V23.0083C75.562 22.3638 75.6572 21.79 75.8477 21.2871C76.0381 20.7793 76.2969 20.3496 76.624 19.998C76.9512 19.6465 77.3223 19.3804 77.7373 19.1997C78.1523 19.019 78.582 18.9287 79.0264 18.9287C79.5928 18.9287 80.0811 19.0264 80.4912 19.2217C80.9062 19.417 81.2456 19.6904 81.5093 20.042C81.7729 20.3887 81.9683 20.7988 82.0952 21.2725C82.2222 21.7412 82.2856 22.2539 82.2856 22.8105V23.4185H76.3677V22.3125H80.9307V22.21C80.9111 21.8584 80.8379 21.5166 80.7109 21.1846C80.5889 20.8525 80.3936 20.5791 80.125 20.3643C79.8564 20.1494 79.4902 20.042 79.0264 20.042C78.7188 20.042 78.4355 20.1079 78.1768 20.2397C77.918 20.3667 77.6958 20.5571 77.5103 20.811C77.3247 21.0649 77.1807 21.375 77.0781 21.7412C76.9756 22.1074 76.9243 22.5298 76.9243 23.0083V23.3159C76.9243 23.6919 76.9756 24.0459 77.0781 24.3779C77.1855 24.7051 77.3394 24.9932 77.5396 25.2422C77.7446 25.4912 77.9912 25.6865 78.2793 25.8281C78.5723 25.9697 78.9043 26.0405 79.2754 26.0405C79.7539 26.0405 80.1592 25.9429 80.4912 25.7476C80.8232 25.5522 81.1138 25.291 81.3628 24.9639L82.1831 25.6157C82.0122 25.8745 81.7949 26.1211 81.5312 26.3555C81.2676 26.5898 80.9429 26.7803 80.5571 26.9268C80.1763 27.0732 79.7246 27.1465 79.2021 27.1465Z" fill="#52AB98"/>
<g clip-path="url(#clip1_1780_21904)">
<path d="M98.75 23H110.61L106.98 27.36C106.896 27.4611 106.833 27.5778 106.794 27.7034C106.755 27.829 106.741 27.961 106.753 28.0919C106.777 28.3564 106.906 28.6003 107.11 28.77C107.314 28.9397 107.577 29.0214 107.842 28.997C108.106 28.9726 108.35 28.8442 108.52 28.64L113.52 22.64C113.554 22.5923 113.584 22.5421 113.61 22.49C113.61 22.44 113.66 22.41 113.68 22.36C113.725 22.2453 113.749 22.1233 113.75 22C113.749 21.8767 113.725 21.7547 113.68 21.64C113.68 21.59 113.63 21.56 113.61 21.51C113.584 21.4579 113.554 21.4077 113.52 21.36L108.52 15.36C108.426 15.2471 108.308 15.1563 108.175 15.0941C108.042 15.0319 107.897 14.9998 107.75 15C107.516 14.9995 107.29 15.0809 107.11 15.23C107.009 15.314 106.925 15.4171 106.864 15.5334C106.802 15.6497 106.765 15.7771 106.752 15.908C106.74 16.039 106.754 16.1711 106.793 16.2967C106.832 16.4223 106.896 16.539 106.98 16.64L110.61 21H98.75C98.4848 21 98.2304 21.1054 98.0429 21.2929C97.8554 21.4804 97.75 21.7348 97.75 22C97.75 22.2652 97.8554 22.5196 98.0429 22.7071C98.2304 22.8946 98.4848 23 98.75 23Z" fill="#52AB98"/>
</g>
</g>
<defs>
<clipPath id="clip0_1780_21904">
<rect x="0.75" width="127" height="44" rx="5" fill="white"/>
</clipPath>
<clipPath id="clip1_1780_21904">
<rect width="24" height="24" fill="white" transform="translate(93.75 10)"/>
</clipPath>
</defs>
</svg>
