<svg width="52" height="52" viewBox="0 0 52 52" fill="none" xmlns="http://www.w3.org/2000/svg">
<rect width="52" height="52" rx="26" fill="black" fill-opacity="0.3"/>
<path d="M23.3332 35.3333C23.0217 35.3339 22.7198 35.2254 22.4799 35.0266C22.3449 34.9147 22.2333 34.7772 22.1515 34.6221C22.0697 34.4669 22.0193 34.2972 22.0032 34.1226C21.9871 33.9479 22.0056 33.7718 22.0577 33.6044C22.1097 33.4369 22.1943 33.2813 22.3066 33.1466L28.2799 25.9999L22.5199 18.8399C22.4092 18.7036 22.3264 18.5466 22.2765 18.3782C22.2266 18.2097 22.2105 18.0331 22.2291 17.8584C22.2477 17.6837 22.3006 17.5144 22.3848 17.3602C22.4691 17.206 22.5829 17.07 22.7199 16.9599C22.8579 16.8386 23.0194 16.747 23.1944 16.691C23.3694 16.635 23.5541 16.6158 23.7369 16.6346C23.9197 16.6534 24.0967 16.7097 24.2566 16.8001C24.4166 16.8906 24.5562 17.013 24.6666 17.1599L31.1066 25.1599C31.3027 25.3985 31.4099 25.6978 31.4099 26.0066C31.4099 26.3154 31.3027 26.6147 31.1066 26.8533L24.4399 34.8533C24.3061 35.0146 24.1362 35.1422 23.944 35.2256C23.7517 35.309 23.5424 35.3459 23.3332 35.3333Z" fill="white"/>
</svg>
