<svg width="40" height="40" viewBox="0 0 40 40" fill="none" xmlns="http://www.w3.org/2000/svg">
<path d="M34.0222 20.6367L23.2139 31.4449C23.0432 31.604 22.8173 31.6906 22.584 31.6865C22.3507 31.6824 22.128 31.5879 21.963 31.4229C21.798 31.2578 21.7035 31.0352 21.6993 30.8019C21.6952 30.5685 21.7818 30.3427 21.9409 30.172L31.2105 20.9009H6.96551C6.72663 20.9009 6.49754 20.806 6.32862 20.6371C6.15971 20.4682 6.06482 20.2391 6.06482 20.0002C6.06482 19.7613 6.15971 19.5322 6.32862 19.3633C6.49754 19.1944 6.72663 19.0995 6.96551 19.0995H31.2105L21.9409 9.82843C21.7818 9.65769 21.6952 9.43186 21.6993 9.19852C21.7035 8.96518 21.798 8.74255 21.963 8.57753C22.128 8.4125 22.3507 8.31798 22.584 8.31386C22.8173 8.30974 23.0432 8.39636 23.2139 8.55546L34.0222 19.3637C34.1908 19.5326 34.2856 19.7615 34.2856 20.0002C34.2856 20.2389 34.1908 20.4678 34.0222 20.6367Z" fill="white"/>
</svg>
