<svg width="101" height="101" viewBox="0 0 101 101" fill="none" xmlns="http://www.w3.org/2000/svg">
<path d="M94.9749 16.0488V73.4677C94.9749 74.3137 94.6388 75.1251 94.0406 75.7233C93.4424 76.3215 92.631 76.6576 91.785 76.6576H63.0756C60.5416 76.6576 58.1111 77.6625 56.3171 79.4521C54.5231 81.2416 53.5121 83.6696 53.5058 86.2035C53.5185 86.8548 53.329 87.494 52.9634 88.0332C52.5978 88.5723 52.074 88.9849 51.4642 89.214C50.9801 89.4008 50.4578 89.4667 49.9424 89.4059C49.4271 89.3452 48.9344 89.1597 48.507 88.8654C48.0796 88.5712 47.7304 88.1772 47.4897 87.7175C47.2491 87.2578 47.1242 86.7463 47.1259 86.2274C47.1259 83.6893 46.1177 81.2552 44.323 79.4605C42.5283 77.6658 40.0942 76.6576 37.5561 76.6576H8.84667C8.00065 76.6576 7.18928 76.3215 6.59105 75.7233C5.99282 75.1251 5.65674 74.3137 5.65674 73.4677V16.0488C5.65674 15.2028 5.99282 14.3914 6.59105 13.7932C7.18928 13.195 8.00065 12.8589 8.84667 12.8589H34.3662C37.7502 12.8589 40.9957 14.2032 43.3887 16.5961C45.7816 18.989 47.1259 22.2345 47.1259 25.6186V60.6003C47.1148 61.4235 47.4158 62.2204 47.9684 62.8307C48.521 63.441 49.2842 63.8194 50.1045 63.8899C50.5408 63.9188 50.9785 63.8578 51.3902 63.7105C51.802 63.5632 52.1791 63.3329 52.498 63.0337C52.817 62.7346 53.071 62.373 53.2444 61.9715C53.4178 61.5701 53.5067 61.1372 53.5058 60.6999V25.6186C53.5058 22.2345 54.8501 18.989 57.243 16.5961C59.6359 14.2032 62.8814 12.8589 66.2655 12.8589H91.785C92.631 12.8589 93.4424 13.195 94.0406 13.7932C94.6388 14.3914 94.9749 15.2028 94.9749 16.0488Z" fill="#21CDC1"/>
</svg>
