<svg width="101" height="101" viewBox="0 0 101 101" fill="none" xmlns="http://www.w3.org/2000/svg">
<path d="M86.8946 16.054H16.7161C15.024 16.054 13.4013 16.7261 12.2048 17.9226C11.0083 19.119 10.3362 20.7418 10.3362 22.4338V79.8527C10.3362 81.5447 11.0083 83.1675 12.2048 84.3639C13.4013 85.5604 15.024 86.2325 16.7161 86.2325H22.0552C22.6589 86.2327 23.2503 86.0616 23.7606 85.739C24.271 85.4165 24.6793 84.9557 24.9381 84.4103C26.4893 81.1353 28.9383 78.368 32.0004 76.4302C35.0625 74.4923 38.6118 73.4636 42.2355 73.4636C45.8593 73.4636 49.4086 74.4923 52.4707 76.4302C55.5327 78.368 57.9818 81.1353 59.533 84.4103C59.7918 84.9557 60.2001 85.4165 60.7104 85.739C61.2208 86.0616 61.8121 86.2327 62.4159 86.2325H86.8946C88.5867 86.2325 90.2094 85.5604 91.4059 84.3639C92.6023 83.1675 93.2745 81.5447 93.2745 79.8527V22.4338C93.2745 20.7418 92.6023 19.119 91.4059 17.9226C90.2094 16.7261 88.5867 16.054 86.8946 16.054ZM42.2355 67.0929C39.7119 67.0929 37.2449 66.3446 35.1466 64.9425C33.0483 63.5405 31.4128 61.5477 30.4471 59.2161C29.4813 56.8846 29.2286 54.319 29.721 51.8439C30.2133 49.3687 31.4286 47.0952 33.213 45.3107C34.9975 43.5262 37.2711 42.3109 39.7462 41.8186C42.2214 41.3263 44.7869 41.579 47.1185 42.5447C49.45 43.5105 51.4428 45.1459 52.8449 47.2442C54.2469 49.3426 54.9953 51.8095 54.9953 54.3332C54.9953 57.7173 53.6509 60.9628 51.258 63.3557C48.8651 65.7486 45.6196 67.0929 42.2355 67.0929ZM86.8946 79.8527H64.3378C62.9471 77.4549 61.1747 75.3 59.0904 73.4728H77.3248C78.1708 73.4728 78.9822 73.1367 79.5805 72.5385C80.1787 71.9403 80.5148 71.1289 80.5148 70.2829V32.0036C80.5148 31.1576 80.1787 30.3462 79.5805 29.748C78.9822 29.1498 78.1708 28.8137 77.3248 28.8137H26.2859C25.4398 28.8137 24.6285 29.1498 24.0302 29.748C23.432 30.3462 23.0959 31.1576 23.0959 32.0036V70.2829C23.0956 70.9903 23.3304 71.6778 23.7635 72.2373C24.1966 72.7967 24.8034 73.1962 25.4884 73.3731C23.356 75.2206 21.5462 77.4105 20.1333 79.8527H16.7161V22.4338H86.8946V79.8527Z" fill="#21CDC1"/>
</svg>
