<svg width="101" height="101" viewBox="0 0 101 101" fill="none" xmlns="http://www.w3.org/2000/svg">
<path d="M98.7376 32.7931C98.7391 31.0444 98.3299 29.3198 97.5429 27.7583C96.7558 26.1968 95.613 24.8419 94.2065 23.803C92.8 22.764 91.1691 22.0699 89.4452 21.7767C87.7213 21.4834 85.9526 21.5992 84.2816 22.1146C82.6107 22.6301 81.0842 23.5309 79.8251 24.7443C78.566 25.9578 77.6096 27.4501 77.0328 29.1009C76.4561 30.7517 76.2751 32.5149 76.5046 34.2484C76.7341 35.9819 77.3675 37.6373 78.3539 39.0812L67.6716 52.2397L58.0659 30.1614C59.8178 28.6869 61.074 26.7094 61.6642 24.497C62.2543 22.2845 62.15 19.9441 61.3652 17.793C60.5804 15.6418 59.1532 13.784 57.277 12.4713C55.4009 11.1586 53.1664 10.4546 50.8766 10.4546C48.5868 10.4546 46.3524 11.1586 44.4762 12.4713C42.6 13.784 41.1728 15.6418 40.388 17.793C39.6032 19.9441 39.4989 22.2845 40.089 24.497C40.6792 26.7094 41.9354 28.6869 43.6873 30.1614L34.1055 52.2277L23.4232 39.0693C24.7955 37.0586 25.4729 34.6545 25.3525 32.2232C25.2321 29.7919 24.3203 27.4665 22.7561 25.6013C21.1918 23.7361 19.0609 22.4333 16.6877 21.8912C14.3145 21.3491 11.8292 21.5975 9.61024 22.5985C7.39128 23.5995 5.5603 25.2984 4.39613 27.4362C3.23197 29.5741 2.79843 32.0339 3.16154 34.441C3.52465 36.848 4.66451 39.0705 6.40753 40.7698C8.15054 42.4691 10.4012 43.5522 12.8167 43.8542L18.5905 78.5008C18.8387 79.9904 19.6072 81.3436 20.7594 82.3198C21.9115 83.2959 23.3725 83.8318 24.8826 83.832H76.8945C78.4046 83.8318 79.8656 83.2959 81.0178 82.3198C82.1699 81.3436 82.9384 79.9904 83.1867 78.5008L88.9565 43.8701C91.6567 43.5329 94.1407 42.2211 95.9419 40.1814C97.743 38.1416 98.7372 35.5142 98.7376 32.7931ZM50.8886 16.8434C51.8349 16.8434 52.76 17.124 53.5469 17.6498C54.3338 18.1756 54.9471 18.9229 55.3092 19.7972C55.6714 20.6715 55.7662 21.6336 55.5815 22.5618C55.3969 23.49 54.9412 24.3426 54.272 25.0117C53.6028 25.6809 52.7502 26.1366 51.8221 26.3213C50.8939 26.5059 49.9318 26.4111 49.0575 26.049C48.1831 25.6868 47.4358 25.0735 46.9101 24.2866C46.3843 23.4998 46.1037 22.5747 46.1037 21.6283C46.1037 20.3593 46.6078 19.1422 47.5051 18.2449C48.4025 17.3475 49.6195 16.8434 50.8886 16.8434ZM9.41941 32.7931C9.41941 31.8467 9.70004 30.9216 10.2258 30.1347C10.7516 29.3478 11.4989 28.7345 12.3732 28.3724C13.2475 28.0102 14.2096 27.9155 15.1378 28.1001C16.066 28.2847 16.9186 28.7404 17.5878 29.4096C18.2569 30.0788 18.7126 30.9314 18.8973 31.8596C19.0819 32.7878 18.9871 33.7498 18.625 34.6242C18.2628 35.4985 17.6495 36.2458 16.8627 36.7716C16.0758 37.2973 15.1507 37.578 14.2043 37.578C12.9353 37.578 11.7182 37.0738 10.8209 36.1765C9.92353 35.2792 9.41941 34.0621 9.41941 32.7931ZM87.5728 37.578C86.6265 37.578 85.7013 37.2973 84.9145 36.7716C84.1276 36.2458 83.5143 35.4985 83.1522 34.6242C82.79 33.7498 82.6952 32.7878 82.8799 31.8596C83.0645 30.9314 83.5202 30.0788 84.1894 29.4096C84.8586 28.7404 85.7112 28.2847 86.6393 28.1001C87.5675 27.9155 88.5296 28.0102 89.4039 28.3724C90.2782 28.7345 91.0255 29.3478 91.5513 30.1347C92.0771 30.9216 92.3577 31.8467 92.3577 32.7931C92.3577 34.0621 91.8536 35.2792 90.9563 36.1765C90.0589 37.0738 88.8419 37.578 87.5728 37.578Z" fill="#21CDC1"/>
</svg>
