<svg width="20" height="19" viewBox="0 0 20 19" fill="none" xmlns="http://www.w3.org/2000/svg">
<path d="M6.42857 3.6462C6.42854 2.95631 6.62024 2.28057 6.98139 1.69747C7.34255 1.11437 7.85835 0.647836 8.46887 0.352068C9.07938 0.0563003 9.75957 -0.0565665 10.4304 0.0265775C11.1013 0.109722 11.7352 0.385464 12.2587 0.821776C12.7822 1.25809 13.1736 1.83706 13.3876 2.49145C13.6016 3.14583 13.6294 3.84877 13.4676 4.51861C13.3059 5.18845 12.9613 5.7977 12.474 6.2756C11.9866 6.75349 11.3764 7.08041 10.7143 7.21839V13.8551C10.7143 14.0485 10.639 14.2339 10.5051 14.3707C10.3711 14.5075 10.1894 14.5843 10 14.5843C9.81056 14.5843 9.62888 14.5075 9.49492 14.3707C9.36097 14.2339 9.28571 14.0485 9.28571 13.8551V7.21839C8.47956 7.04953 7.75513 6.60196 7.23464 5.95121C6.71415 5.30045 6.42945 4.48633 6.42857 3.6462ZM18.0357 11.1743C16.9411 10.5417 15.4357 10.0559 13.6812 9.76879C13.5884 9.75383 13.4937 9.75767 13.4023 9.7801C13.311 9.80254 13.2248 9.84312 13.1489 9.89953C13.0729 9.95595 13.0085 10.0271 12.9595 10.1089C12.9104 10.1907 12.8776 10.2816 12.8629 10.3763C12.8483 10.4711 12.8521 10.5678 12.874 10.6611C12.896 10.7543 12.9358 10.8423 12.991 10.9198C13.0463 10.9974 13.116 11.0631 13.1961 11.1132C13.2762 11.1633 13.3652 11.1967 13.458 11.2117C15.0241 11.4687 16.4045 11.9072 17.3348 12.4468C18.125 12.898 18.5714 13.4121 18.5714 13.8551C18.5714 15.0728 15.3107 16.7719 10 16.7719C4.68929 16.7719 1.42857 15.0728 1.42857 13.8551C1.42857 13.4121 1.875 12.898 2.66518 12.4431C3.59911 11.9035 4.97589 11.4651 6.54196 11.2081C6.63674 11.1954 6.72807 11.1635 6.81054 11.1142C6.893 11.0648 6.96494 10.9991 7.02207 10.9209C7.07921 10.8427 7.12038 10.7535 7.14316 10.6588C7.16593 10.564 7.16985 10.4655 7.15467 10.3692C7.13949 10.2728 7.10552 10.1806 7.05478 10.0979C7.00404 10.0152 6.93756 9.94375 6.85928 9.88776C6.781 9.83178 6.69251 9.7924 6.59904 9.77196C6.50558 9.75153 6.40906 9.75045 6.31518 9.76879C4.56071 10.0559 3.05536 10.5417 1.96071 11.1743C0.340179 12.1114 0 13.1496 0 13.8551C0 16.6972 5.15268 18.2303 10 18.2303C14.8473 18.2303 20 16.6972 20 13.8551C20 13.1496 19.6598 12.1114 18.0357 11.1743Z" fill="#fff"/>
</svg>
