<svg width="20" height="17" viewBox="0 0 20 17" fill="none" xmlns="http://www.w3.org/2000/svg">
<path d="M19.2308 0.210938H0.769231C0.565218 0.210938 0.369561 0.295223 0.225302 0.445252C0.0810437 0.595281 0 0.798764 0 1.01094V14.6109C0 15.0353 0.162087 15.4423 0.450605 15.7423C0.739122 16.0424 1.13044 16.2109 1.53846 16.2109H18.4615C18.8696 16.2109 19.2609 16.0424 19.5494 15.7423C19.8379 15.4423 20 15.0353 20 14.6109V1.01094C20 0.798764 19.919 0.595281 19.7747 0.445252C19.6304 0.295223 19.4348 0.210938 19.2308 0.210938ZM18.4615 14.6109H1.53846V2.82994L9.47981 10.4009C9.62172 10.5364 9.80736 10.6116 10 10.6116C10.1926 10.6116 10.3783 10.5364 10.5202 10.4009L18.4615 2.82994V14.6109Z" fill="#fff"/>
</svg>
