<svg width="43" height="42" viewBox="0 0 43 42" fill="none" xmlns="http://www.w3.org/2000/svg">
<path fill-rule="evenodd" clip-rule="evenodd" d="M21.5421 41.2697C32.9384 41.2697 42.1769 32.0311 42.1769 20.6348C42.1769 9.23853 32.9384 0 21.5421 0C10.1458 0 0.907227 9.23853 0.907227 20.6348C0.907227 32.0311 10.1458 41.2697 21.5421 41.2697ZM21.542 38.4235C31.3664 38.4235 39.3307 30.4592 39.3307 20.6348C39.3307 10.8104 31.3664 2.84617 21.542 2.84617C11.7176 2.84617 3.75339 10.8104 3.75339 20.6348C3.75339 30.4592 11.7176 38.4235 21.542 38.4235Z" fill="#44A1A0"/>
<path d="M24.2636 21.5634L18.7637 16.0634L20.3351 14.492L27.4065 21.5634L20.3351 28.6347L18.7637 27.0633L24.2636 21.5634Z" fill="#44A1A0"/>
</svg>
