<svg width="42" height="42" viewBox="0 0 42 42" fill="none" xmlns="http://www.w3.org/2000/svg">
<path fill-rule="evenodd" clip-rule="evenodd" d="M20.6347 7.62939e-06C9.23839 7.62939e-06 -0.000144958 9.23854 -0.000144958 20.6348C-0.000144958 32.0312 9.23839 41.2697 20.6347 41.2697C32.031 41.2697 41.2695 32.0312 41.2695 20.6348C41.2695 9.23854 32.031 7.62939e-06 20.6347 7.62939e-06ZM20.6347 2.84621C10.8103 2.84621 2.84606 10.8105 2.84606 20.6349C2.84606 30.4593 10.8103 38.4235 20.6347 38.4235C30.4591 38.4235 38.4234 30.4593 38.4234 20.6349C38.4234 10.8105 30.4591 2.84621 20.6347 2.84621Z" fill="#44A1A0"/>
<path d="M17.9132 21.7063L23.4131 27.2063L21.8417 28.7777L14.7703 21.7063L21.8417 14.635L23.4131 16.2064L17.9132 21.7063Z" fill="#44A1A0"/>
</svg>
