<svg width="101" height="101" viewBox="0 0 101 101" fill="none" xmlns="http://www.w3.org/2000/svg">
<path d="M91.1469 23.3741L52.8676 10.6144C52.2128 10.3961 51.5048 10.3961 50.85 10.6144L12.5708 23.3741C11.9356 23.5859 11.3831 23.9921 10.9917 24.5353C10.6002 25.0785 10.3896 25.7311 10.3896 26.4006V58.2999C10.3896 59.146 10.7257 59.9573 11.324 60.5556C11.9222 61.1538 12.7336 61.4899 13.5796 61.4899C14.4256 61.4899 15.237 61.1538 15.8352 60.5556C16.4334 59.9573 16.7695 59.146 16.7695 58.2999V30.8266L30.1633 35.2886C26.6047 41.0376 25.4731 47.9639 27.0169 54.5466C28.5607 61.1293 32.6538 66.8303 38.3973 70.3978C31.2199 73.2129 25.0155 78.3048 20.4778 85.2669C20.2418 85.6176 20.0779 86.0118 19.9956 86.4264C19.9133 86.8411 19.9142 87.268 19.9983 87.6823C20.0824 88.0966 20.248 88.49 20.4855 88.8397C20.723 89.1895 21.0277 89.4885 21.3818 89.7194C21.7359 89.9504 22.1323 90.1087 22.5481 90.185C22.9639 90.2614 23.3907 90.2544 23.8038 90.1644C24.2168 90.0743 24.6079 89.9031 24.9542 89.6606C25.3005 89.4181 25.5951 89.1092 25.821 88.7519C31.83 79.533 41.3201 74.2496 51.8588 74.2496C62.3976 74.2496 71.8876 79.533 77.8967 88.7519C78.3645 89.4472 79.0873 89.9305 79.9086 90.0973C80.73 90.2641 81.584 90.1009 82.286 89.643C82.988 89.1851 83.4816 88.4694 83.6601 87.6505C83.8385 86.8316 83.6876 85.9753 83.2398 85.2669C78.7021 78.3048 72.4738 73.2129 65.3203 70.3978C71.0584 66.8304 75.1475 61.1331 76.691 54.5553C78.2346 47.9774 77.1066 41.0559 73.5544 35.3085L91.1469 29.447C91.7822 29.2354 92.3348 28.8292 92.7264 28.286C93.118 27.7428 93.3287 27.0902 93.3287 26.4205C93.3287 25.7509 93.118 25.0983 92.7264 24.5551C92.3348 24.0119 91.7822 23.6057 91.1469 23.3941V23.3741ZM70.9984 48.7301C70.9993 51.756 70.2827 54.739 68.9075 57.4343C67.5323 60.1296 65.5376 62.4604 63.0871 64.2356C60.6366 66.0107 57.8002 67.1796 54.8105 67.6462C51.8208 68.1129 48.7631 67.864 45.8882 66.9201C43.0134 65.9762 40.4032 64.3641 38.272 62.2161C36.1408 60.0681 34.5493 57.4454 33.628 54.5632C32.7067 51.681 32.4818 48.6214 32.9719 45.6355C33.462 42.6496 34.6531 39.8224 36.4474 37.3859L50.85 42.1708C51.5048 42.3891 52.2128 42.3891 52.8676 42.1708L67.2702 37.3859C69.6937 40.6716 71.0003 44.6474 70.9984 48.7301Z" fill="#21CDC1"/>
</svg>
