<svg width="11" height="28" viewBox="0 0 11 28" fill="none" xmlns="http://www.w3.org/2000/svg">
<path d="M4.8 9.5C6.39 9.5 9.12 9.86 9.12 11.84C9.12 12.995 8.28 13.505 7.2 13.985C8.385 14.195 9.96 14.945 9.96 16.835C9.96 18.755 7.845 20 5.445 20H0.75V19.82C1.365 19.82 1.8 19.64 1.8 19.025V10.475C1.8 9.86 1.365 9.68 0.75 9.68V9.5H4.8ZM2.7 19.82H4.77C7.335 19.82 8.985 18.755 8.985 16.835C8.985 15.11 7.89 14.3 6.885 14.135C5.025 14.945 2.7 15.86 2.7 19.82ZM2.7 18.08C3.66 13.835 8.145 14.195 8.145 11.6C8.145 9.74 5.355 9.68 4.125 9.68H2.7V18.08Z" fill="white"/>
<mask id="mask0_77_27" style="mask-type:luminance" maskUnits="userSpaceOnUse" x="0" y="8" width="11" height="13">
<path d="M11 8H0V21H11V8Z" fill="white"/>
<path d="M4.8 9.5C6.39 9.5 9.12 9.86 9.12 11.84C9.12 12.995 8.28 13.505 7.2 13.985C8.385 14.195 9.96 14.945 9.96 16.835C9.96 18.755 7.845 20 5.445 20H0.75V19.82C1.365 19.82 1.8 19.64 1.8 19.025V10.475C1.8 9.86 1.365 9.68 0.75 9.68V9.5H4.8ZM2.7 19.82H4.77C7.335 19.82 8.985 18.755 8.985 16.835C8.985 15.11 7.89 14.3 6.885 14.135C5.025 14.945 2.7 15.86 2.7 19.82ZM2.7 18.08C3.66 13.835 8.145 14.195 8.145 11.6C8.145 9.74 5.355 9.68 4.125 9.68H2.7V18.08Z" fill="white"/>
</mask>
<g mask="url(#mask0_77_27)">
<path d="M7.20039 13.985L6.95671 13.4367L5.164 14.2335L7.09569 14.5758L7.20039 13.985ZM0.750391 20H0.150391V20.6H0.750391V20ZM0.750391 19.82V19.22H0.150391V19.82H0.750391ZM0.750391 9.67999H0.150391V10.28H0.750391V9.67999ZM0.750391 9.49999V8.89999H0.150391V9.49999H0.750391ZM2.70039 19.82H2.10039V20.42H2.70039V19.82ZM6.88539 14.135L6.9826 13.5429L6.80803 13.5143L6.64583 13.5849L6.88539 14.135ZM2.70039 18.08H2.10039L3.28561 18.2123L2.70039 18.08ZM2.70039 9.67999V9.07999H2.10039V9.67999H2.70039ZM4.80039 9.49999V10.1C5.56695 10.1 6.56147 10.1889 7.34205 10.4878C8.11979 10.7857 8.52039 11.2125 8.52039 11.84H9.12039H9.72039C9.72039 10.4875 8.75599 9.74432 7.77123 9.36718C6.78931 8.99112 5.62384 8.89999 4.80039 8.89999V9.49999ZM9.12039 11.84H8.52039C8.52039 12.2445 8.3841 12.5075 8.14943 12.7332C7.8867 12.9859 7.49302 13.1984 6.95671 13.4367L7.20039 13.985L7.44407 14.5333C7.98776 14.2916 8.55408 14.0091 8.98135 13.598C9.43668 13.16 9.72039 12.5905 9.72039 11.84H9.12039ZM7.20039 13.985L7.09569 14.5758C7.62424 14.6695 8.20519 14.8793 8.64144 15.2416C9.05743 15.587 9.36039 16.0827 9.36039 16.835H9.96039H10.5604C10.5604 15.6973 10.0759 14.873 9.40809 14.3184C8.76059 13.7807 7.96155 13.5105 7.30509 13.3942L7.20039 13.985ZM9.96039 16.835H9.36039C9.36039 17.5463 8.9763 18.1685 8.27059 18.6379C7.55773 19.1121 6.54998 19.4 5.44539 19.4V20V20.6C6.7408 20.6 7.99055 20.2654 8.93519 19.6371C9.88698 19.004 10.5604 18.0437 10.5604 16.835H9.96039ZM5.44539 20V19.4H0.750391V20V20.6H5.44539V20ZM0.750391 20H1.35039V19.82H0.750391H0.150391V20H0.750391ZM0.750391 19.82V20.42C1.0936 20.42 1.50089 20.3743 1.83532 20.1547C2.22006 19.9021 2.40039 19.4956 2.40039 19.025H1.80039H1.20039C1.20039 19.1086 1.18567 19.1413 1.18349 19.1457C1.18328 19.1462 1.18503 19.1461 1.17671 19.1516C1.1633 19.1604 1.12712 19.1791 1.05166 19.1949C0.976399 19.2105 0.877179 19.22 0.750391 19.22V19.82ZM1.80039 19.025H2.40039V10.475H1.80039H1.20039V19.025H1.80039ZM1.80039 10.475H2.40039C2.40039 10.0044 2.22006 9.59791 1.83532 9.34531C1.50089 9.12573 1.0936 9.07999 0.750391 9.07999V9.67999V10.28C0.877179 10.28 0.976399 10.2895 1.05166 10.3051C1.12712 10.3209 1.1633 10.3396 1.17671 10.3484C1.18503 10.3539 1.18328 10.3538 1.18349 10.3543C1.18567 10.3587 1.20039 10.3914 1.20039 10.475H1.80039ZM0.750391 9.67999H1.35039V9.49999H0.750391H0.150391V9.67999H0.750391ZM0.750391 9.49999V10.1H4.80039V9.49999V8.89999H0.750391V9.49999ZM2.70039 19.82V20.42H4.77039V19.82V19.22H2.70039V19.82ZM4.77039 19.82V20.42C6.12419 20.42 7.31258 20.1407 8.1807 19.5412C9.07494 18.9237 9.58539 17.9935 9.58539 16.835H8.98539H8.38539C8.38539 17.5965 8.07084 18.1588 7.49883 18.5538C6.9007 18.9668 5.98159 19.22 4.77039 19.22V19.82ZM8.98539 16.835H9.58539C9.58539 15.8372 9.26499 15.0553 8.75597 14.4961C8.25424 13.9449 7.60083 13.6444 6.9826 13.5429L6.88539 14.135L6.78818 14.7271C7.17495 14.7906 7.57154 14.9776 7.86856 15.3039C8.15829 15.6222 8.38539 16.1078 8.38539 16.835H8.98539ZM6.88539 14.135L6.64583 13.5849C5.74199 13.9785 4.57862 14.4519 3.66822 15.3749C2.72687 16.3293 2.10039 17.708 2.10039 19.82H2.70039H3.30039C3.30039 17.972 3.83641 16.9132 4.52256 16.2176C5.23966 15.4906 6.16879 15.1015 7.12495 14.6851L6.88539 14.135ZM2.70039 18.08L3.28561 18.2123C3.70993 16.3361 4.88956 15.4766 6.09769 14.732C6.68025 14.373 7.34437 14.0005 7.83411 13.5535C8.35874 13.0746 8.74539 12.46 8.74539 11.6H8.14539H7.54539C7.54539 12.0375 7.37142 12.3511 7.0251 12.6672C6.64391 13.0151 6.12678 13.3045 5.46809 13.7105C4.19372 14.4959 2.65085 15.5789 2.11517 17.9477L2.70039 18.08ZM8.14539 11.6H8.74539C8.74539 10.964 8.49871 10.4564 8.10385 10.0807C7.72658 9.72164 7.23796 9.50411 6.76415 9.36635C5.82094 9.09211 4.73632 9.07999 4.12539 9.07999V9.67999V10.28C4.74446 10.28 5.66984 10.2979 6.42913 10.5186C6.80657 10.6284 7.09233 10.7746 7.27662 10.95C7.44332 11.1086 7.54539 11.306 7.54539 11.6H8.14539ZM4.12539 9.67999V9.07999H2.70039V9.67999V10.28H4.12539V9.67999ZM2.70039 9.67999H2.10039V18.08H2.70039H3.30039V9.67999H2.70039Z" fill="white"/>
</g>
</svg>
