<svg width="1440" height="864" viewBox="0 0 1440 864" fill="none" xmlns="http://www.w3.org/2000/svg">
<g clip-path="url(#clip0_92_120)">
<mask id="mask0_92_120" style="mask-type:luminance" maskUnits="userSpaceOnUse" x="0" y="0" width="1440" height="864">
<path d="M1440 0H0V864H1440V0Z" fill="white"/>
</mask>
<g mask="url(#mask0_92_120)">
<mask id="mask1_92_120" style="mask-type:luminance" maskUnits="userSpaceOnUse" x="0" y="0" width="1440" height="864">
<path d="M1440 0H0V864H1440V0Z" fill="white"/>
</mask>
<g mask="url(#mask1_92_120)">
<mask id="mask2_92_120" style="mask-type:luminance" maskUnits="userSpaceOnUse" x="645" y="342" width="150" height="180">
<path d="M795 342H645V522H795V342Z" fill="white"/>
<path d="M710.454 362.769C732.136 362.769 769.363 367.754 769.363 395.169C769.363 411.162 757.909 418.223 743.182 424.869C759.341 427.777 780.818 438.162 780.818 464.331C780.818 490.915 751.977 508.154 719.25 508.154H655.227V505.662C663.613 505.662 669.545 503.169 669.545 494.654V376.269C669.545 367.754 663.613 365.262 655.227 365.262V362.769H710.454ZM681.818 505.662H710.045C745.022 505.662 767.523 490.915 767.523 464.331C767.523 440.446 752.591 429.231 738.886 426.946C713.523 438.162 681.818 450.831 681.818 505.662ZM681.818 481.569C694.909 422.792 756.068 427.777 756.068 391.846C756.068 366.092 718.023 365.262 701.25 365.262H681.818V481.569Z" fill="white"/>
</mask>
<g mask="url(#mask2_92_120)">
<path d="M743.187 424.869L739.865 417.278L715.418 428.31L741.76 433.049L743.187 424.869ZM655.233 508.154H647.051V516.461H655.233V508.154ZM655.233 505.661V497.354H647.051V505.661H655.233ZM655.233 365.261H647.051V373.569H655.233V365.261ZM655.233 362.769V354.461H647.051V362.769H655.233ZM681.824 505.661H673.642V513.969H681.824V505.661ZM738.892 426.946L740.218 418.747L737.837 418.351L735.626 419.329L738.892 426.946ZM681.824 481.569H673.642L689.804 483.4L681.824 481.569ZM681.824 365.261V356.954H673.642V365.261H681.824ZM710.46 362.769V371.077C720.914 371.077 734.475 372.307 745.118 376.446C755.724 380.572 761.187 386.481 761.187 395.169H769.369H777.551C777.551 376.442 764.4 366.153 750.972 360.929C737.581 355.723 721.689 354.461 710.46 354.461V362.769ZM769.369 395.169H761.187C761.187 400.77 759.329 404.411 756.128 407.537C752.547 411.035 747.177 413.977 739.865 417.278L743.187 424.869L746.511 432.46C753.924 429.115 761.647 425.203 767.474 419.511C773.681 413.446 777.551 405.561 777.551 395.169H769.369ZM743.187 424.869L741.76 433.049C748.967 434.347 756.89 437.251 762.839 442.269C768.51 447.051 772.642 453.915 772.642 464.331H780.823H789.005C789.005 448.577 782.399 437.164 773.293 429.485C764.463 422.041 753.566 418.299 744.616 416.689L743.187 424.869ZM780.823 464.331H772.642C772.642 474.179 767.404 482.794 757.781 489.294C748.06 495.86 734.318 499.846 719.255 499.846V508.154V516.461C736.92 516.461 753.962 511.828 766.845 503.129C779.823 494.363 789.005 481.067 789.005 464.331H780.823ZM719.255 508.154V499.846H655.233V508.154V516.461H719.255V508.154ZM655.233 508.154H663.414V505.661H655.233H647.051V508.154H655.233ZM655.233 505.661V513.969C659.913 513.969 665.467 513.336 670.028 510.296C675.273 506.799 677.733 501.17 677.733 494.654H669.551H661.369C661.369 495.812 661.168 496.263 661.139 496.326C661.135 496.333 661.159 496.331 661.047 496.407C660.863 496.528 660.37 496.788 659.341 497.006C658.314 497.222 656.961 497.354 655.233 497.354V505.661ZM669.551 494.654H677.733V376.269H669.551H661.369V494.654H669.551ZM669.551 376.269H677.733C677.733 369.753 675.273 364.124 670.028 360.626C665.467 357.587 659.913 356.954 655.233 356.954V365.261V373.569C656.961 373.569 658.314 373.701 659.341 373.917C660.37 374.135 660.863 374.395 661.047 374.516C661.159 374.592 661.135 374.59 661.139 374.597C661.168 374.66 661.369 375.111 661.369 376.269H669.551ZM655.233 365.261H663.414V362.769H655.233H647.051V365.261H655.233ZM655.233 362.769V371.077H710.46V362.769V354.461H655.233V362.769ZM681.824 505.661V513.969H710.051V505.661V497.354H681.824V505.661ZM710.051 505.661V513.969C728.513 513.969 744.718 510.103 756.556 501.802C768.75 493.252 775.71 480.371 775.71 464.331H767.528H759.346C759.346 474.874 755.058 482.659 747.258 488.129C739.101 493.847 726.568 497.354 710.051 497.354V505.661ZM767.528 464.331H775.71C775.71 450.516 771.341 439.688 764.4 431.946C757.558 424.314 748.649 420.153 740.218 418.747L738.892 426.946L737.566 435.145C742.841 436.024 748.248 438.613 752.298 443.13C756.249 447.539 759.346 454.261 759.346 464.331H767.528ZM738.892 426.946L735.626 419.329C723.3 424.779 707.436 431.334 695.022 444.114C682.185 457.328 673.642 476.418 673.642 505.661H681.824H690.005C690.005 480.074 697.314 465.414 706.671 455.782C716.45 445.716 729.12 440.328 742.159 434.563L738.892 426.946ZM681.824 481.569L689.804 483.4C695.589 457.423 711.675 445.522 728.151 435.212C736.094 430.241 745.151 425.084 751.829 418.894C758.983 412.264 764.255 403.754 764.255 391.846H756.074H747.892C747.892 397.904 745.519 402.246 740.797 406.623C735.598 411.44 728.547 415.447 719.566 421.068C702.188 431.943 681.149 446.938 673.843 479.738L681.824 481.569ZM756.074 391.846H764.255C764.255 383.04 760.892 376.011 755.508 370.81C750.363 365.838 743.7 362.826 737.238 360.919C724.377 357.122 709.587 356.954 701.255 356.954V365.261V373.569C709.698 373.569 722.317 373.817 732.67 376.873C737.818 378.393 741.714 380.418 744.227 382.846C746.501 385.042 747.892 387.775 747.892 391.846H756.074ZM701.255 365.261V356.954H681.824V365.261V373.569H701.255V365.261ZM681.824 365.261H673.642V481.569H681.824H690.005V365.261H681.824Z" fill="white"/>
</g>
</g>
</g>
</g>
<defs>
<clipPath id="clip0_92_120">
<rect width="1440" height="864" fill="white"/>
</clipPath>
</defs>
</svg>
