<svg width="1440" height="864" viewBox="0 0 1440 864" fill="none" xmlns="http://www.w3.org/2000/svg">
<g clip-path="url(#clip0_57_2)">
<rect x="620" y="303" width="203" height="277" fill="#E6E6E6"/>
<path fill-rule="evenodd" clip-rule="evenodd" d="M1440 0H0V864H1440V0ZM814.061 360.485C814.061 356.73 812.947 353.059 810.861 349.937C808.775 346.815 805.811 344.382 802.342 342.945C798.873 341.508 795.055 341.132 791.373 341.865C787.689 342.597 784.307 344.405 781.652 347.061C778.998 349.716 777.189 353.098 776.457 356.781C775.725 360.464 776.1 364.281 777.537 367.75C778.975 371.219 781.406 374.184 784.529 376.27C787.65 378.356 791.322 379.469 795.076 379.469C800.111 379.469 804.939 377.469 808.5 373.909C812.061 370.349 814.061 365.52 814.061 360.485ZM788.248 522.5V505.486L724.725 345.214H689.463L625.939 505.486V522.5H650.166L665.305 483.019H728.152L738.418 456.371L764.025 522.5H788.248ZM735.301 448.349L738.352 456.202H675.736L707.02 374.513L735.301 448.322V448.349Z" fill="#E6E6E6"/>
<path d="M714.4 379C727.12 379 748.96 381.88 748.96 397.72C748.96 406.96 742.24 411.04 733.6 414.88C743.08 416.56 755.68 422.56 755.68 437.68C755.68 453.04 738.76 463 719.56 463H682V461.56C686.92 461.56 690.4 460.12 690.4 455.2V386.8C690.4 381.88 686.92 380.44 682 380.44V379H714.4ZM697.6 461.56H714.16C734.68 461.56 747.88 453.04 747.88 437.68C747.88 423.88 739.12 417.4 731.08 416.08C716.2 422.56 697.6 429.88 697.6 461.56ZM697.6 447.64C705.28 413.68 741.16 416.56 741.16 395.8C741.16 380.92 718.84 380.44 709 380.44H697.6V447.64Z" fill="#DDDDDD"/>
<mask id="mask0_57_2" style="mask-type:luminance" maskUnits="userSpaceOnUse" x="676" y="367" width="88" height="104">
<path d="M764 367H676V471H764V367Z" fill="#E6E6E6"/>
<path d="M714.4 379C727.12 379 748.96 381.88 748.96 397.72C748.96 406.96 742.24 411.04 733.6 414.88C743.08 416.56 755.68 422.56 755.68 437.68C755.68 453.04 738.76 463 719.56 463H682V461.56C686.92 461.56 690.4 460.12 690.4 455.2V386.8C690.4 381.88 686.92 380.44 682 380.44V379H714.4ZM697.6 461.56H714.16C734.68 461.56 747.88 453.04 747.88 437.68C747.88 423.88 739.12 417.4 731.08 416.08C716.2 422.56 697.6 429.88 697.6 461.56ZM697.6 447.64C705.28 413.68 741.16 416.56 741.16 395.8C741.16 380.92 718.84 380.44 709 380.44H697.6V447.64Z" fill="#E6E6E6"/>
</mask>
<g mask="url(#mask0_57_2)">
<path d="M733.603 414.88L731.654 410.494L717.312 416.868L732.766 419.606L733.603 414.88ZM682.003 463H677.203V467.8H682.003V463ZM682.003 461.56V456.76H677.203V461.56H682.003ZM682.003 380.44H677.203V385.24H682.003V380.44ZM682.003 379V374.2H677.203V379H682.003ZM697.603 461.56H692.803V466.36H697.603V461.56ZM731.083 416.08L731.861 411.343L730.464 411.114L729.167 411.679L731.083 416.08ZM697.603 447.64H692.803L702.285 448.698L697.603 447.64ZM697.603 380.44V375.64H692.803V380.44H697.603ZM714.403 379V383.8C720.536 383.8 728.492 384.511 734.736 386.902C740.958 389.286 744.163 392.7 744.163 397.72H748.963H753.763C753.763 386.9 746.048 380.955 738.17 377.937C730.314 374.929 720.991 374.2 714.403 374.2V379ZM748.963 397.72H744.163C744.163 400.956 743.073 403.06 741.195 404.866C739.094 406.887 735.944 408.587 731.654 410.494L733.603 414.88L735.553 419.266C739.902 417.333 744.433 415.073 747.851 411.784C751.493 408.28 753.763 403.724 753.763 397.72H748.963ZM733.603 414.88L732.766 419.606C736.994 420.356 741.642 422.034 745.132 424.933C748.459 427.696 750.883 431.662 750.883 437.68H755.683H760.483C760.483 428.578 756.607 421.984 751.265 417.547C746.085 413.246 739.692 411.084 734.441 410.154L733.603 414.88ZM755.683 437.68H750.883C750.883 443.37 747.81 448.348 742.165 452.103C736.462 455.897 728.4 458.2 719.563 458.2V463V467.8C729.926 467.8 739.924 465.123 747.482 460.097C755.096 455.032 760.483 447.35 760.483 437.68H755.683ZM719.563 463V458.2H682.003V463V467.8H719.563V463ZM682.003 463H686.803V461.56H682.003H677.203V463H682.003ZM682.003 461.56V466.36C684.749 466.36 688.007 465.994 690.683 464.238C693.76 462.217 695.203 458.965 695.203 455.2H690.403H685.603C685.603 455.869 685.485 456.13 685.468 456.166C685.466 456.17 685.48 456.169 685.414 456.213C685.306 456.283 685.017 456.433 684.413 456.559C683.811 456.684 683.017 456.76 682.003 456.76V461.56ZM690.403 455.2H695.203V386.8H690.403H685.603V455.2H690.403ZM690.403 386.8H695.203C695.203 383.035 693.76 379.783 690.683 377.762C688.007 376.006 684.749 375.64 682.003 375.64V380.44V385.24C683.017 385.24 683.811 385.316 684.413 385.441C685.017 385.567 685.306 385.717 685.414 385.787C685.48 385.831 685.466 385.83 685.468 385.834C685.485 385.87 685.603 386.131 685.603 386.8H690.403ZM682.003 380.44H686.803V379H682.003H677.203V380.44H682.003ZM682.003 379V383.8H714.403V379V374.2H682.003V379ZM697.603 461.56V466.36H714.163V461.56V456.76H697.603V461.56ZM714.163 461.56V466.36C724.994 466.36 734.501 464.126 741.446 459.33C748.6 454.39 752.683 446.948 752.683 437.68H747.883H743.083C743.083 443.772 740.567 448.27 735.991 451.43C731.206 454.734 723.853 456.76 714.163 456.76V461.56ZM747.883 437.68H752.683C752.683 429.698 750.12 423.442 746.048 418.969C742.034 414.559 736.807 412.155 731.861 411.343L731.083 416.08L730.305 420.817C733.4 421.325 736.572 422.821 738.948 425.431C741.266 427.978 743.083 431.862 743.083 437.68H747.883ZM731.083 416.08L729.167 411.679C721.936 414.828 712.629 418.615 705.346 425.999C697.815 433.634 692.803 444.664 692.803 461.56H697.603H702.403C702.403 446.776 706.691 438.306 712.18 432.741C717.917 426.925 725.35 423.812 733 420.481L731.083 416.08ZM697.603 447.64L702.285 448.698C705.679 433.689 715.116 426.813 724.782 420.856C729.442 417.984 734.755 415.004 738.673 411.428C742.87 407.597 745.963 402.68 745.963 395.8H741.163H736.363C736.363 399.3 734.971 401.809 732.201 404.338C729.151 407.121 725.014 409.436 719.745 412.684C709.55 418.967 697.207 427.631 692.921 446.582L697.603 447.64ZM741.163 395.8H745.963C745.963 390.712 743.99 386.651 740.831 383.646C737.813 380.773 733.904 379.033 730.113 377.931C722.568 375.737 713.891 375.64 709.003 375.64V380.44V385.24C713.956 385.24 721.359 385.383 727.433 387.149C730.453 388.027 732.739 389.197 734.213 390.6C735.547 391.869 736.363 393.448 736.363 395.8H741.163ZM709.003 380.44V375.64H697.603V380.44V385.24H709.003V380.44ZM697.603 380.44H692.803V447.64H697.603H702.403V380.44H697.603Z" fill="#E6E6E6"/>
</g>
</g>
<defs>
<clipPath id="clip0_57_2">
<rect width="1440" height="864" fill="white"/>
</clipPath>
</defs>
</svg>
