<svg width="1440" height="864" viewBox="0 0 1440 864" fill="none" xmlns="http://www.w3.org/2000/svg">
<g clip-path="url(#clip0_91_89)">
<mask id="mask0_91_89" style="mask-type:luminance" maskUnits="userSpaceOnUse" x="0" y="0" width="1440" height="864">
<path d="M1440 0H0V864H1440V0Z" fill="white"/>
</mask>
<g mask="url(#mask0_91_89)">
<path d="M823 303H620V580H823V303Z" fill="#E6E6E6"/>
<path fill-rule="evenodd" clip-rule="evenodd" d="M1440 0H0V864H1440V0ZM814.061 360.485C814.061 356.73 812.947 353.059 810.861 349.937C808.775 346.815 805.811 344.382 802.342 342.945C798.873 341.508 795.055 341.132 791.373 341.865C787.689 342.597 784.307 344.405 781.652 347.061C778.998 349.716 777.189 353.098 776.457 356.781C775.725 360.464 776.1 364.281 777.537 367.75C778.975 371.219 781.406 374.184 784.529 376.27C787.65 378.356 791.322 379.469 795.076 379.469C800.111 379.469 804.939 377.469 808.5 373.909C812.061 370.349 814.061 365.52 814.061 360.485ZM788.248 522.5V505.486L724.725 345.214H689.463L625.939 505.486V522.5H650.166L665.305 483.019H728.152L738.418 456.371L764.025 522.5H788.248ZM735.301 448.349L738.352 456.202H675.736L707.02 374.513L735.301 448.322V448.349Z" fill="#E6E6E6"/>
<path d="M710.455 362.769C732.136 362.769 769.364 367.753 769.364 395.169C769.364 411.161 757.909 418.223 743.182 424.869C759.341 427.776 780.818 438.161 780.818 464.33C780.818 490.915 751.977 508.153 719.25 508.153H655.227V505.661C663.614 505.661 669.546 503.169 669.546 494.653V376.269C669.546 367.753 663.614 365.261 655.227 365.261V362.769H710.455ZM681.818 505.661H710.045C745.023 505.661 767.523 490.915 767.523 464.33C767.523 440.446 752.591 429.23 738.886 426.946C713.523 438.161 681.818 450.83 681.818 505.661ZM681.818 481.569C694.909 422.792 756.068 427.776 756.068 391.846C756.068 366.092 718.023 365.261 701.25 365.261H681.818V481.569Z" fill="#DDDDDD"/>
<mask id="mask1_91_89" style="mask-type:luminance" maskUnits="userSpaceOnUse" x="645" y="342" width="150" height="180">
<path d="M795 342H645V522H795V342Z" fill="white"/>
<path d="M710.455 362.769C732.136 362.769 769.364 367.753 769.364 395.169C769.364 411.161 757.909 418.223 743.182 424.869C759.341 427.776 780.818 438.161 780.818 464.33C780.818 490.915 751.977 508.153 719.25 508.153H655.227V505.661C663.614 505.661 669.546 503.169 669.546 494.653V376.269C669.546 367.753 663.614 365.261 655.227 365.261V362.769H710.455ZM681.818 505.661H710.045C745.023 505.661 767.523 490.915 767.523 464.33C767.523 440.446 752.591 429.23 738.886 426.946C713.523 438.161 681.818 450.83 681.818 505.661ZM681.818 481.569C694.909 422.792 756.068 427.776 756.068 391.846C756.068 366.092 718.023 365.261 701.25 365.261H681.818V481.569Z" fill="white"/>
</mask>
<g mask="url(#mask1_91_89)">
<path d="M743.187 424.869L739.865 417.277L715.418 428.309L741.76 433.048L743.187 424.869ZM655.233 508.153H647.051V516.461H655.233V508.153ZM655.233 505.661V497.353H647.051V505.661H655.233ZM655.233 365.261H647.051V373.569H655.233V365.261ZM655.233 362.769V354.461H647.051V362.769H655.233ZM681.824 505.661H673.642V513.969H681.824V505.661ZM738.892 426.946L740.218 418.747L737.837 418.351L735.626 419.328L738.892 426.946ZM681.824 481.569H673.642L689.804 483.4L681.824 481.569ZM681.824 365.261V356.953H673.642V365.261H681.824ZM710.46 362.769V371.076C720.914 371.076 734.475 372.307 745.118 376.445C755.724 380.571 761.187 386.48 761.187 395.169H769.369H777.551C777.551 376.442 764.4 366.152 750.972 360.929C737.581 355.723 721.689 354.461 710.46 354.461V362.769ZM769.369 395.169H761.187C761.187 400.769 759.329 404.411 756.128 407.537C752.547 411.035 747.177 413.977 739.865 417.277L743.187 424.869L746.511 432.46C753.924 429.114 761.647 425.203 767.474 419.51C773.681 413.446 777.551 405.56 777.551 395.169H769.369ZM743.187 424.869L741.76 433.048C748.967 434.346 756.89 437.251 762.839 442.268C768.51 447.05 772.642 453.914 772.642 464.33H780.823H789.005C789.005 448.577 782.399 437.164 773.293 429.485C764.463 422.041 753.566 418.299 744.616 416.689L743.187 424.869ZM780.823 464.33H772.642C772.642 474.178 767.404 482.794 757.781 489.293C748.06 495.86 734.318 499.846 719.255 499.846V508.153V516.461C736.92 516.461 753.962 511.828 766.845 503.129C779.823 494.362 789.005 481.067 789.005 464.33H780.823ZM719.255 508.153V499.846H655.233V508.153V516.461H719.255V508.153ZM655.233 508.153H663.414V505.661H655.233H647.051V508.153H655.233ZM655.233 505.661V513.969C659.913 513.969 665.467 513.335 670.028 510.296C675.273 506.798 677.733 501.17 677.733 494.653H669.551H661.369C661.369 495.811 661.168 496.263 661.139 496.325C661.135 496.332 661.159 496.33 661.047 496.406C660.863 496.528 660.37 496.787 659.341 497.005C658.314 497.222 656.961 497.353 655.233 497.353V505.661ZM669.551 494.653H677.733V376.269H669.551H661.369V494.653H669.551ZM669.551 376.269H677.733C677.733 369.752 675.273 364.124 670.028 360.626C665.467 357.587 659.913 356.953 655.233 356.953V365.261V373.569C656.961 373.569 658.314 373.7 659.341 373.917C660.37 374.135 660.863 374.394 661.047 374.515C661.159 374.591 661.135 374.59 661.139 374.597C661.168 374.659 661.369 375.111 661.369 376.269H669.551ZM655.233 365.261H663.414V362.769H655.233H647.051V365.261H655.233ZM655.233 362.769V371.076H710.46V362.769V354.461H655.233V362.769ZM681.824 505.661V513.969H710.051V505.661V497.353H681.824V505.661ZM710.051 505.661V513.969C728.513 513.969 744.718 510.102 756.556 501.801C768.75 493.251 775.71 480.371 775.71 464.33H767.528H759.346C759.346 474.874 755.058 482.659 747.258 488.128C739.101 493.847 726.568 497.353 710.051 497.353V505.661ZM767.528 464.33H775.71C775.71 450.515 771.341 439.687 764.4 431.946C757.558 424.313 748.649 420.152 740.218 418.747L738.892 426.946L737.566 435.144C742.841 436.023 748.248 438.613 752.298 443.13C756.249 447.538 759.346 454.261 759.346 464.33H767.528ZM738.892 426.946L735.626 419.328C723.3 424.779 707.436 431.333 695.022 444.113C682.185 457.327 673.642 476.418 673.642 505.661H681.824H690.005C690.005 480.073 697.314 465.414 706.671 455.782C716.45 445.716 729.12 440.328 742.159 434.563L738.892 426.946ZM681.824 481.569L689.804 483.4C695.589 457.423 711.675 445.522 728.151 435.212C736.094 430.241 745.151 425.083 751.829 418.894C758.983 412.263 764.255 403.753 764.255 391.846H756.074H747.892C747.892 397.903 745.519 402.246 740.797 406.623C735.598 411.44 728.547 415.446 719.566 421.068C702.188 431.942 681.149 446.938 673.843 479.737L681.824 481.569ZM756.074 391.846H764.255C764.255 383.039 760.892 376.011 755.508 370.81C750.363 365.837 743.7 362.826 737.238 360.918C724.377 357.121 709.587 356.953 701.255 356.953V365.261V373.569C709.698 373.569 722.317 373.816 732.67 376.873C737.818 378.392 741.714 380.417 744.227 382.846C746.501 385.042 747.892 387.775 747.892 391.846H756.074ZM701.255 365.261V356.953H681.824V365.261V373.569H701.255V365.261ZM681.824 365.261H673.642V481.569H681.824H690.005V365.261H681.824Z" fill="white"/>
</g>
</g>
</g>
<defs>
<clipPath id="clip0_91_89">
<rect width="1440" height="864" fill="white"/>
</clipPath>
</defs>
</svg>
